<svg width="64" height="64" viewBox="0 0 64 64" fill="none" xmlns="http://www.w3.org/2000/svg">
<path d="M64 44C64 50.075 60.627 55 54 55H10C3.373 55 0 50.075 0 44V22C0 15.925 3.373 11 10 11H54C60.627 11 64 15.925 64 22V44Z" fill="#1B75BB"/>
<path fill-rule="evenodd" clip-rule="evenodd" d="M11.575 23.9261C11.025 22.7841 10.477 21.6431 9.92398 20.5001C9.82898 20.3051 9.75398 20.1051 9.76698 19.8841C9.78498 19.5971 9.93898 19.4081 10.204 19.3121C10.478 19.2111 10.709 19.2981 10.893 19.5101C11.079 19.7311 11.081 19.9811 10.957 20.2281C10.852 20.4341 10.672 20.4761 10.46 20.4261C10.32 20.3911 10.256 20.2961 10.258 20.1561C10.26 20.0651 10.296 19.9931 10.399 19.9861C10.563 19.9781 10.551 20.1181 10.586 20.2181C10.59 20.2271 10.622 20.2221 10.641 20.2271C10.726 20.1821 10.7 20.0591 10.752 20.0231C11.057 19.8021 10.637 19.7011 10.675 19.5271C10.677 19.5131 10.592 19.4751 10.582 19.5231C10.552 19.6651 10.442 19.6091 10.363 19.6271C10.085 19.6881 9.94698 19.8751 9.97098 20.1621C10.003 20.5301 10.201 20.7111 10.67 20.7991C10.702 20.8991 10.486 20.9691 10.642 21.0801C10.776 21.1801 10.585 21.3101 10.674 21.4081C10.737 21.4801 10.935 21.2211 10.908 21.5121C10.864 21.9991 11.068 22.2771 11.596 22.4091C11.305 22.0611 11.26 21.6851 11.293 21.2881C11.314 20.9991 11.383 20.7241 11.458 20.4441C11.586 19.9671 11.6 19.5101 11.176 19.1531C11.562 18.8511 11.562 18.8511 11.151 18.6071C11.562 18.2161 11.632 17.9121 11.463 17.2431C11.399 16.9841 11.325 16.7291 11.294 16.4631C11.247 16.0611 11.391 15.7061 11.591 15.3411C11.087 15.4401 10.879 15.6891 10.869 16.1481C10.867 16.2121 10.933 16.3501 10.794 16.3241C10.608 16.2851 10.667 16.3811 10.683 16.4701C10.694 16.5271 10.766 16.6211 10.728 16.6291C10.35 16.7041 10.74 16.8561 10.683 16.9691C10.382 16.9431 10.162 17.0841 10.006 17.3391C9.98698 17.4901 9.93298 17.6381 9.99998 17.7911C10.068 17.9531 10.163 18.0741 10.354 18.0851C10.451 18.0891 10.596 18.0081 10.581 18.2141C10.581 18.2231 10.607 18.2461 10.617 18.2441C10.793 18.2021 10.706 17.9351 10.916 17.8981C10.971 17.8901 10.891 17.7911 10.84 17.7831C10.666 17.7531 10.812 17.5121 10.631 17.4901C10.57 17.5141 10.597 17.5751 10.583 17.6201C10.547 17.7411 10.47 17.7961 10.354 17.7241C10.243 17.6601 10.251 17.5581 10.31 17.4571C10.427 17.2551 10.779 17.2551 10.947 17.4591C11.093 17.6391 11.104 17.9991 10.967 18.1811C10.803 18.3981 10.373 18.4961 10.09 18.3731C9.84098 18.2641 9.74798 18.0541 9.78898 17.7971C9.81198 17.6371 9.84298 17.4741 9.94598 17.3381C10.095 16.9601 10.247 16.5841 10.394 16.2041C10.484 15.9751 10.52 15.7411 10.312 15.5551C10.097 15.3641 9.84698 15.3551 9.59998 15.4811C9.48898 15.5381 9.40398 15.5441 9.28998 15.4851C9.04398 15.3551 8.79298 15.3611 8.57698 15.5491C8.34998 15.7461 8.39998 15.9901 8.48998 16.2271C8.62598 16.5801 8.76898 16.9271 8.91098 17.2751C8.98998 17.3621 9.00598 17.4751 9.04098 17.5801C9.12498 17.8491 9.15198 18.1081 8.90298 18.3091C8.70898 18.4651 8.29298 18.4591 8.05798 18.3071C7.76198 18.1151 7.72998 17.6131 7.99998 17.3971C8.08224 17.3346 8.18383 17.3031 8.28698 17.3081C8.43998 17.3121 8.56698 17.3711 8.59998 17.5421C8.62098 17.6471 8.58398 17.7361 8.47298 17.7461C8.27498 17.7671 8.30098 17.5891 8.26898 17.4631H8.26498C8.09898 17.5651 8.18798 17.8541 7.93298 17.8371C7.95698 17.9421 8.05498 17.9371 8.09098 17.9841C8.17398 18.0891 8.12898 18.2191 8.39398 18.0991C8.88698 17.8751 8.99998 17.8061 8.84498 17.2781C8.77581 17.1744 8.68047 17.0908 8.5686 17.0358C8.45673 16.9809 8.33232 16.9565 8.20798 16.9651C8.13298 16.8541 8.52298 16.7381 8.17998 16.6501C8.33298 16.4081 8.00198 16.3211 8.01398 16.1121C8.03498 15.7181 7.76398 15.4331 7.28098 15.3421C7.66498 15.9001 7.65298 16.4741 7.47298 17.0621C7.43998 17.1711 7.40598 17.2791 7.38698 17.3901C7.30698 17.8481 7.29598 18.2911 7.74098 18.6021C7.32998 18.8471 7.32998 18.8471 7.69998 19.1561C7.33898 19.5461 7.27298 19.7931 7.39898 20.3361C7.55998 21.0251 7.80098 21.7151 7.30398 22.4121C7.75398 22.2731 7.94898 22.0431 7.99498 21.7241C8.00898 21.6141 7.78998 21.2901 8.19398 21.4151C8.19798 21.4151 8.22698 21.3741 8.22298 21.3661C8.08498 21.1781 8.33798 20.9821 8.20198 20.7961C8.22366 20.789 8.24569 20.783 8.26798 20.7781C8.66598 20.7141 8.87098 20.5251 8.90098 20.1881C8.93298 19.8501 8.86498 19.7731 8.38898 19.6221C8.36998 19.6161 8.34298 19.6161 8.33198 19.6011C8.29798 19.5511 8.23898 19.4251 8.20498 19.5401C8.16198 19.6871 7.96898 19.8611 8.00898 19.8881C8.14898 19.9711 8.11798 20.1671 8.27798 20.2421C8.32698 20.1251 8.32098 19.9621 8.49898 19.9871C8.60598 20.0041 8.61798 20.0921 8.61598 20.1741C8.61398 20.3311 8.52498 20.4121 8.36898 20.4351C8.16298 20.4651 8.00198 20.4071 7.91498 20.2101C7.80198 19.9561 7.80798 19.7091 8.00198 19.4931C8.19098 19.2841 8.42598 19.2081 8.69498 19.3161C8.95798 19.4211 9.10698 19.6141 9.10698 19.9071C9.10698 20.1021 9.05798 20.2871 8.97098 20.4671C8.56098 21.3021 8.15698 22.1411 7.75898 22.9821C7.55398 23.4171 7.30998 23.8341 7.15798 24.2921C6.90698 25.0611 7.17398 25.6061 7.90098 25.8361L7.97398 25.8321C8.11398 25.8971 8.25898 25.8491 8.40298 25.8631C8.74898 25.9031 9.04898 25.8161 9.27998 25.5431C9.38898 25.4161 9.47198 25.4441 9.57898 25.5521C9.79198 25.7701 10.034 25.9261 10.362 25.8391C10.5459 25.9136 10.7518 25.9125 10.935 25.8361C11.536 25.6971 11.802 25.3541 11.794 24.7491C11.796 24.4541 11.699 24.1881 11.575 23.9261ZM10.821 25.3861C10.554 25.4551 10.254 25.3401 10.126 25.1171C10.043 24.9731 10.02 24.8221 10.141 24.6901C10.24 24.5811 10.368 24.6071 10.478 24.6731C10.608 24.7521 10.557 24.8941 10.578 25.0231C10.709 25.0111 10.804 24.9191 10.802 24.8201C10.8 24.5811 11.152 24.6261 11.117 24.4291C11.091 24.2821 10.805 24.2961 10.816 24.0591C10.82 23.9641 10.717 23.8891 10.586 23.8631C10.608 24.5141 9.98698 24.1041 9.79198 24.4071C9.76408 24.3956 9.7364 24.3836 9.70898 24.3711C9.70898 24.0461 9.69598 23.7211 9.71098 23.3961C9.72098 23.1781 9.92098 23.0791 10.202 23.1331C10.257 23.1441 10.313 23.2241 10.363 23.1551C10.412 23.0911 10.357 23.0241 10.325 22.9591C10.2 22.7171 9.96398 22.6811 9.66798 22.6321C9.84698 22.4811 9.85598 22.3071 9.82098 22.1261C9.78177 21.956 9.69828 21.7994 9.57898 21.6721C9.50098 21.5811 9.43198 21.5521 9.32498 21.6481C9.18705 21.7693 9.09785 21.9365 9.07394 22.1186C9.05003 22.3007 9.09304 22.4853 9.19498 22.6381C8.84698 22.6741 8.58098 22.7761 8.48898 23.1421C8.58898 23.1351 8.67698 23.1271 8.76398 23.1251C9.08698 23.1211 9.16598 23.1981 9.16598 23.5171C9.16398 23.8021 9.16598 24.0891 9.16598 24.4111C9.00543 24.3175 8.82459 24.2644 8.63898 24.2561C8.39198 24.2481 8.23698 24.1631 8.33498 23.8581C8.14698 23.8931 8.07198 23.9861 8.03998 24.1261C8.03398 24.1531 8.02998 24.1871 8.03398 24.2161C8.04798 24.3661 7.45798 24.3211 7.89998 24.5841C8.09198 24.6991 8.02098 24.9931 8.27798 25.0191C8.32898 24.9851 8.29498 24.9301 8.29998 24.8841C8.32198 24.6751 8.45298 24.5891 8.63998 24.6371C8.82598 24.6841 8.84998 24.8411 8.80398 25.0091C8.73098 25.2641 8.44598 25.4361 8.14698 25.4021C7.83398 25.3671 7.58098 25.1311 7.55198 24.8341C7.53198 24.6361 7.57998 24.4471 7.66298 24.2681C8.24498 23.0301 8.82898 21.7901 9.41098 20.5491C9.52198 20.5911 9.53298 20.6951 9.56898 20.7741C10.1 21.8911 10.626 23.0111 11.156 24.1291C11.253 24.3351 11.332 24.5451 11.328 24.7751C11.324 25.0761 11.129 25.3091 10.821 25.3861Z" fill="#FDC40C"/>
<path fill-rule="evenodd" clip-rule="evenodd" d="M10.938 39.8581C10.749 39.8601 10.558 39.8601 10.369 39.8601C10.348 39.8481 10.34 39.8381 10.348 39.8261C10.354 39.8141 10.36 39.8081 10.369 39.8081H10.938C10.933 39.8244 10.933 39.8418 10.938 39.8581Z" fill="#CDC030"/>
<path fill-rule="evenodd" clip-rule="evenodd" d="M9.92197 34.476C9.82497 34.278 9.75397 34.08 9.76697 33.858C9.78297 33.569 9.94697 33.379 10.209 33.29C10.478 33.199 10.717 33.276 10.897 33.499C11.079 33.723 11.079 33.97 10.95 34.216C10.858 34.39 10.703 34.458 10.511 34.422C10.368 34.394 10.265 34.319 10.259 34.157C10.255 34.068 10.28 33.985 10.378 33.969C10.569 33.934 10.546 34.118 10.601 34.225C10.779 34.153 10.707 33.896 10.928 33.864C10.728 33.798 10.768 33.581 10.639 33.48C10.53 33.624 10.346 33.586 10.206 33.662C9.99497 33.775 9.94697 33.966 9.97897 34.185C10.028 34.537 10.209 34.69 10.676 34.786C10.545 34.982 10.805 35.186 10.577 35.436C10.868 35.319 10.94 35.343 10.894 35.602C10.828 35.97 11.17 36.328 11.537 36.33C11.137 35.746 11.272 35.13 11.433 34.521C11.571 34.003 11.623 33.521 11.17 33.12C11.561 32.859 11.561 32.857 11.17 32.566C11.608 32.196 11.578 31.731 11.449 31.24C11.281 30.608 11.13 29.971 11.542 29.348C11.128 29.418 10.82 29.746 10.896 30.092C10.959 30.385 10.819 30.342 10.592 30.31C10.888 30.512 10.491 30.735 10.696 30.924C10.66 30.933 10.639 30.939 10.621 30.941C10.211 30.996 9.99897 31.188 9.97297 31.549C9.94697 31.906 10.132 32.08 10.483 32.097C10.501 32.097 10.523 32.101 10.537 32.114C10.582 32.141 10.573 32.3 10.667 32.19C10.76 32.081 10.813 31.936 10.881 31.806C10.699 31.774 10.775 31.523 10.584 31.468C10.562 31.583 10.569 31.735 10.404 31.733C10.304 31.733 10.262 31.659 10.258 31.568C10.252 31.41 10.338 31.321 10.485 31.285C10.676 31.236 10.837 31.289 10.935 31.459C11.079 31.699 11.086 31.948 10.914 32.179C10.744 32.406 10.512 32.498 10.235 32.417C9.96797 32.336 9.79697 32.156 9.76797 31.867C9.74597 31.637 9.81997 31.427 9.92097 31.221C10.452 30.125 10.978 29.026 11.508 27.93C11.601 27.736 11.698 27.544 11.748 27.331C11.927 26.596 11.647 26.009 10.968 25.882C10.956 25.88 10.948 25.852 10.938 25.837C10.779 25.7 10.579 25.781 10.401 25.74C10.118 25.851 9.80397 25.904 9.59797 26.155C9.46997 26.308 9.37897 26.276 9.25797 26.14C9.04197 25.902 8.75697 25.8 8.43797 25.803C8.28497 25.809 8.13397 25.73 7.97697 25.778C7.94716 25.7897 7.92167 25.8103 7.90397 25.837C7.87697 25.927 7.78697 25.908 7.72597 25.935C7.27297 26.131 7.05297 26.479 7.07997 26.976C7.09597 27.291 7.20097 27.575 7.33697 27.853C7.88097 28.977 8.41797 30.105 8.96397 31.227C9.06097 31.427 9.11697 31.629 9.10797 31.847C9.10051 31.9968 9.03944 32.1389 8.9359 32.2474C8.83236 32.3559 8.69325 32.4235 8.54397 32.438C8.25497 32.47 7.95797 32.289 7.87797 32.007C7.81297 31.778 7.83497 31.554 8.01097 31.376C8.13997 31.247 8.30197 31.24 8.46797 31.308C8.59297 31.359 8.62697 31.461 8.61897 31.582C8.61297 31.655 8.58297 31.726 8.49397 31.733C8.35397 31.746 8.33397 31.634 8.29997 31.538C8.29197 31.507 8.27397 31.485 8.21297 31.507C8.14397 31.607 8.13997 31.78 8.00497 31.817C8.11997 32.276 8.40497 32.171 8.68597 32.032C8.90497 31.923 8.92897 31.717 8.90297 31.5C8.86297 31.165 8.67597 31.014 8.19697 30.914C8.36297 30.732 8.08597 30.525 8.22597 30.342C8.23197 30.33 8.21097 30.285 8.16597 30.304C7.88197 30.419 7.98597 30.207 7.98997 30.088C7.99897 29.673 7.68897 29.34 7.32697 29.378C7.52697 29.614 7.60597 29.892 7.60397 30.198C7.60197 30.594 7.50397 30.97 7.40997 31.346C7.29297 31.809 7.31497 32.24 7.71397 32.574C7.61197 32.677 7.43297 32.697 7.42897 32.85C7.42497 33.009 7.63297 33.018 7.70997 33.141C7.33297 33.44 7.30597 33.838 7.38597 34.261C7.42097 34.443 7.48797 34.616 7.52197 34.798C7.62097 35.332 7.71597 35.869 7.31197 36.345C7.48254 36.3394 7.64531 36.2722 7.77014 36.1558C7.89497 36.0394 7.97342 35.8818 7.99097 35.712C8.00797 35.583 7.83197 35.306 8.19697 35.378C8.20397 35.38 8.22797 35.338 8.22597 35.334C8.07597 35.149 8.38697 34.954 8.18497 34.776C8.22597 34.765 8.24597 34.759 8.26597 34.757C8.66597 34.7 8.87197 34.514 8.90497 34.175C8.93697 33.837 8.86497 33.754 8.39697 33.601C8.37897 33.595 8.35497 33.593 8.34297 33.58C8.30197 33.542 8.26597 33.394 8.21497 33.514C8.15797 33.652 8.03697 33.75 8.01097 33.9C8.19097 33.924 8.11797 34.151 8.25897 34.212C8.34897 34.131 8.32097 33.915 8.51897 33.974C8.62697 34.006 8.62897 34.109 8.61597 34.204C8.58597 34.386 8.43997 34.422 8.29497 34.431C8.22764 34.4372 8.15994 34.4241 8.09975 34.3933C8.03956 34.3625 7.98935 34.3152 7.95497 34.257C7.81297 34.016 7.79497 33.768 7.96097 33.532C8.12297 33.3 8.35597 33.203 8.63297 33.28C8.90197 33.354 9.08297 33.524 9.10597 33.817C9.12597 34.047 9.07097 34.26 8.96797 34.468C8.43916 35.5545 7.91415 36.6428 7.39297 37.733C7.30097 37.924 7.20497 38.121 7.14497 38.325C6.92397 39.073 7.21297 39.625 7.90497 39.809C7.92732 39.8348 7.95407 39.8565 7.98397 39.873C8.13097 39.911 8.28297 39.889 8.43197 39.894C8.85697 39.898 9.18397 39.706 9.44197 39.361C9.70397 39.716 10.026 39.901 10.442 39.894C10.61 39.878 10.79 39.941 10.937 39.808C11.483 39.71 11.784 39.359 11.798 38.819C11.806 38.492 11.711 38.193 11.571 37.906C11.017 36.762 10.47 35.618 9.91797 34.476M7.64197 27.393C7.36697 26.779 7.70297 26.263 8.29597 26.323C8.50397 26.341 8.66597 26.446 8.76497 26.628C8.84597 26.774 8.86497 26.94 8.71597 27.044C8.57597 27.141 8.42197 27.12 8.32497 26.95C8.28697 26.867 8.34597 26.768 8.28097 26.689C8.01497 26.768 8.05997 27.148 7.77297 27.212C7.71597 27.224 7.73497 27.314 7.78497 27.331C7.97697 27.397 8.02797 27.558 8.09797 27.724C8.14297 27.831 8.26597 27.871 8.29397 27.7C8.32397 27.512 8.44497 27.473 8.59897 27.464C8.78197 27.451 8.96097 27.428 9.15997 27.298C9.15997 27.606 9.15597 27.872 9.15997 28.137C9.16597 28.528 9.11097 28.588 8.73097 28.596C8.65197 28.598 8.57397 28.604 8.48597 28.608C8.59897 28.938 8.83997 29.057 9.18197 29.067C8.91097 29.445 9.06397 29.755 9.30297 30.047C9.37497 30.138 9.44697 30.17 9.55597 30.069C9.83597 29.808 9.90197 29.432 9.68897 29.072C10.019 29.051 10.293 28.953 10.38 28.575C10.285 28.584 10.208 28.594 10.13 28.596C9.80197 28.608 9.70297 28.511 9.70297 28.19C9.70297 27.915 9.70297 27.638 9.74297 27.336C9.97197 27.611 10.582 27.199 10.574 27.85C10.701 27.84 10.794 27.767 10.814 27.652C10.838 27.506 10.903 27.423 11.037 27.372C11.089 27.351 11.168 27.263 11.111 27.24C10.854 27.134 10.827 26.815 10.584 26.668C10.574 26.73 10.563 26.757 10.565 26.783C10.567 26.913 10.559 27.034 10.404 27.074C10.3 27.102 10.198 27.111 10.123 27.018C10.026 26.903 10.034 26.765 10.099 26.641C10.237 26.389 10.463 26.284 10.745 26.327C11.027 26.369 11.244 26.507 11.307 26.811C11.3487 27.0037 11.3255 27.2048 11.241 27.383C10.661 28.624 10.077 29.865 9.49197 31.107C9.48197 31.131 9.44997 31.147 9.41297 31.179C8.81797 29.914 8.21397 28.66 7.64197 27.393ZM8.80897 32.856C9.05297 32.727 9.27797 32.616 9.43797 32.371C9.60997 32.61 9.81097 32.739 10.079 32.847C9.83797 32.953 9.64097 33.055 9.50697 33.237C9.43697 33.333 9.39197 33.265 9.34697 33.21C9.21497 33.045 9.03497 32.951 8.80897 32.856ZM10.809 39.363C10.522 39.42 10.275 39.347 10.116 39.086C10.029 38.945 10.015 38.789 10.138 38.662C10.229 38.569 10.352 38.592 10.455 38.641C10.606 38.714 10.544 38.873 10.576 38.999C10.712 38.984 10.768 38.89 10.808 38.782C10.83 38.718 10.829 38.636 10.907 38.604C11.196 38.487 11.2 38.372 10.903 38.262C10.806 38.228 10.85 38.141 10.831 38.078C10.79 37.953 10.712 37.871 10.558 37.827C10.622 38.154 10.449 38.242 10.182 38.242C10.036 38.242 9.89997 38.28 9.70197 38.413C9.70197 38.029 9.69497 37.693 9.70397 37.362C9.70797 37.182 9.84197 37.12 9.99497 37.103C10.114 37.091 10.235 37.101 10.371 37.101C10.3 36.738 10.019 36.65 9.69697 36.624C9.89297 36.262 9.84697 35.95 9.58197 35.655C9.47197 35.532 9.39397 35.542 9.28497 35.659C9.03497 35.934 8.98397 36.258 9.15997 36.624C8.89297 36.645 8.65197 36.712 8.52697 36.978C8.46797 37.103 8.47197 37.115 8.60997 37.109C9.14097 37.091 9.16797 37.12 9.15397 37.651C9.15048 37.8664 9.14548 38.0817 9.13897 38.297C9.13897 38.316 9.12897 38.336 9.11797 38.376C8.95897 38.267 8.77897 38.243 8.59497 38.23C8.44197 38.218 8.32397 38.177 8.29197 37.992C8.26197 37.816 8.13597 37.866 8.09397 37.971C8.02797 38.139 7.97097 38.294 7.78197 38.364C7.72897 38.382 7.71597 38.47 7.76997 38.483C8.06297 38.542 8.00997 38.927 8.27797 39.004C8.34197 38.925 8.28397 38.826 8.32197 38.743C8.41897 38.575 8.57297 38.551 8.71197 38.65C8.85997 38.753 8.83997 38.917 8.76497 39.066C8.65397 39.293 8.36297 39.418 8.07997 39.365C7.93738 39.3419 7.80681 39.2712 7.7095 39.1644C7.61218 39.0576 7.55385 38.9211 7.54397 38.777C7.53496 38.5917 7.57461 38.4072 7.65897 38.242C8.23897 37 8.82297 35.762 9.40897 34.518C9.51797 34.579 9.53497 34.688 9.57497 34.777C10.102 35.886 10.627 36.996 11.152 38.108C11.249 38.314 11.326 38.524 11.322 38.754C11.3224 38.8998 11.271 39.041 11.1771 39.1525C11.0832 39.264 10.9527 39.3386 10.809 39.363Z" fill="#FDC40C"/>
<path fill-rule="evenodd" clip-rule="evenodd" d="M8.48805 25.845C8.49007 25.8576 8.49007 25.8704 8.48805 25.883C8.31605 25.881 8.13805 25.94 7.97705 25.832L8.48805 25.845Z" fill="#D2C02C"/>
<path fill-rule="evenodd" clip-rule="evenodd" d="M8.48805 39.814C8.49005 39.8266 8.49005 39.8394 8.48805 39.852C8.31605 39.85 8.13805 39.911 7.97705 39.801C8.14705 39.807 8.31905 39.811 8.48805 39.814Z" fill="#D3C02B"/>
<path fill-rule="evenodd" clip-rule="evenodd" d="M8.28499 26.689C8.41199 26.755 8.30099 26.865 8.32899 26.95C8.24599 26.875 8.28899 26.778 8.28499 26.689ZM8.32899 38.747C8.32899 38.836 8.32899 38.923 8.32699 39.01C8.32699 39.016 8.31399 39.024 8.30799 39.024C8.29999 39.022 8.29199 39.014 8.28499 39.008C8.28899 38.919 8.24399 38.822 8.32899 38.747Z" fill="#83BA67"/>
<path fill-rule="evenodd" clip-rule="evenodd" d="M31.5429 30.9001C31.5489 28.0941 33.8109 25.8501 36.6369 25.8501C39.4079 25.8551 41.6669 28.1211 41.6669 30.9001C41.6632 32.2411 41.1284 33.526 40.1795 34.4736C39.2306 35.4212 37.9449 35.9543 36.6039 35.9561C33.8199 35.9541 31.5439 33.6791 31.5459 30.8951M31.8689 41.1401C31.1849 41.0521 30.5439 40.8171 29.9129 40.5521C29.4749 40.3621 29.0309 40.1841 28.5849 39.9931C28.7029 39.8561 28.8979 39.9031 29.0429 39.7661C28.6659 39.6441 28.2579 39.6721 27.9339 39.4201C28.0899 39.2711 28.3239 39.3261 28.4749 39.1761C28.1209 39.0391 27.7249 39.1221 27.3819 38.8721C27.6669 38.7561 27.9599 38.8061 28.2169 38.6341C27.7319 38.4071 27.1229 38.5761 26.7069 38.0791H27.8179C27.8229 38.0641 27.8279 38.0491 27.8359 38.0341C27.6559 37.9511 27.4799 37.8671 27.3029 37.7871C26.8259 37.5741 26.3669 37.3341 25.9929 36.9661C25.8719 36.8461 25.6749 36.6961 25.7939 36.5341C25.8719 36.4301 26.0679 36.5901 26.2029 36.6611C26.4299 36.7881 26.6409 36.9511 26.9269 36.9431C26.9599 36.8071 26.8469 36.7881 26.7879 36.7391C26.1179 36.1771 25.4799 35.5881 24.9879 34.8591C24.9209 34.7571 24.7989 34.6441 24.9449 34.5311C25.0819 34.4271 25.2159 34.4801 25.3369 34.5961C25.6819 34.9411 26.0089 35.3101 26.3889 35.6161C26.4996 35.717 26.6347 35.7874 26.7809 35.8201C26.7139 35.7329 26.6448 35.6472 26.5739 35.5631C26.0609 34.9551 25.5849 34.3231 25.2259 33.6121C25.1459 33.4551 24.9949 33.2661 25.2209 33.1271C25.4379 32.9901 25.6139 33.1201 25.7449 33.2991C26.0449 33.7081 26.3389 34.1271 26.6389 34.5351C26.7099 34.6351 26.7809 34.7351 26.9509 34.8181C26.7309 34.3011 26.4839 33.8611 26.3269 33.3841C26.2059 33.0081 26.1089 32.6291 26.1069 32.2371C26.1039 32.1271 26.1089 32.0191 26.1259 31.9131C26.1509 31.7791 26.2139 31.6791 26.3729 31.6691C26.5309 31.6621 26.5639 31.7641 26.5949 31.8861C26.7299 32.3751 26.8629 32.8671 26.9989 33.3541C27.0739 33.6251 27.1779 33.8821 27.3619 34.1751C27.3389 33.7431 27.2159 33.3871 27.2299 33.0171C27.2389 32.8711 27.2389 32.7241 27.2579 32.5801C27.2612 32.5298 27.2832 32.4825 27.3197 32.4477C27.3562 32.4128 27.4045 32.393 27.4549 32.3921C27.5639 32.3851 27.6279 32.4511 27.6559 32.5641C27.7289 32.8461 27.7879 33.1341 27.8839 33.4101C29.0899 36.9081 31.5409 38.9531 35.1619 39.6091C35.5639 39.6821 35.9759 39.6991 36.3819 39.7481C36.4039 39.7991 36.3729 39.8421 36.3519 39.8811C36.2719 40.0491 36.2279 40.2681 36.0939 40.3651C35.9279 40.4871 35.7879 40.2501 35.6299 40.1871C35.0949 39.9801 34.5349 39.9921 33.9789 39.9671C33.3419 39.9391 32.7949 39.7411 32.3539 39.2751C32.2043 39.1206 32.0499 38.9709 31.8909 38.8261C31.6389 38.5891 31.3679 38.3971 31.0179 38.3061C30.3949 38.1441 29.9399 37.7361 29.5369 37.2551C29.1099 36.7451 28.7509 36.1811 28.2529 35.7321C28.1368 35.6266 28.0167 35.5255 27.8929 35.4291C27.7869 35.3461 27.6829 35.2341 27.5889 35.4591C27.5249 35.6171 27.4309 35.4591 27.3469 35.4531C27.2709 35.4481 27.1879 35.4141 27.1239 35.4781C27.0439 35.5671 27.1549 35.6151 27.1899 35.6731C27.2999 35.8521 27.4169 36.0331 27.4919 36.2371C27.5649 36.4421 27.5809 36.5841 27.2909 36.5411C27.2279 36.5321 27.1629 36.5481 27.0639 36.5531C27.2429 36.8811 27.5119 37.0911 27.7649 37.3361C27.6469 37.4161 27.4999 37.3361 27.3819 37.4471C27.5799 37.6421 27.8079 37.7961 28.0629 37.9001C28.1119 37.9211 28.1539 37.9441 28.2039 37.9491C28.5109 37.9801 28.2349 38.2591 28.3839 38.3651C28.4809 38.4351 28.7759 38.4151 28.5359 38.6741C28.4679 38.7461 28.5049 38.8621 28.6239 38.9051C28.6969 38.9301 28.7719 38.9571 28.8489 38.9751C29.0329 39.0271 29.1619 39.0831 28.9169 39.2481C28.7869 39.3311 28.8409 39.3941 28.9519 39.4521C29.1919 39.5861 29.4569 39.6471 29.7769 39.7141C29.6099 39.8261 29.4869 39.9091 29.3229 40.0151C30.1599 40.5071 31.0499 40.7871 31.9329 41.0761C31.9419 41.1351 31.9359 41.1641 31.8689 41.1401ZM36.0299 43.5571C35.8599 43.5871 35.7749 43.6881 35.6669 43.7481C35.5249 43.8331 35.3889 43.9351 35.2189 43.9531C35.1389 43.9631 35.0279 44.0111 34.9779 43.9201C34.9429 43.8521 35.0069 43.7741 35.0509 43.7081C35.2919 43.3291 35.6769 43.1981 36.0899 43.1301C36.6119 43.0441 37.1459 43.0711 37.6699 43.0671C38.1019 43.0621 38.5359 43.0601 38.9449 42.9141C39.1999 42.8221 39.5519 42.8061 39.5199 42.3841C39.5179 42.3251 39.5829 42.3211 39.6249 42.3011C39.6879 42.2761 39.7869 42.2491 39.7969 42.2041C39.8889 41.8341 40.1909 41.9161 40.4339 41.9121C41.2369 41.8991 42.0289 42.0621 42.8309 42.0881C43.0029 42.0941 42.9879 42.1991 42.9599 42.3111C42.8709 42.6811 42.3629 42.8721 41.9999 42.6691C41.9219 42.6291 41.8559 42.5741 41.7559 42.5061L41.6889 42.8861C41.6299 43.1861 41.4489 43.2761 41.1789 43.1391C40.8119 42.9511 40.8089 42.9511 40.6269 43.3011C40.5719 43.4051 40.5169 43.5231 40.3859 43.5341C40.2139 43.5491 40.1839 43.3861 40.0939 43.2341C40.0019 43.3551 39.9289 43.4631 39.8419 43.5621C39.6839 43.7391 39.5159 43.8551 39.3129 43.6101C39.1959 43.4701 39.1239 43.5171 39.0229 43.6521C38.7859 43.9801 38.6389 43.9701 38.4549 43.6291C38.3819 43.4891 38.3259 43.4941 38.2679 43.6311C38.2149 43.7491 38.1599 43.8621 38.0459 43.9341C37.9439 43.9991 37.8339 44.0421 37.7149 43.9951C37.5759 43.9341 37.6399 43.8111 37.6429 43.7101C37.6429 43.6471 37.6929 43.5781 37.6059 43.5031C37.4549 43.5991 37.3579 43.7571 37.2279 43.8821C37.1269 43.9751 37.0109 44.0921 36.8699 44.0281C36.7329 43.9711 36.8249 43.8231 36.8199 43.7121C36.8149 43.6471 36.8369 43.5781 36.7719 43.4951C36.6549 43.6231 36.5489 43.7571 36.4299 43.8771C36.3419 43.9681 36.2279 44.0711 36.0979 44.0191C35.9659 43.9621 36.0319 43.8141 36.0299 43.7001C36.0269 43.6601 36.0299 43.6211 36.0299 43.5571Z" fill="#FDC40C"/>
<path fill-rule="evenodd" clip-rule="evenodd" d="M31.0898 25.394C31.5798 25.642 32.0678 25.884 32.4928 26.222C32.7308 26.411 32.7308 26.654 32.5258 26.848C32.3238 27.042 32.0938 27.025 31.9028 26.775C31.5798 26.35 31.3428 25.87 31.0898 25.394Z" fill="#FCC40D"/>
<path fill-rule="evenodd" clip-rule="evenodd" d="M28.991 29.3411C29.496 29.3211 30.001 29.2941 30.501 29.2841C30.689 29.2811 30.877 29.3311 30.952 29.5441C30.9821 29.6221 30.9892 29.7071 30.9723 29.789C30.9555 29.8709 30.9154 29.9463 30.857 30.0061C30.708 30.1641 30.517 30.1291 30.339 30.0581C29.8606 29.8781 29.4076 29.6371 28.991 29.3411Z" fill="#FBC40D"/>
<path fill-rule="evenodd" clip-rule="evenodd" d="M42.0799 25.413C41.8665 25.9067 41.5964 26.3738 41.2749 26.805C41.0949 27.035 40.8659 27.035 40.6699 26.84C40.4759 26.646 40.4759 26.416 40.6989 26.234C41.1159 25.894 41.5989 25.658 42.0799 25.413ZM38.1099 23.286C38.2019 23.823 38.2439 24.353 38.2119 24.887C38.1939 25.169 37.9919 25.319 37.7339 25.27C37.4569 25.22 37.3239 25.01 37.4169 24.726C37.5859 24.218 37.8509 23.759 38.1099 23.286ZM35.0899 23.306C35.3749 23.785 35.6499 24.264 35.8019 24.799C35.8659 25.048 35.7049 25.236 35.4479 25.273C35.1879 25.312 35.0029 25.16 34.9879 24.867C34.9639 24.3445 34.9981 23.821 35.0899 23.306ZM33.6199 23.78C34.0099 24.176 34.3909 24.579 34.6599 25.065C34.7829 25.288 34.6699 25.509 34.4279 25.608C34.1859 25.704 33.9719 25.6 33.8889 25.321C33.7436 24.8186 33.6534 24.3019 33.6199 23.78ZM30.1399 26.585C30.6659 26.727 31.1899 26.87 31.6739 27.123C31.9239 27.257 31.9689 27.489 31.8159 27.716C31.6649 27.938 31.4349 27.982 31.2149 27.791C30.8079 27.438 30.4729 27.021 30.1399 26.585ZM43.1499 26.538C42.7549 27.006 42.4209 27.411 42.0289 27.767C41.7889 27.984 41.5449 27.949 41.3849 27.702C41.2339 27.464 41.2929 27.242 41.5759 27.103C42.0529 26.868 42.5599 26.711 43.1499 26.538ZM36.6019 23.02C36.7719 23.608 36.9379 24.125 37.0049 24.668C37.0409 24.976 36.8859 25.158 36.6089 25.158C36.3279 25.16 36.1679 24.98 36.2049 24.676C36.2709 24.133 36.4409 23.615 36.6019 23.02ZM39.6269 23.7C39.5469 24.21 39.4789 24.723 39.3829 25.226C39.3149 25.59 39.0859 25.711 38.7949 25.582C38.5269 25.464 38.4639 25.244 38.6379 24.951C38.9069 24.503 39.2419 24.097 39.6269 23.7Z" fill="#FCC40D"/>
<path fill-rule="evenodd" clip-rule="evenodd" d="M29.4258 27.9381C29.9712 27.9455 30.5136 28.02 31.0408 28.1601C31.3058 28.2331 31.3888 28.4451 31.2958 28.6911C31.1948 28.9531 30.9848 29.0481 30.7328 28.9131C30.2558 28.6491 29.8448 28.2911 29.4258 27.9381ZM43.7828 27.9351C43.3728 28.2981 42.9478 28.6431 42.4758 28.9131C42.2258 29.0491 42.0138 28.9511 41.9128 28.6881C41.8168 28.4451 41.9008 28.2371 42.1688 28.1601C42.6957 28.0202 43.2377 27.9446 43.7828 27.9351ZM44.2298 29.4121C43.7788 29.6541 43.3208 29.8861 42.8388 30.0711C42.6688 30.1341 42.4848 30.1571 42.3488 30.0031C42.2904 29.9432 42.2503 29.868 42.2331 29.7862C42.2159 29.7043 42.2224 29.6193 42.2518 29.5411C42.3228 29.3411 42.4948 29.2841 42.6738 29.2861C43.1868 29.2941 43.6978 29.3211 44.2118 29.3391C44.2228 29.3641 44.2248 29.3861 44.2298 29.4121ZM44.3898 30.8981C43.8658 31.0801 43.3378 31.2441 42.7868 31.3121C42.5298 31.3451 42.3578 31.1681 42.3508 30.9141C42.3428 30.6541 42.4988 30.4851 42.7658 30.5021C43.3248 30.5371 43.8478 30.7421 44.3898 30.8981Z" fill="#FBC40D"/>
<path fill-rule="evenodd" clip-rule="evenodd" d="M32.2898 37.4129C32.4025 36.8922 32.5694 36.3848 32.7878 35.8989C32.9318 35.5939 33.1558 35.5239 33.4008 35.6789C33.6558 35.8339 33.6758 36.0819 33.4518 36.3439C33.3758 36.4339 33.2898 36.5159 33.2038 36.5939C32.9008 36.8709 32.5968 37.1409 32.2898 37.4129ZM30.0498 35.2799C30.4348 34.8129 30.7808 34.4259 31.1498 34.0659C31.2848 33.9339 31.4428 33.8539 31.6268 33.9289C31.7918 33.9989 31.8898 34.1439 31.8978 34.3179C31.9128 34.5379 31.7628 34.6559 31.5858 34.7309C31.1118 34.9389 30.6188 35.0929 30.0498 35.2799ZM43.0998 35.2099C42.5802 35.1026 42.0739 34.9389 41.5898 34.7219C41.2748 34.5739 41.2108 34.2979 41.4128 34.0559C41.5738 33.8569 41.8048 33.8489 42.0258 34.0489C42.1748 34.1769 42.3058 34.3199 42.4368 34.4669C42.6618 34.7119 42.8788 34.9619 43.0998 35.2099ZM43.8048 33.8849C43.2869 33.8537 42.7719 33.7852 42.2638 33.6799C42.0798 33.6369 41.9238 33.5569 41.8838 33.3589C41.867 33.2766 41.8742 33.1913 41.9047 33.113C41.9353 33.0348 41.9877 32.967 42.0558 32.9179C42.2268 32.7819 42.4098 32.8399 42.5708 32.9459C43.0118 33.2179 43.4078 33.5439 43.8048 33.8849ZM42.0998 36.3999C41.6278 36.1609 41.1658 35.9289 40.7518 35.6159C40.4838 35.4169 40.4588 35.1809 40.6628 34.9709C40.8328 34.7969 41.0708 34.7779 41.2278 34.9589C41.5998 35.3879 41.8398 35.8989 42.0998 36.3999Z" fill="#FCC40D"/>
<path fill-rule="evenodd" clip-rule="evenodd" d="M28.825 30.866C29.284 30.747 29.744 30.624 30.208 30.52C30.596 30.434 30.804 30.546 30.85 30.827C30.895 31.12 30.716 31.348 30.42 31.312C29.872 31.247 29.345 31.08 28.825 30.866Z" fill="#FBC40D"/>
<path fill-rule="evenodd" clip-rule="evenodd" d="M40.9849 37.454C40.5579 37.1099 40.1506 36.742 39.7649 36.352C39.6399 36.221 39.5499 36.064 39.6349 35.877C39.6663 35.7994 39.7192 35.7324 39.7874 35.684C39.8557 35.6356 39.9364 35.6078 40.0199 35.604C40.2299 35.59 40.3429 35.727 40.4189 35.892C40.6419 36.376 40.7989 36.888 40.9849 37.454ZM31.1399 36.37C31.3569 35.893 31.5989 35.448 31.8989 35.045C32.0939 34.785 32.3489 34.766 32.5449 34.967C32.7119 35.139 32.7489 35.346 32.5699 35.51C32.1539 35.89 31.6439 36.123 31.1399 36.37ZM35.1199 38.554C35.0193 38.039 34.976 37.5145 34.9909 36.99C35.0059 36.677 35.1449 36.53 35.4079 36.54C35.7209 36.551 35.8829 36.768 35.7939 37.082C35.755 37.2112 35.7045 37.3368 35.643 37.457C35.471 37.822 35.2909 38.188 35.1199 38.554ZM38.1399 38.627C37.8659 38.089 37.625 37.633 37.441 37.15C37.376 36.977 37.3509 36.802 37.4979 36.661C37.5598 36.5972 37.6397 36.5538 37.7268 36.5364C37.814 36.5191 37.9044 36.5287 37.9859 36.564C38.1749 36.635 38.2189 36.814 38.2219 36.999C38.2329 37.515 38.1929 38.026 38.1399 38.627ZM29.4059 33.887C29.7959 33.547 30.1889 33.226 30.6169 32.955C30.7809 32.851 30.9549 32.783 31.1349 32.905C31.2839 33.007 31.3579 33.165 31.3289 33.339C31.2959 33.564 31.1169 33.642 30.9089 33.689C30.4159 33.796 29.9129 33.842 29.4059 33.887ZM32.2499 24.475C32.2579 24.47 32.2689 24.46 32.2729 24.46C32.7879 24.763 33.2299 25.162 33.5609 25.656C33.6969 25.853 33.5499 26.048 33.3459 26.156C33.1179 26.276 32.9429 26.194 32.8269 25.989C32.6409 25.656 32.5399 25.288 32.4089 24.931C32.3539 24.778 32.3049 24.627 32.2499 24.475ZM40.9 24.467C40.773 25 40.6239 25.524 40.3689 26.003C40.2439 26.239 40.0149 26.27 39.7969 26.12C39.5769 25.967 39.5309 25.735 39.7159 25.515C40.0569 25.116 40.471 24.79 40.9 24.467ZM33.6269 37.897C33.6659 37.448 33.7289 37.003 33.8269 36.569C33.9029 36.229 34.1199 36.104 34.4 36.215C34.675 36.319 34.752 36.572 34.566 36.863C34.291 37.2992 33.9813 37.7125 33.6399 38.099C33.5959 38.034 33.6049 37.966 33.6269 37.897ZM44.3099 32.431C43.7581 32.5067 43.2006 32.5338 42.6439 32.512C42.3329 32.495 42.1869 32.304 42.2459 32.033C42.3009 31.75 42.4959 31.629 42.7859 31.724C43.2999 31.891 43.771 32.153 44.3099 32.431ZM28.8979 32.436C29.4299 32.154 29.8919 31.915 30.3779 31.735C30.5589 31.668 30.7299 31.656 30.8599 31.813C30.9174 31.8732 30.9561 31.9489 30.9713 32.0307C30.9866 32.1125 30.9778 32.197 30.9459 32.274C30.8699 32.472 30.7049 32.514 30.5189 32.517C29.9774 32.525 29.436 32.4979 28.8979 32.436ZM39.5689 38.1C39.2339 37.721 38.9389 37.31 38.6579 36.888C38.5529 36.732 38.4819 36.553 38.6049 36.373C38.6544 36.2993 38.725 36.2423 38.8075 36.2094C38.8899 36.1766 38.9804 36.1695 39.0669 36.189C39.287 36.234 39.3549 36.413 39.3869 36.597C39.4599 37.029 39.5189 37.463 39.5809 37.897C39.6049 37.966 39.6149 38.034 39.5689 38.1ZM36.6059 38.782C36.4369 38.2 36.2909 37.704 36.2099 37.19C36.1799 37.014 36.1819 36.832 36.3589 36.721C36.4294 36.6758 36.5108 36.651 36.5944 36.649C36.678 36.6471 36.7605 36.6682 36.8329 36.71C37.0289 36.818 37.0269 37.012 36.9979 37.2C36.9179 37.714 36.7649 38.21 36.6059 38.782Z" fill="#FCC40D"/>
<path fill-rule="evenodd" clip-rule="evenodd" d="M35.9648 42.731C36.1248 42.682 36.2978 42.751 36.4548 42.672C36.7948 42.682 37.1438 42.627 37.4788 42.745C36.9748 42.7874 36.468 42.7827 35.9648 42.731Z" fill="#E1C221"/>
<path fill-rule="evenodd" clip-rule="evenodd" d="M46.4099 36.7219C47.0949 36.1609 47.7299 35.5559 48.2269 34.8169C48.2859 34.7279 48.3729 34.6369 48.2519 34.5389C48.1519 34.4499 48.0319 34.4629 47.9239 34.5289C47.8669 34.5639 47.8279 34.6219 47.7779 34.6729C47.4849 34.9589 47.1979 35.2539 46.8949 35.5299C46.7329 35.6799 46.5609 35.8259 46.2729 35.9399C46.3769 35.8229 46.4189 35.7699 46.4679 35.7219C47.0552 35.0786 47.5613 34.3656 47.9749 33.5989C48.0609 33.4459 48.1709 33.2619 47.9729 33.1299C47.7779 33.0009 47.5979 33.1059 47.4589 33.2669C47.4219 33.3119 47.3909 33.3649 47.3549 33.4109C47.0549 33.8049 46.8119 34.2489 46.4769 34.6189C46.4139 34.6899 46.3689 34.8069 46.2299 34.7939C46.3689 34.5059 46.5069 34.2319 46.6329 33.9539C46.8989 33.3499 47.1039 32.7289 47.0829 32.0599C47.0739 31.8809 47.0549 31.6809 46.8169 31.6689C46.5999 31.6609 46.6029 31.8509 46.5559 31.9969C46.3459 32.6789 46.2589 33.3949 45.9099 34.0299C45.8419 34.0529 45.8239 34.0259 45.8439 33.9649C45.8879 33.5189 46.0279 33.0819 45.9259 32.6249C45.8979 32.4949 45.8599 32.3909 45.7129 32.3969C45.5819 32.4049 45.5249 32.4909 45.4939 32.6259C44.6869 36.2969 41.7619 39.0779 38.0649 39.5829C37.2439 39.6959 36.6369 39.9699 36.1519 40.6229C35.8119 41.0759 35.3489 41.3879 34.7989 41.5639C34.5419 41.6499 34.2739 41.7169 34.0419 41.8719C33.8809 41.9769 33.7389 42.0919 33.7469 42.3089C33.5289 42.4049 33.3619 42.5379 33.3509 42.7989C33.3479 42.8599 33.3549 42.9779 33.4289 42.9469C33.5749 42.8839 33.7309 42.9189 33.8469 42.8929C34.5519 42.7559 35.2589 42.7769 35.9619 42.7319C36.1289 42.7319 36.3049 42.8279 36.4519 42.6729C36.1409 42.6229 35.8339 42.5389 35.5139 42.6049C35.4429 42.6209 35.3389 42.6209 35.3039 42.5429C35.2689 42.4699 35.3589 42.4319 35.3889 42.3729C35.4269 42.3049 35.5969 42.2359 35.3819 42.1629C35.3339 42.1459 35.4089 42.0929 35.4409 42.0589C35.4879 42.0089 35.5819 41.9959 35.5869 41.8769C35.3039 41.9289 35.0299 41.9789 34.7539 42.0249C34.7119 42.0459 34.6399 42.0559 34.6319 42.0889C34.5839 42.2149 34.5869 42.3909 34.4249 42.4039C34.2384 42.4226 34.0503 42.3901 33.8809 42.3099C34.0159 42.3379 34.1079 42.2219 34.2239 42.1889C34.3199 42.2139 34.3539 42.1299 34.4079 42.0809C34.5209 42.0379 34.6229 41.9519 34.7549 41.9589C35.4229 41.5909 36.0689 41.1919 36.6299 40.6649C36.8239 40.4779 37.0709 40.3879 37.3309 40.3189C38.0599 40.1249 38.8149 40.0849 39.5569 39.9599C39.8319 39.9129 40.0709 39.8349 40.2569 39.5949C40.4809 39.3069 40.7809 39.0949 41.1059 38.9249C41.6909 38.6179 42.2859 38.3209 42.8809 38.0259C43.0163 37.9697 43.1278 37.8678 43.1959 37.7379C43.5239 37.0659 44.0339 36.5659 44.6459 36.1579C44.8949 35.9949 45.1659 35.8929 45.4679 35.8799C45.6699 35.8729 45.7479 35.9289 45.6819 36.1489C45.6019 36.4269 45.4219 36.6439 45.2439 36.9069C45.3549 36.8789 45.4279 36.8579 45.5039 36.8409C45.6119 36.8159 45.7539 36.7119 45.8269 36.8219C45.9069 36.9439 45.7989 37.0829 45.7129 37.1879C45.5929 37.3339 45.4589 37.4679 45.3319 37.6049C45.4179 37.7039 45.5899 37.6219 45.6679 37.7679C45.3339 38.0239 44.9339 38.1749 44.6209 38.4539C44.6479 38.5339 44.7709 38.5019 44.7789 38.6199C44.6329 38.6879 44.4889 38.7759 44.3359 38.8269C44.1179 38.8969 44.1419 39.0679 44.1209 39.2349C44.1179 39.2659 44.0479 39.2939 44.0029 39.3129C43.9039 39.3559 43.7999 39.3859 43.7009 39.4289C43.6229 39.4629 43.5139 39.5039 43.6079 39.6149C43.7569 39.7829 43.6019 39.8109 43.5039 39.8479C43.3939 39.8889 43.2689 39.9049 43.1499 39.9289C43.1829 40.1039 43.2629 40.2629 43.0769 40.3929C42.5419 40.7629 41.9869 41.0819 41.3389 41.2049C41.3559 41.3439 41.4469 41.2679 41.5129 41.2629C42.4289 41.2809 43.2339 40.9519 43.9859 40.4719C44.0269 40.4489 44.0829 40.4299 44.0829 40.3709C44.0829 40.2999 44.0179 40.3079 43.9769 40.2879C43.8429 40.2199 43.6759 40.2119 43.5579 40.0679C43.9869 39.7859 44.5119 39.9119 44.9659 39.7119C44.7459 39.5369 44.4769 39.6829 44.2719 39.5169C44.7199 39.3659 45.2039 39.3799 45.6309 39.0889C45.3599 38.9479 45.0899 39.0889 44.8559 38.9429C45.0199 38.8509 45.1809 38.8189 45.3429 38.7779C45.6219 38.6999 45.9069 38.6219 46.1599 38.4679C46.2189 38.4349 46.2969 38.3999 46.2779 38.3189C46.2599 38.2249 46.1729 38.2559 46.1069 38.2539C46.0009 38.2539 45.8919 38.2639 45.7869 38.2639C45.7309 38.2619 45.6579 38.2849 45.6349 38.2119C45.6129 38.1359 45.6879 38.1169 45.7349 38.0909C46.0159 37.9129 46.2979 37.7389 46.5769 37.5579C46.8349 37.3959 47.0799 37.2139 47.2619 36.9659C47.3569 36.8389 47.5149 36.6709 47.3899 36.5299C47.2859 36.4109 47.1279 36.5789 47.0069 36.6379C46.8919 36.6939 46.7899 36.7769 46.6789 36.8319C46.5399 36.8989 46.3959 36.9679 46.2379 36.9059C46.2339 36.8889 46.2299 36.8749 46.2339 36.8699C46.2939 36.8219 46.3519 36.7719 46.4099 36.7219Z" fill="#FBC40E"/>
<path fill-rule="evenodd" clip-rule="evenodd" d="M41.3399 41.2C41.3989 41.22 41.4549 41.2409 41.5139 41.2579C41.4438 41.2929 41.3635 41.3011 41.2879 41.2809C41.2569 41.2729 41.1999 41.266 41.2329 41.216C41.2459 41.196 41.3019 41.203 41.3399 41.2Z" fill="#FDC40C"/>
<path fill-rule="evenodd" clip-rule="evenodd" d="M34.4098 42.0801C34.3898 42.1511 34.4478 42.2461 34.3648 42.2901C34.2808 42.3301 34.2518 42.2531 34.2258 42.1931C34.2461 42.1617 34.2732 42.1352 34.305 42.1157C34.3368 42.0961 34.3727 42.084 34.4098 42.0801Z" fill="#FBC40E"/>
<path fill-rule="evenodd" clip-rule="evenodd" d="M11.5231 41.88C11.6201 41.678 11.7161 41.474 11.7651 41.251C11.9291 40.527 11.6231 40.014 10.9381 39.858C10.7751 39.803 10.6051 39.846 10.4371 39.834C10.0041 39.779 9.67907 39.972 9.42207 40.319C9.16507 39.971 8.87207 39.756 8.44207 39.834C8.28907 39.816 8.12907 39.871 7.97707 39.802L7.90207 39.809C7.87707 39.893 7.78907 39.887 7.72807 39.913C7.27107 40.111 7.05507 40.457 7.08007 40.952C7.09407 41.265 7.19907 41.551 7.33507 41.829C7.88307 42.961 8.42407 44.098 8.97407 45.229C9.06707 45.419 9.11607 45.613 9.10807 45.821C9.09607 46.131 8.87207 46.367 8.55007 46.42C8.28307 46.463 7.96107 46.267 7.87907 45.993C7.81407 45.777 7.83607 45.562 7.98307 45.383C8.09007 45.248 8.24007 45.236 8.40207 45.268C8.54707 45.296 8.61607 45.385 8.61807 45.523C8.62007 45.604 8.60807 45.695 8.49907 45.71C8.33707 45.73 8.33107 45.597 8.29307 45.493C8.28907 45.481 8.26107 45.479 8.24207 45.471C8.16507 45.511 8.18507 45.624 8.14907 45.649C7.83707 45.855 8.22807 45.987 8.19907 46.163C8.19707 46.185 8.28507 46.22 8.29707 46.176C8.33507 46.02 8.46107 46.092 8.54707 46.069C8.76807 46.005 8.89807 45.873 8.90707 45.632C8.92607 45.219 8.71107 44.99 8.20807 44.903C8.33707 44.715 8.09107 44.518 8.22207 44.327C8.23307 44.314 8.20607 44.27 8.16307 44.288C7.87707 44.395 7.98707 44.183 7.98907 44.065C7.99607 43.668 7.71507 43.348 7.34307 43.348C7.53307 43.633 7.62807 43.936 7.60207 44.278C7.57581 44.5946 7.51956 44.908 7.43407 45.214C7.30307 45.703 7.26607 46.183 7.71107 46.554C7.32407 46.822 7.32607 46.852 7.72507 47.09C7.33707 47.492 7.24807 47.774 7.39807 48.341C7.57807 49.021 7.75707 49.692 7.27707 50.361C7.79607 50.259 8.03107 49.975 8.01207 49.526C8.01007 49.458 7.94207 49.332 8.09107 49.377C8.27507 49.432 8.22707 49.33 8.20607 49.241C8.19307 49.185 8.17007 49.129 8.15107 49.072C8.48807 49.011 8.20207 48.861 8.18907 48.734C8.31621 48.7457 8.44416 48.7229 8.55943 48.668C8.6747 48.6131 8.77303 48.5281 8.84407 48.422C8.88807 48.286 8.93107 48.148 8.90307 48.001C8.85607 47.767 8.74107 47.607 8.47207 47.615C8.40907 47.619 8.32107 47.674 8.29607 47.563C8.25307 47.358 8.16207 47.477 8.16707 47.558C8.17507 47.734 8.00307 47.718 7.92807 47.837C8.08107 47.912 8.19107 48.029 8.18707 48.221C8.19107 48.225 8.19707 48.227 8.20407 48.229C8.25207 48.208 8.27207 48.204 8.27407 48.195C8.29807 48.076 8.29307 47.932 8.47407 47.951C8.55307 47.959 8.60307 48.014 8.60307 48.098C8.60807 48.253 8.52307 48.346 8.37307 48.377C8.14507 48.423 7.96907 48.34 7.87007 48.128C7.74907 47.869 7.82407 47.558 8.03407 47.408C8.27207 47.238 8.69707 47.224 8.90307 47.39C9.15407 47.591 9.12507 47.853 9.04107 48.119C9.00607 48.223 8.99007 48.337 8.90907 48.422C8.76507 48.782 8.62007 49.142 8.48007 49.503C8.39107 49.733 8.36307 49.968 8.58007 50.152C8.78807 50.33 9.02807 50.34 9.26807 50.223C9.38907 50.163 9.48207 50.154 9.60707 50.218C9.85407 50.346 10.1061 50.331 10.3171 50.135C10.5231 49.944 10.4781 49.709 10.3891 49.481C10.2601 49.147 10.1261 48.818 9.99407 48.487C9.88807 48.331 9.84607 48.153 9.80107 47.975C9.73707 47.707 9.79907 47.484 10.0471 47.344C10.3001 47.202 10.7551 47.274 10.9331 47.482C11.1151 47.694 11.1011 47.936 10.9861 48.17C10.8931 48.358 10.7171 48.413 10.5161 48.377C10.3701 48.353 10.2781 48.262 10.2701 48.109C10.2661 48.012 10.3311 47.952 10.4211 47.946C10.6041 47.933 10.5651 48.105 10.6231 48.22C10.7951 48.137 10.7041 47.846 10.9591 47.855C10.9201 47.804 10.9021 47.759 10.8841 47.759C10.6781 47.757 10.6951 47.383 10.6271 47.47C10.5231 47.612 10.4381 47.604 10.3091 47.618C10.0921 47.641 9.93007 47.904 9.97107 48.159C9.98907 48.268 10.0371 48.372 10.0721 48.478C10.157 48.5689 10.2617 48.6389 10.378 48.6828C10.4944 48.7267 10.6193 48.7432 10.7431 48.731C10.4321 48.95 10.8241 49.164 10.6731 49.364C10.6891 49.37 10.7091 49.387 10.7241 49.384C10.9951 49.298 10.8611 49.512 10.8661 49.591C10.8821 50.007 11.1291 50.282 11.5941 50.339C11.1571 49.706 11.2861 49.063 11.4731 48.408C11.6101 47.919 11.6161 47.437 11.1431 47.086C11.5531 46.859 11.5531 46.859 11.1921 46.536C11.5661 46.124 11.6181 45.865 11.4551 45.232C11.2891 44.589 11.1341 43.948 11.5581 43.301C11.4437 43.3153 11.3341 43.355 11.2372 43.4174C11.1402 43.4797 11.0585 43.5629 10.9981 43.661C10.8601 43.859 10.8711 44.081 10.9281 44.293C10.8231 44.355 10.7381 44.236 10.6161 44.332C10.8731 44.496 10.4601 44.706 10.7071 44.896C10.4401 44.932 10.2141 44.984 10.0761 45.209C9.83407 45.605 10.0301 45.881 10.4421 46.095C10.8351 46.297 10.7011 45.848 10.8841 45.85C10.8011 45.719 10.7191 45.585 10.6231 45.432C10.5431 45.553 10.5661 45.745 10.3751 45.704C10.2751 45.683 10.2561 45.6 10.2601 45.513C10.2721 45.334 10.3891 45.272 10.5491 45.254C10.7171 45.235 10.8541 45.286 10.9391 45.438C11.0771 45.68 11.0901 45.931 10.9151 46.158C10.7541 46.364 10.5441 46.477 10.2691 46.4C9.98407 46.322 9.80407 46.145 9.77207 45.844C9.75007 45.623 9.81607 45.422 9.91407 45.224C10.4471 44.111 10.9851 42.996 11.5231 41.88ZM10.1411 46.84C9.90007 46.944 9.67407 47.01 9.52207 47.196C9.46107 47.268 9.41507 47.26 9.35607 47.187C9.20107 47.003 8.97407 46.937 8.71907 46.835C8.99407 46.755 9.21107 46.646 9.36607 46.445C9.41407 46.382 9.45907 46.37 9.50807 46.436C9.65707 46.646 9.88607 46.739 10.1411 46.84ZM9.52307 45.021C9.50307 45.065 9.47207 45.105 9.42807 45.176L7.75407 41.63C7.65307 41.418 7.55607 41.204 7.54807 40.961C7.53971 40.8374 7.5697 40.7142 7.63395 40.6082C7.6982 40.5023 7.79358 40.4187 7.90707 40.369C8.02051 40.3057 8.15041 40.2782 8.27977 40.2899C8.40913 40.3017 8.53192 40.3523 8.63207 40.435C8.69105 40.4769 8.73903 40.5324 8.77194 40.5968C8.80485 40.6612 8.8217 40.7327 8.82107 40.805C8.82107 40.936 8.76007 41.051 8.61507 41.07C8.47007 41.089 8.35007 41.034 8.30907 40.876C8.29307 40.812 8.29507 40.743 8.28907 40.658C8.02307 40.764 8.05907 41.135 7.77107 41.194C7.75907 41.196 7.75607 41.242 7.75007 41.268C8.06007 41.327 7.99507 41.731 8.29007 41.848C8.26607 41.164 8.91207 41.604 9.15907 41.317C9.15907 41.573 9.15507 41.831 9.16107 42.085C9.16907 42.523 9.09107 42.599 8.64007 42.564C8.60107 42.559 8.56107 42.551 8.51907 42.545C8.58707 42.891 8.64807 42.94 9.17707 43.072C8.91207 43.406 9.06607 43.697 9.26907 43.982C9.37507 44.135 9.47507 44.15 9.60407 43.994C9.85107 43.697 9.89307 43.408 9.70907 43.053C10.0041 43.018 10.2781 42.948 10.3641 42.61C10.3451 42.596 10.3311 42.578 10.3151 42.578C9.69207 42.546 9.69407 42.546 9.70907 41.923C9.71507 41.73 9.71107 41.535 9.74707 41.316C9.97607 41.59 10.5801 41.18 10.5781 41.827C10.7391 41.813 10.8021 41.704 10.8391 41.568C10.8531 41.52 10.8531 41.439 10.8811 41.431C11.2901 41.281 11.1021 41.184 10.8751 41.031C10.7621 40.952 10.7941 40.712 10.5761 40.669C10.5721 40.744 10.5721 40.811 10.5611 40.877C10.5381 41.033 10.4201 41.075 10.2901 41.073C10.1481 41.071 10.0741 40.978 10.0611 40.835C10.0391 40.599 10.2461 40.359 10.5221 40.303C10.6224 40.2811 10.7264 40.2829 10.8259 40.3082C10.9253 40.3336 11.0175 40.3819 11.095 40.4492C11.1725 40.5165 11.2332 40.601 11.2723 40.6959C11.3114 40.7909 11.3277 40.8936 11.3201 40.996C11.3133 41.1499 11.2766 41.3011 11.2121 41.441C10.6511 42.636 10.0881 43.828 9.52307 45.021Z" fill="#FDC40C"/>
</svg>
