<svg width="64" height="64" viewBox="0 0 64 64" fill="none" xmlns="http://www.w3.org/2000/svg">
<path d="M64 43C64 49.075 60.627 54 54 54H10C3.373 54 0 49.075 0 43V21C0 14.925 3.373 10 10 10H54C60.627 10 64 14.925 64 21V43Z" fill="#E6E7E8"/>
<path d="M27 10H36V54H27V10Z" fill="#EC1C24"/>
<path d="M0 28H64V37H0V28Z" fill="#EC1C24"/>
<path fill-rule="evenodd" clip-rule="evenodd" d="M50.3299 23.93C50.0274 23.9104 49.725 23.8884 49.4229 23.864C48.707 23.8113 47.9876 23.8317 47.2759 23.925C47.0929 23.946 47.0339 23.936 47.0749 23.715C47.2619 22.731 47.3679 21.737 47.4409 20.739C47.4569 20.519 47.3979 20.469 47.1789 20.486C46.1919 20.567 45.2069 20.664 44.2329 20.851C44.0069 20.892 43.9879 20.843 44.0129 20.636C44.1189 19.701 44.1209 18.767 44.0079 17.836C43.9819 17.618 44.0399 17.604 44.2249 17.638C45.1999 17.816 46.1809 17.926 47.1719 17.996C47.4139 18.013 47.4529 17.934 47.4369 17.72C47.3712 16.7404 47.2526 15.7649 47.0819 14.798C47.0479 14.614 47.0519 14.549 47.2679 14.571C48.2199 14.675 49.1729 14.673 50.1219 14.571C50.2919 14.554 50.3269 14.584 50.2959 14.764C50.118 15.7484 49.9955 16.7419 49.9289 17.74C49.9139 17.96 49.9759 18.008 50.1889 17.991C51.1313 17.9308 52.0702 17.8234 53.0019 17.669C53.1029 17.651 53.3809 17.455 53.3559 17.744C53.2709 18.744 53.2499 19.743 53.3709 20.741C53.3919 20.912 53.2939 20.875 53.1989 20.858C52.2349 20.673 51.2589 20.571 50.2779 20.498C49.9239 20.469 49.9179 20.469 49.9399 20.816C50.0059 21.852 50.1319 22.883 50.3299 23.93ZM50.3299 50.35C50.0274 50.3304 49.725 50.3084 49.4229 50.284C48.707 50.2313 47.9876 50.2517 47.2759 50.345C47.0929 50.366 47.0339 50.356 47.0749 50.135C47.2619 49.151 47.3679 48.157 47.4409 47.159C47.4569 46.939 47.3979 46.889 47.1789 46.906C46.1919 46.987 45.2069 47.084 44.2329 47.271C44.0069 47.312 43.9879 47.263 44.0129 47.056C44.1189 46.121 44.1209 45.187 44.0079 44.256C43.9819 44.038 44.0399 44.024 44.2249 44.058C45.1999 44.236 46.1809 44.346 47.1719 44.416C47.4139 44.433 47.4529 44.354 47.4369 44.14C47.3712 43.1604 47.2526 42.1849 47.0819 41.218C47.0479 41.034 47.0519 40.969 47.2679 40.991C48.2199 41.095 49.1729 41.093 50.1219 40.991C50.2919 40.974 50.3269 41.004 50.2959 41.184C50.118 42.1684 49.9955 43.1619 49.9289 44.16C49.9139 44.38 49.9759 44.428 50.1889 44.411C51.1313 44.3508 52.0702 44.2434 53.0019 44.089C53.1029 44.071 53.3809 43.875 53.3559 44.164C53.2709 45.164 53.2499 46.163 53.3709 47.161C53.3919 47.332 53.2939 47.295 53.1989 47.278C52.2349 47.093 51.2589 46.991 50.2779 46.918C49.9239 46.889 49.9179 46.889 49.9399 47.236C50.0059 48.272 50.1319 49.303 50.3299 50.35ZM15.5049 23.93C15.2024 23.9104 14.9 23.8884 14.5979 23.864C13.882 23.8113 13.1626 23.8317 12.4509 23.925C12.2679 23.946 12.2089 23.936 12.2499 23.715C12.4369 22.731 12.5429 21.737 12.6159 20.739C12.6319 20.519 12.5729 20.469 12.3539 20.486C11.3669 20.567 10.3819 20.664 9.40789 20.851C9.18189 20.892 9.16289 20.843 9.18789 20.636C9.29389 19.701 9.29589 18.767 9.18289 17.836C9.15689 17.618 9.21489 17.604 9.39989 17.638C10.3749 17.816 11.3559 17.926 12.3469 17.996C12.5889 18.013 12.6279 17.934 12.6119 17.72C12.5462 16.7404 12.4276 15.7649 12.2569 14.798C12.2229 14.614 12.2269 14.549 12.4429 14.571C13.3949 14.675 14.3479 14.673 15.2969 14.571C15.4669 14.554 15.5019 14.584 15.4709 14.764C15.293 15.7484 15.1705 16.7419 15.1039 17.74C15.0889 17.96 15.1509 18.008 15.3639 17.991C16.3064 17.9308 17.2452 17.8234 18.1769 17.669C18.2779 17.651 18.5559 17.455 18.5309 17.744C18.4459 18.744 18.4249 19.743 18.5459 20.741C18.5669 20.912 18.4689 20.875 18.3739 20.858C17.4099 20.673 16.4339 20.571 15.4529 20.498C15.0989 20.469 15.0929 20.469 15.1149 20.816C15.1809 21.852 15.3069 22.883 15.5049 23.93ZM15.5049 50.26C15.2024 50.2404 14.9 50.2184 14.5979 50.194C13.882 50.1413 13.1626 50.1617 12.4509 50.255C12.2679 50.276 12.2089 50.266 12.2499 50.045C12.4369 49.061 12.5429 48.067 12.6159 47.069C12.6319 46.849 12.5729 46.799 12.3539 46.816C11.3669 46.897 10.3819 46.994 9.40789 47.181C9.18189 47.222 9.16289 47.173 9.18789 46.966C9.29389 46.031 9.29589 45.097 9.18289 44.166C9.15689 43.948 9.21489 43.934 9.39989 43.968C10.3749 44.146 11.3559 44.256 12.3469 44.326C12.5889 44.343 12.6279 44.264 12.6119 44.05C12.5462 43.0704 12.4276 42.0949 12.2569 41.128C12.2229 40.944 12.2269 40.879 12.4429 40.901C13.3949 41.005 14.3479 41.003 15.2969 40.901C15.4669 40.884 15.5019 40.914 15.4709 41.094C15.293 42.0784 15.1705 43.0719 15.1039 44.07C15.0889 44.29 15.1509 44.338 15.3639 44.321C16.3064 44.2608 17.2452 44.1534 18.1769 43.999C18.2779 43.981 18.5559 43.785 18.5309 44.074C18.4459 45.074 18.4249 46.073 18.5459 47.071C18.5669 47.242 18.4689 47.205 18.3739 47.188C17.4099 47.003 16.4339 46.901 15.4529 46.828C15.0989 46.799 15.0929 46.799 15.1149 47.146C15.1809 48.182 15.3069 49.213 15.5049 50.26Z" fill="#E7112D"/>
</svg>
