<svg width="72" height="60" viewBox="0 0 72 60" fill="none" xmlns="http://www.w3.org/2000/svg">
<path fill-rule="evenodd" clip-rule="evenodd" d="M56.0862 36.7069L53.0857 37.438L53.1328 37.1635L54.0803 36.9394L54.2798 35.7882L53.4625 35.2476L53.5096 34.9731L56.0862 36.7069ZM54.3158 36.8834L55.5099 36.6033L54.4821 35.9199L54.3158 36.8834ZM55.3714 39.4463L55.2966 39.7068L52.8641 38.9982L52.6203 39.8665L52.4097 39.8048L52.7283 38.676L55.3714 39.4463ZM54.1385 42.2921L54.4017 41.5947L54.6067 41.6759L53.9834 43.3229L53.7784 43.2417L54.0415 42.5442L51.6783 41.6227L51.7753 41.3678L54.1385 42.2921ZM52.8142 45.7037L49.7473 45.348L49.8858 45.1071L50.8527 45.2276L51.429 44.2136L50.8444 43.4237L50.9829 43.1828L52.8142 45.7037ZM51.0882 45.2556L52.3044 45.4068L51.5703 44.4097L51.0882 45.2556ZM51.2572 48.0257L51.1048 48.247L48.8524 46.6421L49.0048 46.4208L51.2572 48.0257ZM47.409 52.4625L46.8549 52.9527C46.8244 52.9807 46.78 53.0115 46.7274 53.0479C46.6748 53.0843 46.6138 53.1151 46.5446 53.1404C46.4365 53.1824 46.3174 53.1936 46.1816 53.1712C46.0459 53.1516 45.9101 53.0619 45.7744 52.9023C45.6552 52.765 45.597 52.597 45.5943 52.4037C45.5915 52.2104 45.7079 51.9947 45.9434 51.7595L44.3752 51.4345L44.6135 51.2245L46.1567 51.5662L46.2343 51.499L45.4031 50.5298L45.6054 50.3506L47.409 52.4625ZM46.1678 51.8519C45.9627 52.034 45.8575 52.1964 45.8492 52.3393C45.8436 52.4821 45.8879 52.6082 45.9821 52.7202C46.129 52.8939 46.273 52.9611 46.4116 52.9219C46.5501 52.8827 46.6803 52.807 46.805 52.6978L47.0599 52.4737L46.3728 51.6726L46.1678 51.8519ZM44.9515 54.5072L43.7436 55.3671L43.6161 55.1851L44.6052 54.482L44.101 53.7482L43.1479 54.426L43.0205 54.2439L43.9735 53.5661L43.2781 52.5577L42.2891 53.2608L42.1616 53.0787L43.3695 52.2188L44.9515 54.5072ZM39.1334 56.2495C39.103 56.1822 39.0753 56.1066 39.0476 56.0254C39.0226 55.9441 39.0032 55.8573 38.9894 55.7677C38.9506 55.5268 38.9783 55.2775 39.0697 55.0198C39.1611 54.7621 39.3828 54.5492 39.7374 54.3812C40.1142 54.2019 40.4799 54.1739 40.8345 54.2916C41.1892 54.412 41.4607 54.6753 41.6491 55.087C41.843 55.5072 41.8735 55.8937 41.746 56.2466C41.6186 56.5996 41.3776 56.8601 41.0285 57.0253C40.7874 57.1402 40.5519 57.1878 40.3164 57.1766C40.081 57.1626 39.8621 57.0925 39.6598 56.9665L39.7817 56.7424C39.8039 56.7536 39.8288 56.7676 39.851 56.7816C39.8759 56.7956 39.9009 56.8096 39.9286 56.8209C40.056 56.8825 40.2056 56.9217 40.3774 56.9385C40.5492 56.9553 40.7376 56.9189 40.937 56.8237C41.2418 56.6808 41.4274 56.4539 41.4995 56.143C41.5687 55.8349 41.5327 55.524 41.3914 55.2131C41.2446 54.891 41.0285 54.6669 40.7459 54.5408C40.4633 54.4148 40.1585 54.426 39.8372 54.5801C39.5462 54.7173 39.3551 54.919 39.2692 55.1823C39.1833 55.4456 39.1916 55.6949 39.2969 55.9273L40.1945 55.5016L40.2887 55.7033L39.1334 56.2495ZM38.1555 58.1961L37.9033 58.2858L37.0085 55.6416L37.2606 55.552L38.1555 58.1961ZM35.9612 57.5043C36.0554 57.8908 36.0083 58.2606 35.8199 58.6107C35.6315 58.9608 35.3157 59.1905 34.8724 59.3025C34.4873 59.4006 34.1216 59.3557 33.7697 59.1737C33.4179 58.9888 33.1879 58.6779 33.0799 58.2354C32.9718 57.7928 33.03 57.4091 33.2572 57.0785C33.4844 56.7508 33.7891 56.5379 34.1715 56.4399C34.5593 56.3419 34.9306 56.3839 35.2797 56.5688C35.626 56.7508 35.8559 57.0645 35.9612 57.5043ZM35.6869 57.5715C35.5983 57.2046 35.4099 56.9385 35.1245 56.776C34.8392 56.6136 34.5372 56.5716 34.2241 56.65C33.9083 56.7312 33.6617 56.9105 33.4871 57.1906C33.3098 57.4707 33.2655 57.7956 33.3569 58.1625C33.4484 58.5323 33.6368 58.7983 33.9221 58.9608C34.2075 59.1233 34.5067 59.1653 34.8225 59.084C35.1384 59.0056 35.3849 58.8236 35.5595 58.5435C35.734 58.2634 35.7784 57.9384 35.6869 57.5715ZM31.4231 59.9832L29.2566 57.7228L29.3342 59.9468L29.0682 59.9552L28.9684 57.0505L31.135 59.3109L31.0574 57.0869L31.3234 57.0785L31.4231 59.9832ZM26.2062 60L25.2781 57.0085L25.5524 57.0365L25.8378 57.9833L26.982 58.1065L27.4557 57.241L27.73 57.269L26.2062 60ZM25.907 58.2185L26.2672 59.409L26.8656 58.3194L25.907 58.2185ZM23.4995 59.5546L23.2363 59.5042L23.7183 56.9805L22.8456 56.8096L22.8872 56.5912L24.0203 56.8152L23.4995 59.5546ZM16.4596 57.4427L16.5399 54.3084L16.7893 54.426L16.756 55.4148L17.8005 55.9105L18.5236 55.2495L18.773 55.3671L16.4596 57.4427ZM16.7505 55.6584L16.7089 56.9021L17.6232 56.0702L16.7505 55.6584ZM13.2015 54.9778C13.2015 54.9834 13.1987 54.9918 13.1987 55.0002C13.1959 55.0086 13.1959 55.017 13.1987 55.0226C13.1904 55.1038 13.2015 55.1907 13.2347 55.2831C13.2652 55.3755 13.3372 55.4568 13.4425 55.5268C13.5589 55.6024 13.6614 55.6388 13.7528 55.6276C13.8415 55.6192 13.9163 55.594 13.9744 55.552C13.9994 55.538 14.0215 55.5184 14.0382 55.4988C14.0548 55.4792 14.0714 55.4596 14.0825 55.4372C14.1573 55.3195 14.1739 55.1963 14.1296 55.073C14.0853 54.9498 14.0271 54.8265 13.9523 54.7089C13.9412 54.6893 13.9273 54.6697 13.9163 54.6501C13.9024 54.6305 13.8913 54.6109 13.8802 54.5913C13.8747 54.5857 13.8719 54.5773 13.8664 54.5717C13.8636 54.5661 13.8581 54.5576 13.8525 54.552C13.7556 54.3896 13.6808 54.2215 13.6226 54.0479C13.5672 53.8742 13.6032 53.6865 13.7334 53.4821C13.8553 53.2888 14.0299 53.1656 14.2515 53.1123C14.4759 53.0591 14.7003 53.1067 14.9303 53.258C15.0937 53.3672 15.2073 53.4905 15.2655 53.6249C15.3237 53.7622 15.3569 53.891 15.3625 54.0115C15.3625 54.0591 15.3625 54.1067 15.3597 54.1487C15.3569 54.1935 15.3514 54.2327 15.3431 54.2691L15.0633 54.2383C15.066 54.2271 15.0688 54.2159 15.0716 54.2047C15.0743 54.1907 15.0743 54.1795 15.0771 54.1683C15.0993 54.0451 15.0937 53.9134 15.0577 53.7762C15.0217 53.6389 14.933 53.5241 14.7945 53.4317C14.6449 53.3336 14.4953 53.3056 14.3429 53.3504C14.1905 53.3952 14.0714 53.4877 13.98 53.6277C13.9107 53.7342 13.8803 53.8378 13.8913 53.933C13.8996 54.0283 13.9357 54.1375 13.9938 54.2607C14.0132 54.3 14.0354 54.3392 14.0603 54.384C14.0853 54.4288 14.113 54.4736 14.1434 54.524C14.2515 54.7005 14.3346 54.877 14.3928 55.0562C14.4537 55.2355 14.426 55.4148 14.3152 55.5912C14.2958 55.622 14.2709 55.6528 14.2432 55.6864C14.2155 55.7173 14.1822 55.7481 14.1462 55.7761C14.0576 55.8405 13.944 55.8797 13.8082 55.8909C13.6725 55.9021 13.5118 55.8489 13.3289 55.7285C13.2929 55.7033 13.2486 55.6724 13.2042 55.6332C13.1571 55.594 13.1156 55.5492 13.0796 55.496C13.0325 55.4344 12.9965 55.3587 12.9688 55.2719C12.941 55.1851 12.9383 55.087 12.9521 54.9722L13.2015 54.9778ZM10.6498 53.0955C10.6498 53.1011 10.6471 53.1095 10.6443 53.1151C10.6415 53.1235 10.6415 53.132 10.6415 53.1376C10.6249 53.216 10.6277 53.3028 10.6498 53.398C10.672 53.4933 10.733 53.5829 10.8327 53.6641C10.9407 53.7538 11.0405 53.7986 11.1291 53.7986C11.2206 53.7986 11.2954 53.7818 11.3563 53.7482C11.384 53.737 11.4062 53.7202 11.4256 53.7033C11.445 53.6837 11.4616 53.6669 11.4782 53.6473C11.5669 53.5381 11.5946 53.4176 11.5641 53.2916C11.5336 53.1628 11.4865 53.0367 11.4256 52.9107C11.4145 52.8883 11.4062 52.8687 11.3951 52.8462C11.384 52.8266 11.3757 52.8042 11.3646 52.7818C11.3591 52.7734 11.3563 52.7678 11.3535 52.7594C11.3508 52.751 11.348 52.7454 11.3425 52.737C11.2621 52.5661 11.2039 52.3897 11.1679 52.2132C11.1291 52.034 11.1845 51.8519 11.3369 51.6642C11.4782 51.485 11.6638 51.3813 11.891 51.3533C12.1182 51.3225 12.3398 51.3953 12.5504 51.569C12.7028 51.695 12.8025 51.8295 12.8441 51.9695C12.8884 52.1124 12.905 52.244 12.8995 52.3645C12.8939 52.4121 12.8884 52.4569 12.8829 52.5017C12.8746 52.5465 12.8662 52.5858 12.8552 52.6194L12.5809 52.5577C12.5864 52.5465 12.5892 52.5353 12.592 52.5241C12.5947 52.5101 12.5975 52.4989 12.6003 52.4877C12.6363 52.3673 12.6446 52.2356 12.6224 52.0956C12.6003 51.9555 12.5255 51.8323 12.3953 51.723C12.2567 51.6082 12.1099 51.5662 11.9547 51.5942C11.7996 51.6222 11.6694 51.7006 11.5669 51.8323C11.4865 51.9303 11.4477 52.0284 11.445 52.1264C11.445 52.2244 11.4671 52.3365 11.5142 52.4625C11.5309 52.5017 11.5475 52.5465 11.5669 52.5914C11.5863 52.6362 11.6112 52.6866 11.6361 52.7398C11.7248 52.9247 11.7885 53.1095 11.8301 53.2944C11.8716 53.4793 11.8273 53.6529 11.6971 53.8182C11.6749 53.8462 11.6472 53.877 11.614 53.905C11.5835 53.933 11.5475 53.961 11.5087 53.9834C11.4145 54.0395 11.2981 54.0647 11.1596 54.0619C11.0211 54.0591 10.8687 53.9862 10.6997 53.849C10.6637 53.821 10.6277 53.7846 10.5861 53.7426C10.5446 53.7005 10.5085 53.6501 10.4753 53.5913C10.4337 53.5241 10.406 53.4457 10.3894 53.3588C10.3728 53.272 10.3783 53.1712 10.406 53.0619L10.6498 53.0955ZM9.84916 51.2077C9.56103 51.4794 9.22025 51.6166 8.82961 51.6166C8.4362 51.6166 8.08435 51.4486 7.77405 51.1096C7.50531 50.8155 7.36401 50.4682 7.35016 50.0649C7.33908 49.6643 7.497 49.3058 7.82392 48.9977C8.15084 48.6868 8.511 48.5523 8.90442 48.5943C9.29783 48.6364 9.62752 48.8044 9.89903 49.0985C10.1733 49.3954 10.3146 49.7455 10.3257 50.1461C10.334 50.5438 10.1761 50.8996 9.84916 51.2077ZM9.658 50.9976C9.92951 50.7399 10.068 50.443 10.0708 50.1097C10.0736 49.7764 9.96275 49.4879 9.74111 49.247C9.51947 49.0061 9.24519 48.8744 8.91827 48.852C8.59135 48.8296 8.29213 48.9501 8.01785 49.2078C7.74357 49.4683 7.60505 49.7624 7.60505 50.0957C7.60505 50.429 7.7131 50.7147 7.93474 50.9556C8.15638 51.1965 8.43066 51.3281 8.75758 51.3505C9.0845 51.3729 9.38649 51.2553 9.658 50.9976ZM6.43589 45.0931C6.46083 45.1015 6.49684 45.1155 6.54117 45.1351C6.5855 45.1547 6.63814 45.1799 6.69632 45.2136C6.77944 45.264 6.87086 45.3312 6.9706 45.418C7.07034 45.5049 7.16731 45.6169 7.25873 45.7569C7.50531 46.1267 7.57734 46.502 7.48037 46.8801C7.38064 47.2583 7.17285 47.558 6.85147 47.7765C6.48022 48.0313 6.1062 48.1126 5.72941 48.0173C5.35262 47.9249 5.06172 47.7204 4.85116 47.4067C4.77082 47.2863 4.70155 47.1462 4.6406 46.981C4.57965 46.8157 4.55472 46.614 4.5658 46.376L4.82346 46.1995C4.79021 46.3788 4.79021 46.5608 4.81791 46.7429C4.84562 46.925 4.91765 47.1042 5.03124 47.2751C5.21964 47.5608 5.47176 47.7176 5.79036 47.754C6.1062 47.7877 6.38879 47.7288 6.64091 47.5776C6.64922 47.572 6.65753 47.5664 6.66862 47.558C6.6797 47.5524 6.68801 47.544 6.69632 47.5384C6.95398 47.3619 7.13129 47.1126 7.22826 46.7961C7.32523 46.4796 7.27536 46.1715 7.08142 45.8774C6.97614 45.7177 6.84316 45.5861 6.68524 45.4852C6.52732 45.3816 6.35832 45.3088 6.18378 45.2696L6.43589 45.0931ZM3.56565 45.1351L3.44097 44.8942L5.87071 43.5806L5.99538 43.8215L3.56565 45.1351ZM2.17762 42.3509L4.34139 40.1157L4.4439 40.3762L3.75681 41.0765L4.18901 42.1605L5.16146 42.1773L5.26397 42.4378L2.17762 42.3509ZM3.58781 41.2473L2.72064 42.1297L3.94798 42.1549L3.58781 41.2473ZM1.38248 39.1942L1.58473 39.9113L1.37417 39.9729L0.894874 38.2755L1.10543 38.2139L1.31045 38.9337L3.74296 38.2251L3.81776 38.4856L1.38248 39.1942ZM0.592889 36.7826L0.54302 36.5165L3.24427 35.9843L3.29414 36.2504L0.592889 36.7826ZM1.60412 34.6118C1.21071 34.6258 0.867169 34.5026 0.567954 34.2421C0.268739 33.9816 0.113591 33.6175 0.0969678 33.1553C0.0831153 32.7547 0.202247 32.3962 0.451593 32.0853C0.700939 31.7744 1.05002 31.6091 1.49885 31.5951C1.94767 31.5783 2.30506 31.7184 2.5738 32.0097C2.84254 32.3038 2.98384 32.6511 2.99769 33.0517C3.01154 33.4578 2.89241 33.8163 2.64307 34.1244C2.39649 34.4325 2.05018 34.595 1.60412 34.6118ZM1.59304 34.3233C1.96429 34.3093 2.25796 34.1777 2.47684 33.9284C2.69293 33.6791 2.79544 33.3878 2.78436 33.0573C2.77328 32.7267 2.65138 32.4466 2.41588 32.2114C2.18316 31.9761 1.87841 31.8668 1.50716 31.8808C1.13314 31.8948 0.836694 32.0265 0.623365 32.2758C0.407265 32.5251 0.304756 32.8164 0.315838 33.1469C0.32692 33.4774 0.448822 33.7603 0.684316 33.9928C0.919809 34.2253 1.22179 34.3373 1.59304 34.3233ZM0 29.7633L2.50454 27.8978L0.32692 27.6653L0.354625 27.3965L3.19994 27.7018L0.695398 29.5672L2.87302 29.7997L2.84531 30.0686L0 29.7633ZM2.82592 22.6572C2.46021 22.5087 2.19701 22.251 2.02801 21.8897C1.86178 21.5284 1.86178 21.1334 2.03355 20.7021C2.18039 20.3296 2.43251 20.0523 2.78436 19.8702C3.13622 19.6881 3.52132 19.6853 3.93689 19.8534C4.35247 20.0243 4.62398 20.2987 4.75419 20.6769C4.88441 21.055 4.87333 21.4303 4.72649 21.8057C4.57688 22.1838 4.32476 22.4611 3.97291 22.6404C3.62106 22.8224 3.23873 22.828 2.82592 22.6572ZM2.9312 22.3911C3.27751 22.5339 3.59889 22.5339 3.89534 22.3939C4.19455 22.2538 4.40234 22.0326 4.52424 21.7273C4.64614 21.4219 4.64614 21.1138 4.52701 20.8029C4.40788 20.492 4.17516 20.2651 3.82884 20.1251C3.48253 19.9822 3.15838 19.9794 2.86194 20.1195C2.56549 20.2595 2.35493 20.4808 2.23303 20.7889C2.11113 21.0942 2.11113 21.4023 2.23026 21.7132C2.35493 22.0242 2.58766 22.2482 2.9312 22.3911ZM3.49638 17.6294L4.16408 16.5006L4.35247 16.6154L3.8233 17.5118L4.57688 17.9739L5.0922 17.1L5.28059 17.2149L4.76528 18.0888L5.99261 18.8366L5.85409 19.0691L3.49638 17.6294ZM6.3223 13.68L5.85963 14.2598L5.68786 14.1198L6.78221 12.7473L6.95398 12.8873L6.4913 13.4671L8.45836 15.0861L8.28936 15.2962L6.3223 13.68ZM7.82115 11.5709L8.342 11.0415C8.37248 11.0107 8.41127 10.9771 8.46113 10.9378C8.511 10.8986 8.56918 10.8622 8.63568 10.8342C8.73819 10.7866 8.86009 10.767 8.99584 10.7754C9.1316 10.7866 9.27289 10.865 9.41973 11.0135C9.54717 11.1423 9.61921 11.3048 9.63306 11.498C9.64691 11.6913 9.54717 11.9154 9.33107 12.1647L10.9186 12.3776L10.6942 12.6044L9.1316 12.3719L9.05956 12.4448L9.95444 13.3551L9.76604 13.5484L7.82115 11.5709ZM9.09835 12.089C9.29229 11.893 9.38649 11.7249 9.38094 11.5793C9.37817 11.4364 9.32553 11.3132 9.22303 11.2095C9.06511 11.0471 8.9155 10.9911 8.78251 11.0387C8.64676 11.0863 8.52209 11.1703 8.40572 11.2908L8.16746 11.5345L8.90719 12.2851L9.09835 12.089ZM10.902 8.62983L13.5866 10.1732L13.3677 10.3412L12.5227 9.84826L11.6029 10.5513L11.8384 11.512L11.6195 11.6801L10.902 8.62983ZM12.3177 9.72781L11.2566 9.10599L11.5503 10.316L12.3177 9.72781ZM13.2098 6.89881L16.1493 7.91557L15.0882 5.96889L15.3209 5.83724L16.7089 8.38054L13.7694 7.36378L14.8305 9.31047L14.5978 9.44211L13.2098 6.89881ZM18.2743 5.01655C18.2687 5.01375 18.266 5.00815 18.2604 5.00255C18.2549 4.99694 18.2493 4.99134 18.241 4.98854C18.1801 4.93812 18.1025 4.89891 18.0083 4.8737C17.9141 4.84849 17.8088 4.8625 17.6925 4.91291C17.565 4.96893 17.4791 5.03616 17.4348 5.11739C17.3905 5.19861 17.3711 5.27424 17.3711 5.34707C17.3683 5.37788 17.3711 5.40589 17.3794 5.4311C17.3849 5.45631 17.3933 5.48151 17.4043 5.50392C17.4597 5.63277 17.5484 5.714 17.6758 5.74761C17.8005 5.78122 17.9335 5.79803 18.072 5.80083C18.0942 5.80363 18.1191 5.80363 18.1413 5.80363C18.1635 5.80363 18.1884 5.80363 18.2106 5.80643C18.2189 5.80643 18.2272 5.80643 18.2355 5.80643C18.2438 5.80643 18.2521 5.80643 18.2604 5.80643C18.4461 5.81483 18.6261 5.84564 18.7979 5.89606C18.9697 5.94648 19.1027 6.08093 19.1969 6.30501C19.2855 6.51508 19.2883 6.73076 19.2079 6.94923C19.1276 7.16771 18.9614 7.33017 18.7092 7.43941C18.5292 7.51783 18.3657 7.54304 18.2216 7.51503C18.0776 7.48702 17.9557 7.44221 17.8504 7.38059C17.8116 7.35538 17.7728 7.32737 17.7396 7.29936C17.7063 7.27135 17.6758 7.24614 17.6509 7.21813L17.8338 6.99965C17.8393 7.00805 17.8476 7.01646 17.8587 7.02486C17.867 7.03326 17.8781 7.04167 17.8864 7.05007C17.9751 7.1397 18.0859 7.20692 18.2161 7.25454C18.3491 7.30216 18.4904 7.29095 18.6455 7.22653C18.809 7.15651 18.917 7.04447 18.9641 6.89041C19.014 6.73636 19.0057 6.5851 18.9392 6.43105C18.8893 6.31341 18.8228 6.23218 18.7397 6.18456C18.6566 6.13695 18.5486 6.10613 18.4156 6.08933C18.374 6.08373 18.3269 6.08093 18.277 6.07813C18.2272 6.07532 18.1745 6.07252 18.1164 6.07252C17.9141 6.06412 17.7229 6.03611 17.5429 5.98569C17.3628 5.93527 17.2326 5.81483 17.1522 5.62156C17.1384 5.58795 17.1245 5.54874 17.1162 5.50672C17.1051 5.46471 17.0996 5.41989 17.0968 5.37508C17.094 5.26304 17.1245 5.1482 17.191 5.02495C17.2575 4.90451 17.3933 4.79807 17.5927 4.71404C17.6343 4.69724 17.6814 4.67763 17.7396 4.66082C17.7978 4.64402 17.8559 4.63281 17.9224 4.63281C18 4.62721 18.0803 4.63842 18.1662 4.66363C18.2521 4.68883 18.3352 4.73925 18.4183 4.81768L18.2743 5.01655ZM19.992 3.90736L20.2469 3.82893L20.9866 6.2882L21.8372 6.02491L21.9009 6.23778L20.7954 6.5823L19.992 3.90736ZM23.5964 2.97463L25.2532 5.61876L24.9817 5.66358L24.4636 4.82608L23.3249 5.00815L23.0894 5.96889L22.8179 6.0137L23.5964 2.97463ZM24.3389 4.61881L23.6879 3.56284L23.3859 4.77286L24.3389 4.61881ZM26.8047 2.899L26.0705 2.93822L26.0594 2.71414L27.7937 2.6217L27.8048 2.84578L27.0706 2.885L27.2036 5.4535L26.9377 5.46751L26.8047 2.899ZM29.1845 4.0362C29.2178 3.63846 29.3812 3.30515 29.6722 3.03625C29.9631 2.76736 30.3371 2.65532 30.7914 2.69453C31.1849 2.73094 31.5201 2.8934 31.7916 3.1819C32.0659 3.4732 32.1822 3.84294 32.1434 4.2967C32.1047 4.75046 31.9246 5.09498 31.606 5.33026C31.2874 5.56554 30.93 5.66638 30.5366 5.63277C30.1376 5.59636 29.8024 5.4339 29.5309 5.1454C29.2621 4.85689 29.1458 4.48716 29.1845 4.0362ZM29.4671 4.06141C29.4339 4.43675 29.5281 4.75046 29.7442 4.99974C29.9631 5.24903 30.2318 5.38908 30.5559 5.41709C30.8801 5.4451 31.171 5.35547 31.4259 5.151C31.6835 4.94372 31.8276 4.65242 31.8609 4.27429C31.8941 3.89615 31.7999 3.58244 31.5838 3.33316C31.3649 3.08387 31.0962 2.94662 30.772 2.91861C30.4479 2.8906 30.157 2.98023 29.9021 3.1847C29.6444 3.39198 29.5004 3.68608 29.4671 4.06141ZM34.069 3.26033L34.7865 3.42839C34.8281 3.43679 34.8779 3.4536 34.9361 3.47601C34.9943 3.49841 35.0553 3.52922 35.1162 3.57124C35.2132 3.63566 35.2907 3.7281 35.3545 3.85134C35.4182 3.97458 35.4265 4.13704 35.3794 4.34431C35.3378 4.52358 35.2409 4.66923 35.0885 4.78687C34.9333 4.90171 34.6951 4.93252 34.3709 4.8793L35.0359 6.35822L34.7283 6.2854L34.0939 4.81768L33.9941 4.79527L33.7088 6.04731L33.4484 5.98569L34.069 3.26033ZM34.3128 4.63562C34.5787 4.69724 34.7699 4.68883 34.8862 4.61041C35.0026 4.53198 35.0774 4.41994 35.1107 4.27709C35.1605 4.05301 35.1301 3.89615 35.0192 3.80652C34.9056 3.71689 34.7699 3.65247 34.6092 3.61325L34.2795 3.53483L34.044 4.57119L34.3128 4.63562ZM38.0973 4.92692C38.0973 4.92132 38.0973 4.91291 38.0973 4.90451C38.0973 4.89611 38.0945 4.8877 38.0917 4.8821C38.0807 4.80087 38.0474 4.71965 37.9948 4.63842C37.9421 4.55719 37.8562 4.49557 37.7343 4.45075C37.6041 4.40593 37.4933 4.39753 37.4102 4.42834C37.3243 4.45915 37.2606 4.50117 37.2135 4.55439C37.1913 4.57399 37.1747 4.5964 37.1636 4.62161C37.1525 4.64682 37.1414 4.66923 37.1331 4.69164C37.0888 4.82608 37.1027 4.94653 37.1747 5.05576C37.2467 5.165 37.3326 5.26864 37.4324 5.36667C37.449 5.38348 37.4656 5.40029 37.4822 5.41709C37.4988 5.4339 37.5155 5.4479 37.5321 5.46751C37.5376 5.47311 37.5432 5.47871 37.5487 5.48432C37.5543 5.48992 37.5598 5.49552 37.5653 5.50112C37.6983 5.63557 37.8119 5.77842 37.9061 5.93247C38.0031 6.08653 38.0114 6.2798 37.9338 6.50668C37.859 6.72235 37.7205 6.88481 37.5182 6.99125C37.3132 7.09768 37.0833 7.10609 36.8256 7.01646C36.64 6.95203 36.5015 6.8596 36.4128 6.74196C36.3241 6.62432 36.2632 6.50668 36.2272 6.38903C36.2161 6.34142 36.205 6.2966 36.1995 6.25459C36.1912 6.20977 36.1884 6.17056 36.1856 6.13414L36.4654 6.09773C36.4654 6.10894 36.4654 6.12014 36.4654 6.13414C36.4654 6.14815 36.4682 6.15935 36.4682 6.17056C36.4765 6.2966 36.5125 6.42265 36.579 6.54869C36.6455 6.67474 36.7591 6.76437 36.917 6.82039C37.086 6.87921 37.2384 6.868 37.3742 6.78958C37.5099 6.70835 37.6069 6.59071 37.6595 6.43105C37.7011 6.31061 37.7066 6.20417 37.6734 6.11174C37.6429 6.0193 37.582 5.92407 37.4961 5.82043C37.4684 5.78682 37.4379 5.75321 37.4019 5.7168C37.3659 5.68038 37.3298 5.64397 37.2855 5.60196C37.1414 5.45911 37.0168 5.30785 36.917 5.1482C36.8145 4.98854 36.7979 4.80928 36.8672 4.61041C36.8783 4.57399 36.8949 4.53758 36.9143 4.50117C36.9337 4.46195 36.9586 4.42554 36.9863 4.39193C37.0556 4.3079 37.1581 4.24068 37.2883 4.19866C37.4185 4.15385 37.5875 4.16785 37.7925 4.24068C37.8341 4.25468 37.8812 4.27709 37.9366 4.3023C37.9892 4.32751 38.0419 4.36112 38.0917 4.40593C38.1527 4.45635 38.2053 4.51797 38.2524 4.5964C38.2995 4.67203 38.3272 4.76726 38.3383 4.8821L38.0973 4.92692Z" fill="#008BD2"/>
<path fill-rule="evenodd" clip-rule="evenodd" d="M28.334 6.81201C34.3322 6.81201 39.8316 9.0584 44.0484 12.7669L45.4862 9.64381C45.5971 9.38051 45.6968 9.09761 45.7882 8.79791C45.8797 8.4982 45.9434 8.19569 45.9794 7.89599C46.0514 7.6327 46.0985 7.3498 46.1179 7.05009C46.1373 6.75038 46.1456 6.46748 46.1456 6.20419C46.1456 5.90449 45.9545 5.62999 45.5694 5.3863C45.1843 5.14262 44.6828 5.03898 44.0594 5.07539C43.9874 5.07539 43.9043 5.07539 43.8129 5.07539C43.7214 5.07539 43.6383 5.07539 43.5663 5.07539V3.04468C45.0679 2.93264 46.3008 2.65814 47.2705 2.22679C48.2401 1.79543 49.0186 1.33327 49.6032 0.845899C49.7861 0.733859 49.9495 0.602213 50.0964 0.450959C50.2432 0.299706 50.3707 0.151253 50.4815 0H52.4568L66.8386 30.9061C67.9717 33.3122 68.9054 34.9956 69.6368 35.9535C70.3682 36.9114 71.083 37.5809 71.7784 37.9562C71.8144 37.9562 71.8504 37.9646 71.8892 37.9842C71.9252 38.0038 71.9612 38.0318 72 38.0682V40.099H56.2995V38.0682C57.1778 38.1047 57.8732 37.833 58.3857 37.2504C58.8983 36.6678 59.192 36.0375 59.264 35.3625C59.3 35.2869 59.3194 35.2028 59.3194 35.1076C59.3194 35.0124 59.3194 34.9283 59.3194 34.8527C59.3194 34.7771 59.3 34.6566 59.264 34.4858C59.228 34.3177 59.1726 34.1581 59.1005 34.0068C59.1005 33.9704 59.1005 33.9312 59.1005 33.8948C59.1005 33.8584 59.0811 33.8191 59.0451 33.7827C59.0091 33.6315 58.9731 33.4998 58.9343 33.3878C58.8983 33.2758 58.8623 33.1805 58.8235 33.1049L57.1224 29.4384H52.2989C52.3377 30.0098 52.3599 30.5868 52.3599 31.1694C52.3599 44.5862 41.566 55.5268 28.3313 55.5268C15.0965 55.5268 4.30262 44.5833 4.30262 31.1694C4.30539 17.7527 15.1021 6.81201 28.334 6.81201ZM46.3091 15.0329C49.0907 18.212 51.0661 22.1278 51.9083 26.4497H55.5321V26.2817L48.4507 10.7726H48.2318L46.3091 15.0329ZM31.534 37.4996C31.5644 37.4828 31.5949 37.466 31.6254 37.4464C32.1933 37.1075 32.7862 36.4689 33.4096 35.5277C33.5924 35.2645 33.767 34.9816 33.9305 34.6819C34.0939 34.3821 34.2518 34.0628 34.3959 33.7239L41.8957 17.4362C40.6295 18.649 39.6848 16.6071 39.5961 15.3018L41.9067 16.6435C41.9372 16.7891 42.0176 16.9936 42.0231 17.1645L42.3583 16.4362L39.6072 14.8368C39.646 14.5371 39.7624 14.3411 39.9674 14.3411C40.2888 14.3411 41.7544 15.904 41.6435 15.1309C41.541 14.4139 40.2361 13.8425 39.646 13.8425C38.5101 13.2291 38.5073 12.1815 38.4021 11.6241L39.3662 11.795L42.0231 12.6549L43.6577 13.6156L43.8295 13.2459L42.2032 12.2907L42.1644 12.2739L39.4742 11.4028L39.4493 11.3972L37.9144 11.1255C37.0722 10.7138 36.2466 10.8118 36.0776 10.4225C36.0305 10.3132 36.4017 10.3525 36.4017 10.1368C36.3075 9.94911 36.2161 9.79506 36.1247 9.67182L37.5072 9.75585L38.9839 10.0079L39.0504 9.60739L37.557 9.3525L37.5349 9.3497L35.8421 9.24887H35.8199L35.6676 9.25727C35.1079 8.97437 34.5344 9.38892 33.7531 9.0584C33.3514 8.85113 33.4428 8.10326 33.0328 7.85397C31.703 8.03884 31.3927 7.46464 30.4867 7.25736L25.5968 7.3554C25.1119 7.3554 20.837 7.98562 21.5906 8.75869C22.1558 9.3385 22.6905 9.83708 21.743 9.68862C20.9257 9.00798 20.9534 9.94071 20.765 10.3272C20.6043 10.6578 22.9869 10.1732 23.203 10.064C23.5715 9.71103 24.1367 9.55418 23.9816 8.82872C24.3583 8.64105 25.026 8.79231 26.403 8.57383C28.032 8.31614 29.9437 8.42257 31.3289 8.7699C31.7584 8.95196 31.9745 9.25167 32.2294 9.49255L31.5811 9.55698H31.5755L31.1766 9.60739L31.1849 9.66341C30.4645 9.31049 29.5752 9.10042 28.6166 9.10042C26.9543 9.10042 25.5053 9.72784 24.7822 10.6466C24.4304 10.6214 24.0813 10.4253 23.7654 10.5401C23.433 10.6606 23.1642 11.372 22.7958 11.3776C22.3553 11.3832 21.7845 11.0331 21.2831 11.0331C21.0725 11.0331 20.8176 11.0779 20.5406 11.1479C20.4436 11.6857 20.2608 11.7922 18.9531 11.6689C18.4821 11.9378 18.1413 12.3103 17.9224 12.6493L16.9278 13.1871L16.9555 12.8509V12.3412L17.0054 12.0863C17.0774 12.0274 17.1522 11.9714 17.2049 11.9462C17.7756 11.6465 17.1606 10.8538 18.4488 10.5569C18.7924 10.5345 18.6899 10.6606 19.1775 10.6101C19.4656 10.3441 19.848 10.2488 19.9865 9.97432C20.1638 9.6214 20.1305 9.08921 20.2746 8.75869C19.582 8.7867 18.9171 9.08921 18.2133 9.41132C17.8947 9.55698 17.6648 9.68862 17.493 9.81187H17.1135L17.1162 9.79786L17.1107 9.81187H17.0941V9.82867L17.058 9.93791L16.9666 10.1284L16.95 10.1872L16.9001 10.4813L16.8032 10.8314L16.8004 10.837L16.7588 11.0107C16.7367 11.0471 16.7117 11.0835 16.6813 11.1199C16.6342 11.1816 14.2848 12.8621 14.6034 12.8341C15.0494 12.7921 16.2491 11.8006 16.6397 11.8202L16.551 12.2795L16.5483 12.3188V12.8145L16.4984 13.4111L12.218 15.722L12.1598 15.7696L10.7191 17.5034L10.7662 16.5258V16.537L10.866 15.6211L10.9657 14.9069V14.9013L11.0128 14.4559L11.0599 14.2626L10.6748 14.1646L10.6249 14.3691L10.6194 14.3971L10.5695 14.8536L10.4698 15.5679V15.5735L10.37 16.495V16.509L10.3202 17.5342V17.5538L10.3396 17.9683L5.93445 23.2622L5.93168 23.2426L5.53827 23.3014L5.59091 23.674L5.18364 24.1641L5.48563 24.4302L5.66848 24.209L5.6851 24.3266L5.69619 24.3658L6.31678 26.1332C6.0896 26.3965 6.05912 26.727 6.44422 27.1108C6.98724 27.6542 6.28354 28.2564 5.85134 28.6961C5.7045 28.8474 5.62415 29.2115 5.58537 29.6821C5.88181 29.9006 6.04804 32.8444 6.1644 33.4998C6.21704 33.7883 6.38881 34.046 6.62985 34.2925V34.8499L6.67972 35.8219L6.68803 35.9927L6.49686 35.6986L6.48855 35.6902L6.18934 35.2813L6.19211 35.2869L5.9483 34.9367L5.7045 34.5362L5.50502 34.1777L5.30832 33.8247L5.01187 33.2141L5.00356 33.2001L4.86226 32.9564L4.6711 32.5615L4.62677 32.4215L4.61569 32.3934L4.56582 32.2926L4.52703 32.2394L4.47716 32.189L4.51595 32.2814H4.13916V32.3318L4.19734 32.4747L4.22228 32.4999L4.25275 32.5615L4.29708 32.6987L4.30816 32.7268L4.50764 33.1357L4.51595 33.1497L4.66002 33.3934L4.95646 34.004L4.962 34.0152L5.16148 34.3737L5.36096 34.7323L5.36373 34.7379L5.61307 35.1468L5.62138 35.1552L5.87073 35.5137L5.8735 35.5193L6.17271 35.9283L6.1644 35.9199L6.46362 36.3793L6.48024 36.3989L6.72128 36.6818L6.72959 36.8358V36.8442L6.82933 37.9702V37.9786L6.97893 39.1046V39.1102L7.17841 40.2866L7.37789 41.5135L7.38066 41.5247L7.53581 42.2137L6.59383 40.802L6.26691 41.0317L7.461 42.8215L7.47208 42.8383L7.75468 43.1885L7.97909 44.1856L8.36696 44.0932L8.31986 43.8831L8.71604 44.3733L8.72989 44.3873L9.97385 45.6673L9.98771 45.6813L11.1846 46.7037L11.1929 46.7093L12.3399 47.5804L12.3593 47.5944L13.4065 48.2078L13.4121 48.2106L14.3596 48.7232L14.3734 48.7288L14.4039 48.7428C14.7807 49.6503 14.3596 51.1909 15.5343 51.006C15.9554 50.9388 16.4818 51.2413 16.9528 51.3113C17.3212 51.3673 17.6565 51.2805 17.8892 50.7735C18.0388 50.4458 17.867 50.1209 17.7396 49.8436L18.8783 50.1713L18.8921 50.1769L20.1361 50.4318H20.1444L20.8647 50.5495C20.8398 50.5803 20.8149 50.6111 20.7844 50.6447C21.0725 50.7007 21.0697 51.6054 21.6765 51.6054C21.876 51.5634 22.117 51.2301 22.3497 50.7931L22.6351 50.8408H22.6406L23.7848 50.9948L23.7959 50.9976L24.9928 51.1013H25.0011L26.1038 51.1517L26.1592 51.541L26.1619 51.555L26.5609 53.4989L26.5664 53.5185L26.7188 54.0199H25.9209L25.1258 53.9695H24.3306L23.6325 53.919L22.9343 53.8686L22.3054 53.779L22.2915 53.7762L21.6931 53.7258L21.7125 53.7286L21.1639 53.6277L20.6154 53.5241H20.6182L20.1195 53.4233H20.1222L19.6734 53.3196L19.6789 53.3224L19.2855 53.2216L18.9475 53.1208L18.6123 52.9751L18.5957 52.9695L18.2965 52.8687L17.9972 52.765L18.0083 52.7706L17.7701 52.6726L17.5761 52.5718L17.5346 52.555L17.3683 52.513L17.2492 52.4317L17.227 52.4177L17.1273 52.3673L17.0553 52.3309L17.0276 52.3029L16.9777 52.2525L16.6979 52.541L16.7478 52.5914L16.7976 52.6418L16.8503 52.681L16.95 52.7314L17.0414 52.779L17.1772 52.8715L17.2381 52.8995L17.4154 52.9443L17.5955 53.0367L17.6121 53.0423L17.8615 53.146L17.8726 53.1516L18.1718 53.2524L18.4655 53.3532L18.8035 53.5017L18.8256 53.5101L19.1747 53.6137H19.1803L19.5792 53.7174H19.5848L20.0336 53.821H20.0391L20.5378 53.9246H20.5433L21.0919 54.0255L21.6405 54.1291L21.6599 54.1319L22.2583 54.1823L22.2444 54.1795L22.8927 54.2832L22.9066 54.286L23.6048 54.3392L24.3029 54.3896H25.1036L25.9015 54.44H26.8213H26.849L27.0679 55.1207L27.4475 54.9946L27.2618 54.4176L27.719 54.3924L28.6637 54.342L29.6583 54.2916L29.6666 54.2888L30.7139 54.1879L30.7111 54.1907L31.8581 54.0899L31.8664 54.0871L33.0106 53.9331L34.2075 53.779H34.213L35.457 53.5745H35.4625L35.7147 53.5241L35.5706 53.7034L35.8781 53.9611L36.3242 53.4009L36.7591 53.314H36.7564L38.1527 53.0591L38.0834 52.6558L36.6871 52.9107H36.6843L36.5735 52.9331L36.6982 52.6978L36.7065 52.681L37.0057 51.964L37.0113 51.9472L37.2606 51.1797V51.1769L37.5099 50.3562L37.5127 50.345L37.6346 49.8492L37.7177 49.8268L37.7316 49.824L38.4796 49.5691L38.4685 49.5719L39.2166 49.3674L39.2332 49.3618L39.9314 49.1069L39.9369 49.1041L40.5797 48.8493L41.1726 48.6448L41.1864 48.6392L41.7848 48.3843L41.7959 48.3787L42.2891 48.1238L43.2754 47.7177L43.2892 47.7121L43.6882 47.5076L44.0871 47.3031L44.1093 47.2891L44.3947 47.093L44.5221 47.0286C44.2478 47.6084 44.6967 48.1098 44.2589 48.5608C44.5637 48.3143 45.1011 47.9529 45.5389 47.5608C46.7551 45.8046 48.4313 44.0091 49.3816 41.7712L50.3319 39.4967L50.5701 38.5668C50.6505 38.3147 50.7336 36.9703 50.3236 37.0543C50.3152 36.9226 50.2903 36.7518 50.246 36.5865L50.4787 36.298L50.487 36.284L50.7364 35.9255L50.7281 35.9395L50.9774 35.6314L50.9912 35.6118L51.1907 35.3037L51.199 35.2925L51.3985 34.9339L51.3902 34.9451L51.5897 34.637L51.6063 34.6034L51.7504 34.2561L51.9 33.9508L51.5426 33.7687L51.393 34.0768L51.3874 34.088L51.2461 34.4298L51.0577 34.7211L51.0494 34.7323L50.85 35.088L50.6671 35.3709L50.4205 35.6734L50.4122 35.6874L50.1629 36.0459L50.1712 36.0347L50.0576 36.172C49.9329 36.0011 49.7528 35.9171 49.5007 36.0347C49.2292 36.1608 48.5671 37.0207 48.3371 37.3848C48.1376 37.7181 48.2013 37.805 48.3094 37.9478L48.3039 37.9534L48.3066 37.9506L48.0573 38.1551L48.0407 38.1719L47.8052 38.4128L47.5586 38.6144L47.4256 38.7237L47.4339 38.5276V38.5108L47.384 37.3344L47.373 37.0963C47.481 36.7798 47.445 36.5165 47.3397 36.34L47.3342 36.2084L47.3314 36.1888L47.1818 35.1132L47.179 35.1048L46.9796 34.0292L46.7801 32.9536L46.7773 32.934L46.4781 31.8585V31.8557L46.3977 31.5784L47.9908 30.5L48.0517 30.4299L48.6225 29.43H48.1626L47.7359 30.1807L46.2786 31.1666L46.1789 30.8305L46.1706 30.8109L45.9794 30.3431C46.1345 30.0854 46.2094 29.7633 46.2287 29.4328H39.6128L38.186 32.7604C38.1499 32.836 38.1222 32.9116 38.1028 32.9873C38.0834 33.0629 38.0585 33.1385 38.0197 33.2141C37.9477 33.3654 37.8729 33.5334 37.8009 33.7211C37.7288 33.9088 37.6734 34.1161 37.6374 34.3401C37.6319 34.3597 37.6235 34.3793 37.618 34.4018C38.1361 33.9284 38.8564 35.1216 38.7761 35.8191C38.7761 36.9226 39.851 36.3708 40.5492 36.7014C40.9232 36.8386 40.9953 37.4688 41.0701 38.043C41.0978 38.0486 41.1227 38.0542 41.1504 38.0598V38.5472C41.1836 38.6929 41.2224 38.8189 41.2806 38.9113C41.8929 39.5304 42.3417 40.0541 42.5273 40.6059C43.4444 41.2306 43.7768 40.0345 41.8901 39.1606C41.1532 38.7825 41.1421 38.1859 41.3665 37.7882C41.5798 37.41 41.397 36.9086 41.6685 36.9254C41.9428 36.9451 42.5412 37.3148 43.1673 37.959C44.1509 37.5781 44.5526 36.7686 44.7742 36.1972C44.6551 35.6706 44.2423 35.0572 43.4665 34.3905C43.2338 34.1917 43.1036 34.0096 43.0482 33.8388L46.0459 31.808L46.093 31.9677V31.9649L46.3894 33.0349L46.5861 34.0964L46.7856 35.1636L46.9103 36.0655C46.6942 36.0683 46.4781 36.2364 46.4033 36.6285C46.7579 37.6481 46.1013 38.3988 45.3422 38.6817C44.9931 38.8105 45.151 39.3791 45.3394 39.7152C45.4281 39.8749 45.079 39.7236 44.9377 39.8049C44.2728 40.4379 44.1315 40.788 44.2728 40.9421L43.9098 41.1465L43.2754 41.4546L42.5828 41.7095L41.8846 41.9644L41.1421 42.2193L40.3996 42.4742L39.6128 42.6759L39.6045 42.6787L38.7705 42.9308L38.1666 43.04V42.7627L38.1167 41.7908L38.0668 40.8692L38.0253 40.099H37.6263L37.6679 40.8888L37.7177 41.8104L37.7676 42.7823V43.1212L37.0279 43.2921L37.039 43.2893L35.2492 43.5974L33.3653 43.7991L32.4205 43.8999L31.4259 44.0035H31.437L30.4396 44.054L29.4422 44.1044L28.4947 44.1548H26.5221L26.0151 44.1296V40.323L26.065 38.9422L26.1148 37.508L26.1425 36.7602C26.2645 36.7042 26.3836 36.6397 26.4889 36.5333C26.777 36.4689 26.9488 36.3989 27.0347 36.326H29.0156L29.9049 36.2784L29.9659 36.3793L31.3262 36.8638C31.509 36.931 31.5312 37.1887 31.534 37.4996ZM34.853 40.099H32.7585C32.9635 40.4659 33.1409 40.844 33.2406 41.1829C33.5066 41.4602 34.5538 40.6648 34.853 40.099ZM41.2584 26.2257V26.4525H44.4057L43.835 24.7215C43.7187 24.7411 43.5884 24.8448 43.4472 24.968L43.1396 24.4638L43.5303 24.0885L43.5414 24.0773L43.763 23.8336C43.8239 23.8644 43.8821 23.9008 43.9403 23.9429C44.2949 24.2034 44.5193 24.7495 44.8019 25.1081C46.057 26.6514 46.5252 23.4079 45.0707 23.6179C44.777 23.6712 44.5831 23.3995 44.4307 23.0493L44.7493 22.632L44.7604 22.6152L45.2092 21.8981L45.2147 21.8897L45.6137 21.1727L45.622 21.1587L45.7328 20.9066L49.5866 26.4497H50.3291L50.5951 25.9848L50.6172 25.9232L51.0162 23.9289L50.6283 23.8476L50.2349 25.8111L49.9606 26.2901L45.924 20.4808L46.1706 19.873L46.1789 19.845L46.3285 19.2316L46.3312 19.2176L46.431 18.6042V18.6098L46.5307 18.0972L46.5335 18.058V16.6239L46.5307 16.5959L46.4809 16.2373V16.2317L46.431 15.9264L46.4282 15.9096L46.3783 15.7051L46.3285 15.5007L46.3146 15.4587L46.2869 15.3998V15.397H46.2842L46.2648 15.3578L46.2758 15.397H46.1484L45.9849 15.7612L45.996 15.806L46.0431 16.0049L46.0902 16.299L46.1373 16.6407V18.0412L46.0403 18.5341V18.5397L45.9406 19.1448L45.7965 19.7386L45.6497 20.0971L44.6662 18.6798L44.475 19.1055L45.4669 20.5341L45.2646 20.985L44.8684 21.6965L44.4307 22.3967L44.2645 22.6124C44.1841 22.3687 44.1121 22.1362 44.04 21.9738C43.8794 21.6292 43.7575 21.2875 43.6549 20.9234L41.2584 26.2257ZM18.7065 12.8201L18.5624 12.8509C18.2854 12.9546 17.964 13.2795 17.7701 13.4307C17.6343 13.5372 17.5872 13.4504 17.626 13.2627L16.9112 13.6492L16.9417 13.9769L17.1384 15.1842L17.3268 15.7192L17.5678 16.3158L17.662 16.467L18.0194 16.1953L18.0277 16.1897L18.7758 15.6771L18.7924 15.6687L19.5404 15.2598L19.5293 15.2654L20.8259 14.4475L20.8453 14.4363L21.4909 14.131L22.0283 13.8285L22.0339 13.8229L22.5326 13.568L22.5464 13.5624L23.0451 13.3579H23.0507L23.4496 13.2039L23.4413 13.2067L23.7904 13.0526L23.7959 13.0498L24.0342 12.9518L24.2309 12.8509L24.2586 12.8397L24.4082 12.7893L24.4608 12.7809C24.4442 12.7417 24.4276 12.7025 24.4137 12.6633C24.1699 12.8257 23.8541 12.9546 23.4468 13.089C22.8567 13.2543 21.3634 12.3664 21.2554 13.1394C20.5904 13.8509 19.8202 14.0582 18.9448 12.9294C18.8755 12.8453 18.7952 12.8145 18.7065 12.8201ZM24.5163 12.9042V13.1815L24.5273 13.1787L24.5163 13.1843V13.1899H24.4969L24.3916 13.2263L24.206 13.3215L24.1921 13.3271L23.9428 13.4307L23.9455 13.4279L23.5964 13.582L23.5881 13.5848L23.1892 13.7389L23.1947 13.7361L22.7071 13.9349L22.2112 14.1898L22.2167 14.1842L21.6682 14.4923L21.6571 14.4979L21.0226 14.7976L19.7344 15.6127L19.7233 15.6183L18.9891 16.0217L18.2494 16.5286L17.8726 16.8115L17.9003 16.8564L18.2854 17.3465L18.4433 17.495C18.5929 17.3857 18.6345 17.2345 18.9226 17.1252C20.0557 16.7051 21.9563 16.3382 22.7847 16.3382C22.9703 16.1645 23.2086 15.9656 23.4358 16.0049L23.4607 15.974L23.4912 15.9432L23.7239 15.7528L23.9095 15.5147L23.94 15.4839L24.1866 15.2822L24.3722 15.0889L24.5218 14.9349L24.7213 14.7304V14.7332L25.0205 14.4279L25.051 14.4027L25.1812 14.3131L25.5081 13.9741C25.0704 13.6716 24.7268 13.3075 24.5163 12.9042ZM18.0721 17.7023L18.0028 17.6378L17.9806 17.6154L17.5817 17.1028L17.5706 17.086L17.5512 17.0552L17.5069 17.0888L16.7616 17.6518L15.972 18.3129L15.1824 18.9739L14.39 19.7386L13.5921 20.506L13.5977 20.5004L12.8025 21.3183L12.4839 21.6853C12.556 21.7217 12.6391 21.7413 12.7305 21.7413C12.8995 21.7413 13.1184 21.5172 13.4176 21.3127C13.8803 20.9906 14.4288 20.6069 14.487 20.4052C14.6228 19.9066 15.3791 20.492 15.5786 20.5845C15.6839 20.6321 15.6063 20.4612 15.7975 20.3996C16.1161 20.2988 16.745 20.2175 16.9722 20.0551C17.0941 19.9683 16.9805 19.9178 17.0553 19.831C17.2243 19.6377 17.0691 19.4025 17.1799 19.3856C17.2104 19.3828 17.5429 19.2848 17.5983 19.4809C17.493 19.6994 17.1467 20.6909 17.3794 20.5228C17.4321 20.4864 17.6426 19.831 17.7091 19.8058C17.7895 19.775 17.8809 19.761 17.9751 19.7694C18.1441 19.789 18.4433 20.1699 18.604 20.3352C18.6289 20.3604 18.7065 20.0103 18.8478 19.8422C18.9337 19.7414 19.0417 19.8142 19.1719 19.7666C19.3132 19.7162 19.3049 19.8534 19.4684 19.9318C19.5626 19.9795 19.7177 20.0075 19.8535 20.0131L19.9255 19.9206L20.3245 19.4081L20.3383 19.3913L20.4852 19.2428C20.5046 19.1252 20.5129 19.0187 20.5101 18.9403C20.5101 18.8507 20.8398 18.2204 20.8426 17.9655C20.8426 17.9375 20.2026 18.072 19.8009 18.1952C19.4102 18.607 19.2218 18.6742 18.9337 18.8507C18.7508 18.9627 18.8921 19.1728 18.712 19.184C18.6289 19.1896 18.4932 19.366 18.338 19.4277C18.2743 19.4529 17.9723 19.5285 17.9252 19.4333C17.8476 19.2764 18.0111 18.677 17.9806 18.579C17.8947 18.2877 17.6371 18.3829 17.5512 18.3045C17.4459 18.2036 17.5373 18.0076 18.0721 17.7023ZM10.3562 23.6656L10.3229 23.7076L10.3091 23.7244L10.0681 23.9709L9.99879 24.0549C10.3894 24.2146 10.7801 24.94 11.0294 24.8756C11.6195 25.0436 13.7501 25.8251 12.7305 26.8755C11.8606 27.2816 13.8387 27.1304 13.0519 28.5309C12.4313 29.6345 14.2598 28.8502 14.958 28.8502C16.515 28.8502 16.781 31.8921 18.3159 31.1806C19.6235 30.0294 19.3049 28.9286 18.1718 29.0715C17.2187 29.4356 16.8059 28.1443 17.0553 27.5421C17.2991 26.9483 18.0139 26.9651 18.6151 27.0436C19.0805 27.1052 18.9642 26.8755 19.2855 26.8531C19.2329 26.8531 20.0862 27.2788 20.1582 27.2508C20.4381 27.15 20.6653 27.7074 20.8315 27.6654C21.0975 27.5981 21.175 27.0576 21.1002 26.7859C20.9589 26.2817 19.7704 25.8223 19.3382 25.6066C18.8118 25.3462 18.1192 25.2453 17.6592 25.5114C17.3656 25.6823 17.396 26.7691 17.0941 27.0351C16.8586 27.2396 16.6813 26.5142 16.5455 26.5142C15.3625 26.5142 15.4705 26.8755 15.8473 26.1052C16.2269 25.7663 15.6589 25.4806 15.4622 25.0128C15.2905 24.5983 15.2517 23.9176 14.9469 23.9176C14.5175 23.9176 15.3209 24.9876 15.2655 25.2649C14.7558 26.8363 13.9634 27.0632 13.8166 26.5758C13.7417 26.3321 14.3069 26.0856 14.4039 25.6599C14.5009 25.2341 14.1296 24.6263 14.0631 24.405C13.7999 23.7076 14.052 23.3322 12.8164 22.9289C12.7471 22.9289 12.6335 22.9373 12.5338 23.0493C12.423 23.1726 12.1265 23.0858 11.9825 23.1698C11.8578 23.2426 11.8883 23.4863 11.7331 23.6039C11.5364 23.7552 11.0627 23.7776 10.8189 23.8364C10.6277 23.8812 10.672 24.0241 10.4559 23.8028C10.4199 23.7608 10.3894 23.716 10.3562 23.6656ZM7.0288 34.6482V34.8275L7.07867 35.7994L7.11469 36.5277L7.12854 36.5445L7.13685 36.5529L7.48594 37.0151L7.83225 37.4716L8.22012 37.9198L9.06513 38.7881L9.49179 39.183C9.5001 39.071 9.50564 38.9618 9.50841 38.8497L9.53611 37.7405C9.57767 36.2448 8.04558 35.4661 7.0288 34.6482ZM20.9977 43.7795L22.5935 43.9531L23.5383 44.054H23.5272L24.5246 44.1044H25.5192L25.6106 44.11V40.3118L25.6605 38.9282L25.7103 37.4968L25.7297 36.9759C25.4804 37.1579 25.2449 37.4856 25.0981 38.2867C24.5606 38.8385 19.5349 39.3931 19.859 39.7264C21.1501 41.0513 22.0173 39.5864 22.9897 40.071C23.6823 40.4155 22.2389 42.1129 22.0782 42.3874C21.7153 42.8859 21.3828 43.3593 20.9977 43.7795ZM25.7685 35.8751L25.8045 34.8443C24.5079 34.595 23.2252 34.1637 23.5355 33.6119C23.0978 32.9452 22.7016 32.9957 22.6766 33.1581C22.5409 34.06 23.095 34.2953 23.4468 34.5082C23.5771 36.0263 24.2808 35.6594 24.9014 34.7631C25.1507 34.4046 25.5109 35.1524 25.6771 35.7042C25.7048 35.791 25.7353 35.8443 25.7685 35.8751ZM27.4807 17.0496L27.5583 16.5398L27.5555 16.5538L27.6054 15.9404L27.6081 15.9376L27.658 15.425V15.4166L27.7079 15.0581V15.0525L27.7494 14.7864C27.0651 14.6968 26.4362 14.4951 25.9098 14.215V14.3187L25.4527 14.6184L25.4222 14.6436L25.292 14.7332L25.0066 15.0273V15.0245L24.8072 15.229L24.6576 15.3802L24.4581 15.5847L24.4442 15.6015L24.2115 15.792L24.0259 16.0301L23.9954 16.0637L23.7627 16.2541L23.7571 16.2625C23.7627 16.2709 23.7682 16.2794 23.7738 16.2878C23.7433 16.7779 24.3888 17.4922 23.6851 18.2428C22.4051 18.8675 22.8318 19.7974 24.0314 18.6574C24.1422 18.5594 24.1367 18.6686 24.2558 18.5173C24.6299 18.5089 24.7545 18.5902 25.1036 18.4949C25.6162 18.3409 25.9735 18.3101 26.342 18.24C26.9377 18.1252 26.7354 17.1869 27.4502 17.0496C27.4585 17.0468 27.4696 17.0468 27.4807 17.0496ZM28.1484 14.8256L28.1013 15.1141L28.0542 15.4699V15.4615L28.0043 15.974L28.0071 15.9712L27.9572 16.5847L27.9545 16.5987L27.8686 17.1701C28.1789 17.2625 28.6277 17.3045 29.2261 16.8283C29.9797 15.6687 29.9575 17.1252 30.6031 17.1252C31.5173 17.1252 29.9243 16.1561 30.0323 15.9908C30.3288 15.3942 30.628 15.4222 30.9244 15.5371C30.7277 15.1421 30.8607 14.7472 31.0242 14.3523C30.3343 14.6632 29.5032 14.8424 28.6083 14.8424C28.4504 14.8424 28.298 14.8368 28.1484 14.8256ZM26.2035 34.9115L26.173 35.8022C26.1952 35.7994 26.2174 35.7966 26.2423 35.7994C26.403 35.8106 26.5886 35.8527 26.7465 35.9115H28.9906L29.6639 35.8751L28.9214 34.6286C28.5834 34.3149 27.9877 35.1076 27.2369 35.0404C26.9294 35.018 26.572 34.9732 26.2035 34.9115ZM46.9906 39.0458L47.01 39.0234L47.0322 38.522L46.9962 37.6929C46.6914 38.0514 46.3534 38.4464 46.7579 38.8637C46.8299 38.9366 46.9075 38.9954 46.9906 39.0458ZM43.1507 33.2954L44.2118 32.5755C43.8018 32.7632 43.3613 32.9985 43.1507 33.2954ZM45.0762 31.9901L45.9295 31.4131L45.7993 30.9649L45.6857 30.6848C45.6608 30.7044 45.6359 30.7213 45.6109 30.7381C44.5775 30.7353 45.1566 31.5055 45.0762 31.9901ZM43.1369 25.2229L42.8487 24.7467L42.7905 24.8056L42.7767 24.8168L42.3445 25.1613C42.3583 25.1809 42.3722 25.2005 42.3888 25.2201C42.6409 25.4806 42.8958 25.3938 43.1369 25.2229ZM42.2254 24.7355L42.5218 24.4975L42.6298 24.3938L42.3888 23.9961C42.2835 24.1921 42.217 24.4778 42.2254 24.7355ZM33.4899 14.5763L33.127 14.3355L33.1381 14.3411L32.4455 13.9349L32.052 13.7333L32.0354 13.722C31.9745 13.7753 31.908 13.8285 31.8387 13.8789C32.2238 14.3775 32.6532 15.4222 33.4899 14.5763ZM32.3346 13.4195L32.6255 13.568L32.6339 13.5736L33.332 13.9825L33.3403 13.9881L34.0662 14.4727C34.346 14.4335 34.6369 14.2822 34.7478 13.6324C35.1273 13.694 35.4902 13.5064 35.5595 13.3383C35.5761 13.2879 35.5457 13.1843 35.5041 13.061L32.8306 12.5708C32.7364 12.8761 32.5646 13.1618 32.3346 13.4195ZM42.6963 23.7272L42.9291 24.1081L43.2588 23.7916L43.3502 23.6908C43.1036 23.6488 42.8709 23.6712 42.6963 23.7272ZM32.9192 12.1731L35.3933 12.6269C35.3822 12.4896 35.4182 12.3916 35.5734 12.3916C35.7451 12.5008 35.7867 12.1731 36.5846 12.3552C36.0554 11.8846 35.7507 11.7361 35.6814 11.2936L34.5704 11.2432H33.0522L32.7973 11.2656C32.8832 11.4925 32.9303 11.7277 32.9303 11.9714C32.9303 12.0387 32.9275 12.1059 32.9192 12.1731ZM48.5006 38.3203L48.3094 38.4772L48.0739 38.7209L48.0573 38.7377L47.8079 38.9422L47.5586 39.1466L47.5364 39.1606L47.4367 39.2223C48.0434 39.3483 48.6862 39.0822 48.5116 38.368C48.5061 38.3511 48.5033 38.3343 48.5006 38.3203ZM47.2234 41.2026L47.0821 42.0401L47.0793 42.0485L46.8299 43.2249L46.8272 43.2305L46.7884 43.3901C46.9768 43.2249 47.215 43.0008 47.3924 42.7711C47.5198 42.6002 47.6971 42.7907 47.7885 42.6255C47.9936 42.2669 48.049 41.6031 48.0684 41.5527L48.5255 40.9281L48.3814 40.8188C48.4562 40.7096 47.4284 41.351 47.2234 41.2026ZM36.0693 53.0311L36.3408 52.5102L36.6317 51.8127L36.8783 51.0508V51.0536L37.1248 50.2413L37.1941 49.9612L36.9171 50.0313L36.1192 50.2357L36.1025 50.2385L35.2132 50.3898L34.371 50.5943L34.3571 50.5971L33.4096 50.7511L32.4649 50.9052H32.4538L31.4564 51.0088L30.459 51.1097L30.4507 51.1125L28.359 51.2133H27.2452L26.511 51.1797L26.5554 51.4878L26.9488 53.4121L27.1316 54.0087L27.694 53.9779L28.6415 53.9274L29.6389 53.877L29.6306 53.8798L30.6751 53.779L30.6779 53.7762L31.8221 53.6754L31.8138 53.6782L32.958 53.5241H32.9608L34.1576 53.3701H34.1521L35.3961 53.1656H35.3905L36.0693 53.0311ZM46.1872 44.1884L46.4421 43.138L46.6886 41.9644L46.8881 40.7936L46.8854 40.8104L46.9352 40.2222C46.8383 40.1606 46.7025 40.1466 46.5169 40.211C46.1484 40.5639 45.4918 40.8748 44.9765 40.9953L44.6523 41.2082L44.6412 41.2138L44.0927 41.5191L44.0816 41.5247L43.4361 41.8328L43.4194 41.8384L42.7213 42.0933L42.0231 42.3482L42.0176 42.351L41.2695 42.6059L40.5215 42.8607L40.5076 42.8663L39.7097 43.0708L39.718 43.068L38.8703 43.3229L38.8481 43.3285L38.1666 43.4518V44.7766L38.0668 46.7205V46.7317L37.8673 48.5748V48.586L37.7371 49.3898L38.3577 49.177L38.3688 49.1742L39.103 48.9753L39.7956 48.7204H39.7929L40.4411 48.4655L40.4495 48.4627L41.0423 48.2582L41.6214 48.009L42.1173 47.7541L42.1312 47.7485L43.1175 47.3423L43.5136 47.1407L43.9043 46.939L44.1896 46.7429L44.2118 46.7289L44.5083 46.5777L44.7465 46.432L44.7742 46.418L44.9266 46.3564L46.1872 44.1884ZM37.3049 49.5131L37.3243 49.4319L37.4712 48.5271L37.6706 46.6897L37.6679 46.7009L37.7676 44.7542V43.5358L37.1138 43.6842L37.1055 43.687L35.3102 43.9951L35.2991 43.9979L33.4068 44.2024L32.4593 44.306L31.4619 44.4069L31.4536 44.4097L30.4562 44.4601L29.4588 44.5105L28.5113 44.5637H26.4999L26.0179 44.5385L26.0594 45.6813L26.1093 46.9082L26.1592 48.1378V48.1294L26.2589 49.3058V49.2974L26.4085 50.4234V50.4206L26.4556 50.7707L27.2646 50.8071H28.3423L30.4341 50.7063L30.423 50.7091L31.4204 50.6055L32.4122 50.5018L33.3514 50.3506L34.2823 50.1993L35.1273 49.9949L35.1412 49.9921L36.0277 49.8408L36.8173 49.6391L37.3049 49.5131ZM26.0511 50.7511L26.0151 50.4766L25.8655 49.3506L25.8627 49.3422L25.763 48.1658V48.1574L25.7131 46.9306L25.6632 45.7009L25.6189 44.5217L25.5026 44.5161H24.5052L23.5106 44.4657L23.4995 44.4629L22.5547 44.3593L20.6625 44.1548L20.632 44.152C20.3106 44.4461 19.9449 44.7066 19.5016 44.9223C17.2825 46.0063 20.9063 48.5552 18.1136 49.1406C17.8255 49.2022 17.6953 49.2946 17.6537 49.4095L17.7424 49.4347H17.7451L18.9808 49.7904L20.222 50.0453L20.2137 50.0425L21.1723 50.2021C21.3274 49.9837 21.3136 49.8352 21.3136 49.1069C21.4742 49.2274 22.89 48.5888 23.2224 48.3787C23.4773 47.9277 23.0645 49.3254 22.5492 50.429L22.7016 50.4542L23.8458 50.6055L23.8375 50.6027L25.0316 50.7063H25.0233L26.0511 50.7511ZM9.46408 39.6928L9.29508 39.5528L9.28677 39.5444L8.78807 39.0822L8.77976 39.0766L7.93199 38.2055L7.92368 38.1971L7.52472 37.7377L7.51641 37.7265L7.16733 37.2644L7.16179 37.2588L7.22274 37.9394V37.931L7.37235 39.057V39.0514L7.57182 40.2278L7.76853 41.4518L8.12038 43.0092L9.0208 44.1184L10.2481 45.3816L11.4395 46.4012L11.4311 46.3956L12.5643 47.2555L13.3373 47.7093C12.3676 46.953 11.0183 45.8886 11.0183 45.0903C11.0183 44.4265 10.938 44.4181 10.9047 43.7515C10.7995 41.6787 9.6691 41.211 9.49456 40.1326C9.47239 39.9869 9.46408 39.8413 9.46408 39.6928ZM5.70727 34.5334L5.7045 34.5278L5.70727 34.5334ZM9.44469 24.1165L9.50841 24.0241L9.51672 24.0101L9.76607 23.702L9.77992 23.688L10.0182 23.4415L10.1622 23.2566C10.1401 23.2034 10.1151 23.1558 10.0958 23.1194C10.0182 22.9905 9.94615 23.0605 9.93784 22.9373C9.9129 22.6376 10.1955 22.3659 10.3894 22.097C10.5944 21.8169 10.8022 21.5452 11.0073 21.2735L10.8355 20.8982L10.8244 20.8674L10.5252 19.7918L10.5196 19.7638L10.37 18.6378L10.3673 18.621L10.3645 18.5538L6.01202 23.7972L6.07852 24.2482L6.64647 25.8615C7.13962 25.5506 7.86827 25.3798 8.16471 25.3826C8.4667 25.3265 8.92106 24.8616 9.07067 24.4582C9.15101 24.2398 9.28677 24.1585 9.44469 24.1165ZM12.1903 21.408L12.5089 21.0382L12.5172 21.0298L13.3151 20.2119L13.3206 20.2063L14.1185 19.4389L14.9164 18.6714L14.9275 18.663L15.7254 17.9992L16.5233 17.3325L16.5316 17.3269L17.2797 16.7639L17.3434 16.7135L17.2243 16.5258L17.2077 16.4922L16.9583 15.8788L16.9528 15.8676L16.7533 15.3046L16.745 15.2682L16.5455 14.0386L16.5427 14.0218L16.5289 13.8509L12.4341 16.0609L10.7413 18.1L10.7634 18.6014L10.7607 18.5846L10.9075 19.6938L11.1984 20.7413L11.276 20.9094C11.2815 20.9038 11.2843 20.8982 11.2898 20.8926C11.7885 20.2259 11.8717 20.9402 12.1903 21.408ZM32.8804 9.84548L32.6477 9.86228L32.6532 9.85948L31.678 9.95472C32.0687 10.2152 32.3817 10.5261 32.5978 10.8678L33.019 10.8314H34.5871L35.6731 10.8818C35.687 10.6998 35.723 10.4757 35.7756 10.204C35.723 10.6998 33.6811 9.81747 33.5731 9.81747C33.2905 9.87349 33.0661 9.87629 32.8804 9.84548ZM37.4933 32.9032C37.4878 32.9172 37.4795 32.934 37.4739 32.948C37.28 33.3514 37.1221 33.7575 37.0445 34.2029C36.9531 34.511 36.9725 34.8303 36.9725 35.1496C36.9808 35.4493 37.0223 35.7126 37.1082 36.0011L37.2107 36.2756C37.4351 36.7658 37.7427 37.1915 38.1444 37.5445C38.8287 38.1019 39.6987 38.3932 40.5409 38.5864V39.4799H31.002V38.5052C31.365 38.3315 31.7224 38.1327 32.0631 37.917C32.4926 37.6201 32.8416 37.2756 33.1852 36.8806C33.8473 36.0767 34.4014 35.2028 34.8392 34.2533C38.0641 27.1892 41.3222 20.1391 44.5664 13.0834L45.9462 14.3607L40.6517 26.0968V27.0856L52.2601 27.0968L52.4984 28.8222H39.2194L37.6235 32.5391C37.5654 32.6567 37.5404 32.78 37.4933 32.9032Z" fill="#008BD2"/>
</svg>
