<svg width="60" height="60" viewBox="0 0 60 60" fill="none" xmlns="http://www.w3.org/2000/svg">
<path d="M31.0002 6H29.0002V8H31.0002V6Z" fill="#3D9AE2"/>
<path d="M53.9097 40.8417C55.7317 39.9333 57.2658 38.5371 58.3411 36.8083C59.4165 35.0796 59.9908 33.0863 60.0002 31.0505C60.0096 29.0146 59.4537 27.0161 58.3943 25.2775C57.335 23.539 55.8139 22.1286 54.0003 21.2035V7C53.9994 6.20463 53.6831 5.44209 53.1206 4.87967C52.5582 4.31726 51.7957 4.0009 51.0003 4H39.234C38.9531 3.68535 38.609 3.4336 38.224 3.26126C37.8391 3.08893 37.4221 2.99989 37.0003 3H34.7211L34.4049 2.05127C34.2062 1.45364 33.8243 0.933783 33.3134 0.565552C32.8025 0.19732 32.1886 -0.000565838 31.5588 1.21529e-06H28.4418C27.812 -0.000564595 27.1981 0.197336 26.6872 0.565592C26.1763 0.933847 25.7944 1.45373 25.5958 2.05139L25.2796 3H23.0003C22.5786 2.99989 22.1615 3.08893 21.7766 3.26126C21.3917 3.4336 21.0475 3.68535 20.7667 4H9.00032C8.20495 4.00091 7.44241 4.31727 6.88 4.87969C6.31759 5.4421 6.00123 6.20463 6.00032 7V18.0271L5.88661 17.6269C5.77923 17.2476 5.59815 16.8932 5.35371 16.5839C5.10928 16.2746 4.80628 16.0165 4.46204 15.8244C4.1178 15.6323 3.73907 15.5099 3.34751 15.4642C2.95594 15.4186 2.55921 15.4505 2.18001 15.5583C1.8008 15.6661 1.44655 15.8475 1.1375 16.0922C0.828455 16.337 0.570677 16.6402 0.378903 16.9847C0.187128 17.3291 0.0651179 17.7079 0.0198471 18.0996C-0.0254238 18.4912 0.00693227 18.8879 0.115066 19.267L6.00032 39.9792V57C6.00121 57.7954 6.31757 58.5579 6.87999 59.1203C7.4424 59.6827 8.20494 59.9991 9.00032 60H54.4005C54.4062 60 54.4119 60.0006 54.4177 60.0006C54.4251 60.0006 54.4325 60.0001 54.4398 60H54.5773V59.9962C54.7446 59.9872 54.9108 59.9645 55.0744 59.9281C55.851 59.7555 56.5273 59.2815 56.9544 58.6103C57.3816 57.9391 57.5247 57.1257 57.3522 56.349L53.9097 40.8417ZM58.0003 31C58.0006 32.2653 57.7336 33.5163 57.2165 34.6711C56.6995 35.826 55.9443 36.8585 55.0003 37.701V35.1606C54.9996 34.6319 54.8595 34.1127 54.5941 33.6554C54.3288 33.1981 53.9475 32.8188 53.4887 32.5559L50.9597 31.1107C51.2858 30.8288 51.5475 30.4801 51.727 30.0882C51.9065 29.6963 51.9998 29.2704 52.0003 28.8394V27C52.0003 26.2044 51.6842 25.4413 51.1216 24.8787C50.559 24.3161 49.796 24 49.0003 24C48.2047 24 47.4416 24.3161 46.879 24.8787C46.3164 25.4413 46.0003 26.2044 46.0003 27V28.8394C46.0009 29.2704 46.0941 29.6963 46.2737 30.0882C46.4532 30.4801 46.7149 30.8288 47.041 31.1107L44.512 32.5559C44.0532 32.8188 43.6719 33.198 43.4065 33.6554C43.1411 34.1127 43.001 34.6319 43.0003 35.1606V37.701C41.8823 36.6999 41.0324 35.435 40.528 34.0215C40.0237 32.608 39.8809 31.0908 40.1127 29.608C40.3445 28.1253 40.9436 26.724 41.8552 25.5319C42.7669 24.3398 43.9623 23.3946 45.3325 22.7825C46.7028 22.1704 48.2044 21.9107 49.7006 22.0271C51.1969 22.1436 52.6402 22.6324 53.8993 23.4491C55.1583 24.2659 56.1931 25.3846 56.9094 26.7034C57.6257 28.0222 58.0007 29.4992 58.0003 31ZM49.0003 32.2946L52.4965 34.2925C52.6494 34.3801 52.7765 34.5065 52.8649 34.6589C52.9534 34.8114 53.0001 34.9844 53.0003 35.1606V39.059C51.7577 39.6779 50.3885 40 49.0003 40C47.6121 40 46.2429 39.6779 45.0003 39.059V35.1606C45.0005 34.9844 45.0472 34.8113 45.1357 34.6589C45.2242 34.5065 45.3513 34.3801 45.5042 34.2925L49.0003 32.2946ZM48.0003 28.8394V27C48.0003 26.7348 48.1057 26.4804 48.2932 26.2929C48.4807 26.1054 48.7351 26 49.0003 26C49.2655 26 49.5199 26.1054 49.7074 26.2929C49.895 26.4804 50.0003 26.7348 50.0003 27V28.8394C50.0001 29.0156 49.9534 29.1887 49.8649 29.3411C49.7764 29.4935 49.6493 29.6199 49.4964 29.7075L49.0003 29.9911L48.5042 29.7075C48.3513 29.6199 48.2242 29.4935 48.1357 29.3411C48.0472 29.1886 48.0005 29.0156 48.0003 28.8394ZM40.0003 6H51.0003C51.2654 6.0003 51.5196 6.10576 51.7071 6.29323C51.8946 6.4807 52 6.73488 52.0003 7V20.4158C51.3466 20.2307 50.677 20.1068 50.0003 20.0459V9C50.0003 8.73479 49.895 8.48043 49.7074 8.2929C49.5199 8.10536 49.2655 8 49.0003 8H40.0003V6ZM22.0003 6C22.0006 5.73488 22.1061 5.4807 22.2935 5.29323C22.481 5.10576 22.7352 5.0003 23.0003 5H26.0003C26.2102 5.00001 26.4148 4.93396 26.585 4.81123C26.7553 4.6885 26.8826 4.51529 26.949 4.31616L27.4931 2.68384C27.5593 2.48461 27.6866 2.3113 27.8569 2.18854C28.0272 2.06578 28.2319 1.99981 28.4418 2H31.5588C31.7687 1.99981 31.9734 2.06577 32.1437 2.1885C32.314 2.31124 32.4413 2.48451 32.5075 2.68372L33.0516 4.31616C33.118 4.51529 33.2453 4.6885 33.4156 4.81123C33.5858 4.93397 33.7904 5.00001 34.0003 5H37.0003C37.2654 5.0003 37.5196 5.10576 37.7071 5.29323C37.8946 5.4807 38 5.73488 38.0003 6V10H22.0003V6ZM21.0003 12H39.0003C39.2655 12 39.5199 11.8946 39.7074 11.7071C39.895 11.5196 40.0003 11.2652 40.0003 11V10H48.0003V20.0459C45.2674 20.2953 42.7265 21.5572 40.8763 23.5839C39.0261 25.6106 38.0003 28.2558 38.0003 31C38.0003 33.7442 39.0261 36.3893 40.8763 38.416C42.7265 40.4427 45.2674 41.7047 48.0003 41.954V54H14.7592L15.4377 51.8901C16.2332 52.8247 17.2963 53.4928 18.4834 53.804C19.6706 54.1152 20.9247 54.0547 22.0764 53.6305C23.228 53.2064 24.2218 52.439 24.9235 51.4322C25.6252 50.4253 26.0011 49.2273 26.0003 48H24.0003C24.0003 48.7911 23.7657 49.5645 23.3262 50.2223C22.8867 50.8801 22.262 51.3928 21.531 51.6955C20.8001 51.9983 19.9959 52.0775 19.22 51.9231C18.444 51.7688 17.7313 51.3878 17.1719 50.8284C16.6125 50.269 16.2315 49.5563 16.0772 48.7804C15.9228 48.0044 16.002 47.2002 16.3048 46.4693C16.6075 45.7384 17.1202 45.1136 17.778 44.6741C18.4358 44.2346 19.2092 44 20.0003 44V42C18.6368 42.0019 17.3144 42.4675 16.2505 43.3203C15.1865 44.1731 14.4442 45.3623 14.1455 46.6927L12.0003 39.1432V10H20.0003V11C20.0003 11.2652 20.1057 11.5196 20.2932 11.7071C20.4807 11.8946 20.7351 12 21.0003 12ZM8.00032 7C8.00062 6.73488 8.10607 6.4807 8.29354 6.29323C8.48101 6.10576 8.73519 6.0003 9.00032 6H20.0003V8H11.0003C10.7351 8 10.4807 8.10536 10.2932 8.2929C10.1057 8.48043 10.0003 8.73479 10.0003 9V32.1046L8.00032 25.0659V7ZM2.03889 18.7203C2.00289 18.594 1.99214 18.4618 2.00726 18.3313C2.02238 18.2008 2.06306 18.0745 2.12699 17.9597C2.19092 17.8449 2.27684 17.7439 2.37984 17.6623C2.48284 17.5808 2.6009 17.5203 2.72728 17.4844C2.85366 17.4485 2.98587 17.4378 3.11637 17.453C3.24687 17.4682 3.3731 17.509 3.48783 17.573C3.60257 17.637 3.70357 17.723 3.78507 17.826C3.86656 17.9291 3.92695 18.0472 3.96278 18.1736L4.50946 20.0975L2.58554 20.6442L2.03889 18.7203ZM3.13218 22.568L5.0561 22.0214L13.4464 51.5497L12.8944 53.2659L11.5225 52.0963L3.13218 22.568ZM9.00032 58C8.73519 57.9997 8.48101 57.8942 8.29354 57.7068C8.10607 57.5193 8.00062 57.2651 8.00032 57V47.0179L9.68141 52.9342C9.73534 53.1241 9.84431 53.2938 9.99458 53.4219L12.7384 55.761C12.9193 55.9153 13.1494 56 13.3872 56H49.0003C49.2655 56 49.5199 55.8946 49.7074 55.7071C49.895 55.5196 50.0003 55.2652 50.0003 55V50.9285L51.495 57.6504C51.5221 57.7689 51.5564 57.8856 51.5975 58H9.00032ZM55.2672 57.5364C55.1611 57.7033 55.0078 57.8349 54.8268 57.9147C54.6458 57.9944 54.4452 58.0187 54.2504 57.9845C54.0556 57.9502 53.8753 57.859 53.7324 57.7223C53.5894 57.5856 53.4902 57.4095 53.4473 57.2164L50.0525 41.9494C50.7198 41.8861 51.3798 41.7615 52.0243 41.5772L55.3997 56.7826C55.4286 56.9108 55.4317 57.0434 55.409 57.1728C55.3862 57.3021 55.3381 57.4257 55.2672 57.5364Z" fill="#3D9AE2"/>
<path d="M18.7074 18.2928L17.2932 19.7072L19.2932 21.7072C19.4808 21.8947 19.7351 22 20.0003 22C20.2655 22 20.5199 21.8947 20.7074 21.7072L25.7074 16.7072L24.2932 15.2928L20.0003 19.5858L18.7074 18.2928Z" fill="#3D9AE2"/>
<path d="M46.0002 17H28.0002V19H46.0002V17Z" fill="#3D9AE2"/>
<path d="M39.0002 21H28.0002V23H39.0002V21Z" fill="#3D9AE2"/>
<path d="M20.0002 24C18.9394 24 17.922 23.5786 17.1718 22.8284C16.4217 22.0783 16.0002 21.0609 16.0002 20C16.0002 18.9391 16.4217 17.9217 17.1718 17.1716C17.922 16.4214 18.9394 16 20.0002 16V14C18.8136 14 17.6535 14.3519 16.6668 15.0112C15.6801 15.6705 14.9111 16.6075 14.457 17.7039C14.0028 18.8003 13.884 20.0067 14.1155 21.1705C14.347 22.3344 14.9185 23.4035 15.7576 24.2426C16.5967 25.0818 17.6658 25.6532 18.8297 25.8847C19.9936 26.1162 21.2 25.9974 22.2963 25.5433C23.3927 25.0892 24.3298 24.3201 24.9891 23.3334C25.6484 22.3467 26.0002 21.1867 26.0002 20H24.0002C23.999 21.0605 23.5772 22.0772 22.8273 22.8271C22.0775 23.577 21.0607 23.9988 20.0002 24Z" fill="#3D9AE2"/>
<path d="M18.7074 32.2928L17.2932 33.7072L19.2932 35.7072C19.4808 35.8947 19.7351 36 20.0003 36C20.2655 36 20.5199 35.8947 20.7074 35.7072L25.7074 30.7072L24.2932 29.2928L20.0003 33.5858L18.7074 32.2928Z" fill="#3D9AE2"/>
<path d="M20.0002 38C18.9394 38 17.922 37.5786 17.1718 36.8284C16.4217 36.0783 16.0002 35.0609 16.0002 34C16.0002 32.9391 16.4217 31.9217 17.1718 31.1716C17.922 30.4214 18.9394 30 20.0002 30V28C18.8136 28 17.6535 28.3519 16.6668 29.0112C15.6801 29.6705 14.9111 30.6075 14.457 31.7039C14.0028 32.8003 13.884 34.0067 14.1155 35.1705C14.347 36.3344 14.9185 37.4035 15.7576 38.2426C16.5967 39.0818 17.6658 39.6532 18.8297 39.8847C19.9936 40.1162 21.2 39.9974 22.2963 39.5433C23.3927 39.0892 24.3298 38.3201 24.9891 37.3334C25.6484 36.3467 26.0002 35.1867 26.0002 34H24.0002C23.999 35.0605 23.5772 36.0772 22.8273 36.8271C22.0775 37.577 21.0607 37.9988 20.0002 38Z" fill="#3D9AE2"/>
<path d="M36.0002 31H28.0002V33H36.0002V31Z" fill="#3D9AE2"/>
<path d="M37.0002 35H28.0002V37H37.0002V35Z" fill="#3D9AE2"/>
<path d="M46.0002 44H28.0002V46H46.0002V44Z" fill="#3D9AE2"/>
<path d="M46.0002 48H28.0002V50H46.0002V48Z" fill="#3D9AE2"/>
</svg>
