<svg width="64" height="64" viewBox="0 0 64 64" fill="none" xmlns="http://www.w3.org/2000/svg">
<path d="M59.7235 62.934V38.1758L63.095 37.6669C63.3738 37.6247 63.6246 37.4733 63.7921 37.2459C63.9596 37.0184 64.0301 36.7336 63.9882 36.4541L58.9219 2.72144C58.795 1.88313 58.3416 1.12952 57.6611 0.625922C56.9807 0.122325 56.1287 -0.090131 55.2922 0.0351635L2.71545 7.97082C2.30107 8.03309 1.90301 8.17664 1.54402 8.39326C1.18503 8.60987 0.87215 8.89531 0.62328 9.23323C0.374409 9.57116 0.194427 9.95495 0.0936279 10.3627C-0.00717163 10.7704 -0.0268173 11.194 0.0358238 11.6093L2.17525 25.8543C1.58475 26.0926 1.07874 26.5024 0.72213 27.031C0.36552 27.5596 0.174583 28.183 0.173813 28.8212L0.173813 62.934C0.173813 63.2167 0.285851 63.4878 0.485271 63.6878C0.684696 63.8877 0.95517 64 1.2372 64L58.6601 64C58.9421 64 59.2126 63.8877 59.412 63.6878C59.6114 63.4878 59.7235 63.2167 59.7235 62.934ZM23.9472 25.6231C23.2125 25.3011 22.5039 24.9224 21.8276 24.4905C23.0471 23.0531 24.5197 21.8527 26.1722 20.9492L26.8741 25.6231H23.9472ZM34.1705 16.9237C32.0273 16.8587 29.8901 17.1834 27.8623 17.8818L27.1889 13.3975C29.1452 12.4405 31.3472 12.1082 33.4979 12.4452L34.1705 16.9237ZM35.7412 13.0607C37.0637 13.5834 38.2688 14.3657 39.2857 15.3617C40.3025 16.3576 41.1106 17.5473 41.6626 18.8606C39.9966 18.0006 38.2034 17.4149 36.3517 17.1261L35.7412 13.0607ZM25.8379 18.7233C24.1506 19.5512 22.6076 20.6464 21.2682 21.9668C21.4064 20.5436 21.8279 19.1626 22.5077 17.9055C23.1874 16.6484 24.1117 15.5407 25.2258 14.6478L25.8379 18.7233ZM29.025 25.6231L28.1848 20.0289C30.1993 19.2775 32.3468 18.9511 34.4929 19.0702L35.477 25.6231L29.025 25.6231ZM36.6858 19.3507C38.5425 19.7248 40.3142 20.4399 41.9114 21.46C40.6836 22.906 39.201 24.1134 37.5375 25.0218L36.6858 19.3507ZM40.5491 25.6231C41.217 25.1308 41.8493 24.5918 42.4414 24.0101C42.3888 24.5544 42.2938 25.0937 42.1574 25.6231H40.5491ZM51.6078 25.6231L49.5148 11.6876L47.4117 12.005L49.457 25.6231H44.3424C44.6591 24.1267 44.7031 22.5851 44.4722 21.073C44.2236 19.411 43.6508 17.8144 42.7865 16.3744C41.9221 14.9345 40.7832 13.6793 39.4349 12.6807C38.0865 11.6821 36.555 10.9597 34.928 10.5546C33.301 10.1496 31.6104 10.0699 29.9526 10.3201C28.2949 10.5704 26.7026 11.1456 25.2667 12.0129C23.8308 12.8803 22.5795 14.0227 21.5842 15.3751C20.5889 16.7274 19.8692 18.2631 19.4661 19.8944C19.0631 21.5257 18.9846 23.2206 19.2352 24.8823C19.2725 25.1305 19.3198 25.3773 19.3714 25.6231H15.0452L13.6043 16.0297L11.5011 16.3471L12.8943 25.6231H10.7436L9.08149 14.5562L6.97834 14.8736L8.59277 25.6231H4.29135L2.13897 11.2919C2.09724 11.0124 2.16785 10.7277 2.33532 10.5003C2.50278 10.2729 2.75341 10.1214 3.03218 10.0791L52.6358 2.59215C52.5969 2.79098 52.5771 2.99308 52.5768 3.1957C52.5769 3.35571 52.5888 3.5155 52.6126 3.67373L55.9092 25.6231H51.6078ZM58.1243 26.051L54.7157 3.35634C54.6743 3.07693 54.7449 2.79243 54.9122 2.56512C55.0796 2.33781 55.3299 2.1862 55.6084 2.14347L55.6089 2.14341V2.14339C55.8878 2.10164 56.1717 2.17247 56.3985 2.34034C56.6253 2.50821 56.7765 2.75941 56.8188 3.03883L61.7268 35.7173L59.7235 36.0197V28.8212C59.723 28.2593 59.575 27.7075 59.2943 27.2212C59.0135 26.7349 58.61 26.3313 58.1243 26.051ZM2.30058 61.8679L2.30058 28.8212C2.30091 28.5385 2.41304 28.2676 2.6124 28.0677C2.81175 27.8679 3.08204 27.7555 3.36397 27.7551L53.5261 27.7551C53.4049 28.0974 53.343 28.458 53.3431 28.8212V61.8679L2.30058 61.8679ZM55.4699 61.8679V28.8212C55.4699 28.5384 55.582 28.2673 55.7814 28.0674C55.9808 27.8675 56.2513 27.7551 56.5333 27.7551C56.8153 27.7551 57.0858 27.8675 57.2852 28.0674C57.4847 28.2673 57.5967 28.5384 57.5967 28.8212V61.8679H55.4699Z" fill="#3D9AE2"/>
<path d="M6.55411 33.0853V56.5378C6.55411 56.8205 6.66615 57.0917 6.86557 57.2916C7.06499 57.4915 7.33547 57.6038 7.6175 57.6038H24.6317C24.9137 57.6038 25.1842 57.4915 25.3836 57.2916C25.583 57.0917 25.6951 56.8205 25.6951 56.5378V33.0853C25.6951 32.8025 25.583 32.5314 25.3836 32.3315C25.1842 32.1315 24.9137 32.0192 24.6317 32.0192H7.6175C7.33547 32.0192 7.06499 32.1315 6.86557 32.3315C6.66615 32.5314 6.55411 32.8025 6.55411 33.0853ZM21.9214 50.4837L23.5683 54.611V55.4718H8.68088V54.611L10.3278 50.4837C10.3905 50.3272 10.4892 50.1877 10.616 50.0768C10.7428 49.9658 10.8939 49.8866 11.0571 49.8454L14.2557 49.0438C14.3979 49.0082 14.5311 48.9435 14.6472 48.8538C14.7632 48.7641 14.8595 48.6513 14.93 48.5226C15.0005 48.3938 15.0437 48.2519 15.0569 48.1056C15.0701 47.9593 15.053 47.8119 15.0067 47.6725L14.0525 44.8027C14.0163 44.694 13.9978 44.5801 13.9978 44.4655V41.0181C13.9976 40.7943 14.0677 40.5762 14.1983 40.3946C14.3288 40.2131 14.513 40.0773 14.7249 40.0067L18.2514 38.8283V44.4655C18.2514 44.5801 18.2329 44.694 18.1967 44.8027L17.2425 47.6725C17.1962 47.8119 17.1791 47.9593 17.1923 48.1056C17.2055 48.2519 17.2487 48.3938 17.3192 48.5226C17.3897 48.6513 17.486 48.7641 17.602 48.8538C17.718 48.9435 17.8513 49.0082 17.9934 49.0438L21.192 49.8454C21.3552 49.8865 21.5064 49.9658 21.6332 50.0768C21.7599 50.1877 21.8587 50.3272 21.9214 50.4837ZM23.5683 34.1513V49.0788C23.1277 48.4315 22.4659 47.9684 21.7079 47.777L19.6233 47.2546L20.2144 45.4769C20.323 45.1508 20.3782 44.8093 20.3781 44.4655V37.3494C20.3781 37.1804 20.3381 37.0139 20.2613 36.8636C20.1845 36.7132 20.0732 36.5833 19.9365 36.4845C19.7998 36.3858 19.6416 36.321 19.4751 36.2955C19.3085 36.2701 19.1383 36.2846 18.9784 36.338L14.0523 37.9841C13.4168 38.1959 12.864 38.603 12.4724 39.1476C12.0809 39.6923 11.8704 40.3467 11.871 41.0181V44.4655C11.8709 44.8093 11.9262 45.1508 12.0347 45.4769L12.6259 47.2546L10.5413 47.777C9.78332 47.9684 9.12151 48.4315 8.68088 49.0788V34.1513H23.5683Z" fill="#3D9AE2"/>
<path d="M36.3289 32.0192V34.1513H29.9485V32.0192H36.3289Z" fill="#3D9AE2"/>
<path d="M34.2021 37.3494V39.4814H29.9486V37.3494H34.2021Z" fill="#3D9AE2"/>
<path d="M49.0896 37.3494V39.4814H36.329V37.3494H49.0896Z" fill="#3D9AE2"/>
<path d="M34.2021 42.6794V44.8115H29.9486V42.6794H34.2021Z" fill="#3D9AE2"/>
<path d="M49.0896 42.6794V44.8115H36.329V42.6794H49.0896Z" fill="#3D9AE2"/>
<path d="M34.2021 48.0096V50.1416H29.9486V48.0096H34.2021Z" fill="#3D9AE2"/>
<path d="M49.0896 48.0096V50.1416H36.329V48.0096H49.0896Z" fill="#3D9AE2"/>
<path d="M34.2021 53.3397V55.4718H29.9486V53.3397H34.2021Z" fill="#3D9AE2"/>
<path d="M49.0896 53.3397V55.4718H36.329V53.3397H49.0896Z" fill="#3D9AE2"/>
</svg>
