<svg width="24" height="21" viewBox="0 0 24 21" fill="none" xmlns="http://www.w3.org/2000/svg">
<path d="M23.53 0.380418C23.1439 0.0266524 22.5952 -0.0912383 22.0978 0.0726836L0.995214 7.02898C0.420104 7.21854 0.0301044 7.73192 0.00165128 8.33675C-0.026755 8.94162 0.313323 9.48936 0.868042 9.73212L6.08687 12.0155C6.11232 12.1336 7.6105 19.0822 7.66145 19.3184C7.72684 19.6218 7.88082 19.892 8.20703 19.9751C8.53698 20.0592 8.77009 19.8788 9.01628 19.6945C9.15329 19.592 12.8891 16.7946 12.8891 16.7946L17.4167 20.4995C17.6804 20.7155 18.0027 20.828 18.3314 20.828C18.4878 20.828 18.6458 20.8025 18.7995 20.7504C19.276 20.5888 19.6292 20.1999 19.7444 19.7101L23.9616 1.78029C24.0814 1.27053 23.9162 0.734184 23.53 0.380418ZM9.35364 13.3239C9.35106 13.33 9.34853 13.3369 9.34614 13.3452L8.47314 16.3952L7.49889 11.8767L14.1981 8.15459L9.51432 13.052C9.44054 13.1292 9.38626 13.2224 9.35364 13.3239ZM9.63071 17.4735L10.0272 16.0881L10.4065 14.763L11.7654 15.8751L9.63071 17.4735ZM22.5894 1.45751L18.3723 19.3873C18.3702 19.3962 18.3674 19.4085 18.3468 19.4155C18.3264 19.4224 18.3164 19.4145 18.3094 19.4087L13.3551 15.3545C13.355 15.3545 13.3549 15.3543 13.3547 15.3542L11.0593 13.4758L18.4338 5.765C18.6747 5.51314 18.6953 5.12309 18.4824 4.84723C18.2693 4.57132 17.8867 4.49253 17.5822 4.66184L6.66259 10.7288L1.43307 8.44071C1.41714 8.43378 1.40837 8.42989 1.40964 8.40293C1.4109 8.37607 1.42 8.37303 1.4365 8.36759L22.5391 1.41134C22.5493 1.40801 22.5608 1.40417 22.5778 1.41964C22.5947 1.4352 22.5919 1.44701 22.5894 1.45751Z" fill="#3D9AE2"/>
</svg>
