<svg width="64" height="64" viewBox="0 0 64 64" fill="none" xmlns="http://www.w3.org/2000/svg">
<path d="M16.5925 10.6667H34.3703V12.8H16.5925V10.6667Z" fill="#3D9AE2"/>
<path d="M34.3704 51.2H37.9259V53.3333H34.3704V51.2Z" fill="#3D9AE2"/>
<path d="M18.9629 51.2H27.2592V53.3333H18.9629V51.2Z" fill="#3D9AE2"/>
<path d="M33.1851 55.4667H41.4814V57.6H33.1851V55.4667Z" fill="#3D9AE2"/>
<path d="M15.4075 55.4667H26.0741V57.6H15.4075V55.4667Z" fill="#3D9AE2"/>
<path d="M63.815 21.0555C63.7315 20.9373 63.6229 20.835 63.4955 20.7546C63.3681 20.6741 63.2243 20.617 63.0724 20.5866L56.8889 19.3473V1.06667C56.8889 0.78377 56.764 0.512461 56.5417 0.312422C56.3195 0.112384 56.018 2.82893e-06 55.7037 0H3.55556C2.61289 0.000959183 1.70914 0.338409 1.04258 0.938318C0.37601 1.53823 0.00106576 2.3516 0 3.2V60.8C0.00107828 61.6484 0.376027 62.4618 1.04259 63.0617C1.70915 63.6616 2.61289 63.999 3.55556 64H55.7037C56.018 64 56.3195 63.8876 56.5417 63.6876C56.764 63.4875 56.8889 63.2162 56.8889 62.9333V42.9656C57.493 42.8021 58.0379 42.4969 58.4676 42.0813C58.8974 41.6657 59.1966 41.1547 59.3345 40.6007L63.9716 21.8596C64.0055 21.7229 64.0091 21.5815 63.9822 21.4435C63.9553 21.3055 63.8985 21.1737 63.815 21.0555ZM3.55556 2.13333H54.5185V4.26667H3.55556C3.24122 4.26667 2.93977 4.15429 2.7175 3.95425C2.49524 3.75421 2.37037 3.4829 2.37037 3.2C2.37037 2.9171 2.49524 2.64579 2.7175 2.44575C2.93977 2.24571 3.24122 2.13333 3.55556 2.13333ZM2.37037 60.8V6.2165C2.7509 6.33809 3.15175 6.40015 3.55556 6.4H54.5185V18.8722L42.5194 16.4674C43.1394 16.068 43.6003 15.4998 43.8341 14.8467C44.0679 14.1936 44.0622 13.4902 43.8179 12.8402C43.5735 12.1902 43.1035 11.6281 42.4772 11.2369C41.8508 10.8457 41.1013 10.6461 40.3393 10.6675C39.5772 10.6889 38.843 10.9303 38.245 11.3559C37.647 11.7815 37.2169 12.3689 37.0181 13.0314C36.8194 13.6938 36.8625 14.3962 37.1411 15.0349C37.4198 15.6736 37.9192 16.2148 38.5656 16.5785L38.0774 18.5515C35.2104 16.8761 31.8628 15.9894 28.4444 16C26.0088 15.9993 23.599 16.4491 21.3645 17.3214C19.1299 18.1937 17.1184 19.4699 15.4547 21.0709C13.791 22.6719 12.5106 24.5635 11.6929 26.6284C10.8751 28.6933 10.5376 30.8873 10.7012 33.0745C10.8647 35.2616 11.5259 37.3952 12.6437 39.3428C13.7615 41.2904 15.312 43.0105 17.1991 44.3964C19.0862 45.7823 21.2696 46.8045 23.6138 47.3994C25.958 47.9944 28.4131 48.1495 30.8267 47.855L27.3597 61.8667H3.55556C3.24133 61.8663 2.94009 61.7539 2.7179 61.5539C2.49571 61.3539 2.37073 61.0828 2.37037 60.8ZM57.7494 37.1925C57.4073 36.9994 57.031 36.8604 56.6368 36.7815L52.0094 35.854L36.9704 32.8399L38.5411 26.4917L59.3644 30.6651L57.7494 37.1925ZM13.037 32C13.0366 30.9224 13.1758 29.8485 13.4519 28.8H20.6403C20.3017 30.9225 20.3017 33.0775 20.6403 35.2H13.4519C13.1758 34.1515 13.0366 33.0776 13.037 32ZM36.0694 26.6667H35.7821C34.9549 23.6481 33.4277 20.821 31.3007 18.3712C33.5509 18.7473 35.6777 19.5761 37.5221 20.7958L36.0694 26.6667ZM33.3314 26.6667H23.5496C24.4616 23.678 26.1372 20.9225 28.4425 18.62C30.7445 20.924 32.4184 23.6791 33.3314 26.6667ZM21.1002 26.6667H14.2229C15.2085 24.5487 16.7612 22.6831 18.7425 21.2363C20.7237 19.7895 23.0721 18.8065 25.578 18.375C23.4501 20.8224 21.9238 23.6487 21.1002 26.6667ZM21.1002 37.3333C21.9238 40.3513 23.4501 43.1776 25.578 45.625C23.0721 45.1935 20.7238 44.2105 18.7425 42.7637C16.7612 41.3169 15.2085 39.4513 14.2229 37.3333H21.1002ZM28.935 45.8586C26.3784 43.4653 24.5271 40.5347 23.5496 37.3333H33.4301L31.383 45.6069C30.5759 45.7501 29.7572 45.8343 28.935 45.8586ZM33.958 35.2H23.0388C22.6627 33.0801 22.6627 30.9199 23.0388 28.8H35.5416L33.958 35.2ZM40.4507 14.9339C40.2163 14.9339 39.9872 14.8713 39.7923 14.7541C39.5974 14.6369 39.4455 14.4703 39.3558 14.2754C39.2661 14.0805 39.2426 13.866 39.2883 13.6591C39.3341 13.4522 39.4469 13.2621 39.6127 13.1129C39.7784 12.9638 39.9896 12.8622 40.2195 12.821C40.4494 12.7799 40.6877 12.801 40.9043 12.8817C41.1208 12.9625 41.306 13.0992 41.4362 13.2746C41.5664 13.45 41.6359 13.6562 41.6359 13.8672C41.6356 14.15 41.5106 14.4211 41.2884 14.6211C41.0662 14.821 40.765 14.9335 40.4507 14.9339ZM29.7881 61.8667L33.374 47.3746C35.7945 46.7457 38.0391 45.6612 39.959 44.1929C41.8789 42.7246 43.4304 40.9061 44.5108 38.8577L42.3697 37.9423C40.6655 41.1495 37.6638 43.6492 33.9789 44.9299L36.4551 34.9222L50.3374 37.7045L49.5645 40.828C49.5307 40.9647 49.5271 41.1061 49.554 41.2441C49.5808 41.3821 49.6376 41.5139 49.7211 41.6322C49.8046 41.7504 49.9132 41.8526 50.0406 41.9331C50.168 42.0135 50.3118 42.0706 50.4638 42.101L54.5185 42.9137V61.8667H29.7881ZM55.6064 40.9462L52.1358 40.2507L52.651 38.1682L56.1215 38.8638C56.4283 38.9253 56.6955 39.0939 56.8641 39.3327C57.0328 39.5714 57.0892 39.8607 57.0209 40.1368C56.9525 40.413 56.7652 40.6534 56.4999 40.8052C56.2346 40.957 55.9132 41.0077 55.6064 40.9462H55.6064ZM59.8796 28.5828L39.0564 24.4094L40.5771 18.2636L61.4003 22.437L59.8796 28.5828Z" fill="#3D9AE2"/>
</svg>
