<svg width="64" height="64" viewBox="0 0 64 64" fill="none" xmlns="http://www.w3.org/2000/svg">
<path d="M12.2964 17.0667H10.1631V19.2H12.2964V17.0667Z" fill="#3D9AE2"/>
<path d="M5.33344 23.4669H17.1263C18.1174 23.4702 19.0897 23.1958 19.9328 22.6747C20.7759 22.1536 21.4562 21.4067 21.8964 20.5188C22.2649 19.7776 22.4566 18.9612 22.4566 18.1336C22.4566 17.3059 22.2649 16.4895 21.8964 15.7484L20.4408 12.8373C20.1292 12.2098 19.6963 11.6503 19.167 11.1912C18.6377 10.7321 18.0226 10.3825 17.3573 10.1628L13.9587 9.02991L14.7799 7.79801C15.2479 7.0975 15.4973 6.27379 15.4964 5.43135V4.2669C15.4964 3.13531 15.0469 2.05007 14.2468 1.24992C13.4466 0.449766 12.3614 0.000244141 11.2298 0.000244141C10.0982 0.000244141 9.01295 0.449766 8.2128 1.24992C7.41264 2.05007 6.96312 3.13531 6.96312 4.2669V5.43135C6.96227 6.27384 7.21171 7.09759 7.67979 7.79808L8.50101 9.02991L5.10258 10.1628C4.43725 10.3825 3.82211 10.732 3.29276 11.1911C2.76342 11.6502 2.33039 12.2097 2.01873 12.8373L0.563134 15.7485C0.194834 16.4896 0.00317383 17.306 0.00317383 18.1336C0.00317383 18.9612 0.194834 19.7776 0.563134 20.5188C1.00344 21.4067 1.68373 22.1536 2.52687 22.6747C3.37001 23.1958 4.34228 23.4702 5.33344 23.4669ZM15.4964 21.3335H6.96313V14.9335H15.4964V21.3335ZM19.9884 19.5646C19.7623 20.0204 19.43 20.4153 19.0196 20.7161C18.6092 21.0169 18.1326 21.2147 17.6298 21.293V18.9664L20.3198 18.2939C20.2985 18.7358 20.1856 19.1685 19.9884 19.5646ZM9.09646 4.2669C9.09646 3.70111 9.32122 3.15849 9.72129 2.75841C10.1214 2.35833 10.664 2.13357 11.2298 2.13357C11.7956 2.13357 12.3382 2.35833 12.7383 2.75841C13.1384 3.15849 13.3631 3.70111 13.3631 4.2669V5.43135C13.3636 5.85257 13.2389 6.26443 13.0049 6.61468L11.409 9.00849C11.2928 9.18274 11.2305 9.38734 11.2298 9.59677C11.2291 9.38736 11.1668 9.18279 11.0506 9.00856L9.45479 6.61462C9.22078 6.2644 9.09606 5.85256 9.09646 5.43135V4.2669ZM3.9268 13.7914C4.11379 13.4148 4.37362 13.0791 4.69124 12.8036C5.00886 12.5282 5.37797 12.3185 5.77719 12.1866L10.5005 10.6121C10.7123 10.5416 10.8966 10.4063 11.0275 10.2254C11.1583 10.0445 11.2291 9.82706 11.2298 9.6038C11.2305 9.82706 11.3013 10.0445 11.4321 10.2254C11.563 10.4063 11.7473 10.5416 11.9591 10.6121L16.6825 12.1866C17.0817 12.3184 17.4508 12.5282 17.7684 12.8036C18.086 13.079 18.3458 13.4148 18.5328 13.7913L19.7552 16.236L17.6298 16.7674V13.8669C17.6298 13.584 17.5174 13.3127 17.3174 13.1126C17.1173 12.9126 16.846 12.8002 16.5631 12.8002H5.89647C5.61357 12.8002 5.34227 12.9126 5.14223 13.1126C4.94219 13.3127 4.82981 13.584 4.82981 13.8669V16.7674L2.70442 16.236L3.9268 13.7914ZM4.8298 18.9664V21.293C4.10489 21.1787 3.44154 20.8181 2.95154 20.2717C2.46155 19.7254 2.17487 19.0269 2.13983 18.2939L4.8298 18.9664Z" fill="#3D9AE2"/>
<path d="M53.8369 57.5999H51.7036V59.7332H53.8369V57.5999Z" fill="#3D9AE2"/>
<path d="M61.9813 53.3702C61.6697 52.7427 61.2366 52.1832 60.7073 51.7242C60.178 51.2651 59.5629 50.9156 58.8976 50.6958L55.499 49.5629L56.3203 48.3312C56.7883 47.6307 57.0378 46.8069 57.0369 45.9644V44.7999C57.0369 43.6683 56.5874 42.5831 55.7873 41.7829C54.9871 40.9828 53.9019 40.5333 52.7703 40.5333C51.6387 40.5333 50.5534 40.9828 49.7533 41.7829C48.9531 42.5831 48.5036 43.6683 48.5036 44.7999V45.9644C48.5028 46.8069 48.7522 47.6306 49.2201 48.3312L50.0414 49.5629L46.6428 50.6958C45.9775 50.9156 45.3624 51.2651 44.8331 51.7242C44.3038 52.1832 43.8708 52.7427 43.5592 53.3703L42.1036 56.2813C41.7352 57.0225 41.5435 57.8389 41.5435 58.6666C41.5435 59.4942 41.7352 60.3106 42.1036 61.0518C42.5439 61.9398 43.2242 62.6866 44.0673 63.2077C44.9104 63.7288 45.8827 64.0032 46.8738 63.9999H58.6666C59.6578 64.0032 60.6301 63.7288 61.4732 63.2077C62.3164 62.6866 62.9966 61.9397 63.4369 61.0516C63.8052 60.3105 63.9969 59.4941 63.9969 58.6665C63.9969 57.8389 63.8052 57.0225 63.4369 56.2814L61.9813 53.3702ZM50.6369 44.7999C50.6369 44.2341 50.8617 43.6915 51.2618 43.2914C51.6619 42.8914 52.2045 42.6666 52.7703 42.6666C53.3361 42.6666 53.8787 42.8914 54.2788 43.2914C54.6788 43.6915 54.9036 44.2341 54.9036 44.7999V45.9644C54.904 46.3856 54.7793 46.7975 54.5453 47.1478L52.9494 49.5416C52.8333 49.7158 52.7709 49.9204 52.7703 50.1298C52.7696 49.9204 52.7073 49.7158 52.5911 49.5415L50.9951 47.1478C50.7612 46.7975 50.6365 46.3856 50.6369 45.9644V44.7999ZM46.3703 61.8261C45.6454 61.7117 44.982 61.351 44.492 60.8047C44.002 60.2584 43.7153 59.5599 43.6802 58.8269L46.3703 59.4994V61.8261ZM57.0369 61.8665H48.5036V55.4666H57.0369V61.8665ZM58.1036 53.3332H47.4369C47.154 53.3332 46.8827 53.4456 46.6827 53.6457C46.4827 53.8457 46.3703 54.117 46.3703 54.3999V57.3004L44.2449 56.769L45.4673 54.3242C45.6543 53.9477 45.9141 53.612 46.2317 53.3366C46.5493 53.0612 46.9184 52.8515 47.3175 52.7196L52.041 51.1452C52.2528 51.0746 52.4371 50.9393 52.568 50.7584C52.6988 50.5775 52.7696 50.3601 52.7703 50.1368C52.771 50.3601 52.8418 50.5775 52.9726 50.7584C53.1034 50.9393 53.2878 51.0746 53.4996 51.1452L58.223 52.7196C58.6222 52.8515 58.9913 53.0612 59.3089 53.3367C59.6265 53.6121 59.8863 53.9478 60.0733 54.3243L61.2957 56.769L59.1703 57.3004V54.3999C59.1703 54.117 59.0579 53.8457 58.8578 53.6457C58.6578 53.4456 58.3865 53.3332 58.1036 53.3332ZM61.5289 60.0976C61.3027 60.5534 60.9705 60.9483 60.5601 61.2491C60.1497 61.5499 59.673 61.7477 59.1703 61.826V59.4994L61.8602 58.8269C61.8389 59.2688 61.7261 59.7015 61.5289 60.0976Z" fill="#3D9AE2"/>
<path d="M36.6152 61.5108C37.5701 60.8784 38.4915 60.2073 39.3705 59.4956L38.028 57.8377C36.884 58.7612 35.681 59.6094 34.4268 60.3767C36.2408 56.3972 37.6679 52.2526 38.6885 47.9999H45.8667V45.8666H39.1637C40.0335 41.6535 40.5049 37.368 40.5719 33.0666H50.1755C50.1245 34.7913 49.9423 36.5095 49.6304 38.2065L51.7283 38.5934C52.0638 36.7688 52.2582 34.9211 52.3096 33.0666H61.8463C61.7074 37.3531 60.6357 41.5579 58.7056 45.3878L60.6119 46.3454C62.9805 41.6096 64.1398 36.3612 63.9866 31.0684C63.8333 25.7756 62.3721 20.603 59.7333 16.0123V16H59.7261C58.3221 13.5785 56.6081 11.3506 54.6275 9.3726C49.8936 4.64161 43.7964 1.51267 37.1926 0.425426C30.5888 -0.661822 23.8103 0.347262 17.8096 3.31089L18.7567 5.22235C21.474 3.87217 24.3835 2.94959 27.3824 2.48722C24.669 4.27828 22.2183 6.43864 20.1011 8.906L21.7211 10.2939C23.9736 7.67156 26.6239 5.41921 29.5751 3.61915C25.665 12.2027 23.5722 21.5022 23.4282 30.9333H13.8246C13.8756 29.2086 14.0578 27.4904 14.3697 25.7934L12.2718 25.4065C11.9363 27.2311 11.7419 29.0788 11.6905 30.9333H2.15457C2.21398 29.2141 2.42106 27.5033 2.77352 25.8196L0.685762 25.3804C0.229366 27.5573 -0.000418068 29.7757 8.53312e-05 32C-0.0129121 37.6122 1.45911 43.1279 4.26675 47.9874V47.9999H4.27404C5.67812 50.4214 7.39215 52.6493 9.37273 54.6273C12.3373 57.6081 15.8636 59.9713 19.7476 61.5801C23.6315 63.1889 27.7961 64.0114 32 63.9999C34.603 64.001 37.1964 63.6859 39.7233 63.0614L39.2101 60.9907C38.3548 61.2027 37.4899 61.3761 36.6152 61.5108ZM40.5719 30.9333C40.5049 26.6319 40.0335 22.3464 39.1637 18.1333H47.2457C49.0445 22.1691 50.0392 26.5168 50.174 30.9333H40.5719ZM61.8459 30.9333H52.3077C52.1796 26.5358 51.2516 22.1983 49.5693 18.1333H58.4668C60.5428 22.091 61.6979 26.4666 61.8459 30.9333ZM53.1189 10.8811C54.6721 12.4324 56.051 14.1489 57.2311 16H48.5962C45.8674 10.5163 41.734 5.8539 36.617 2.48754C42.8727 3.45187 48.6554 6.39321 53.1189 10.8811ZM46.1922 16H38.6885C37.6677 11.7464 36.2401 7.6008 34.4256 3.62051C39.3766 6.62997 43.4378 10.9026 46.1922 16ZM32 3.46493C33.9154 7.48141 35.4201 11.6811 36.4914 16H27.5087C28.58 11.6811 30.0847 7.48141 32 3.46493ZM27.016 18.1333H36.9841C37.8823 22.3428 38.3694 26.6296 38.4384 30.9333H25.5616C25.6307 26.6296 26.1178 22.3428 27.016 18.1333ZM38.4384 33.0666C38.3694 37.3703 37.8823 41.6571 36.9841 45.8666H27.016C26.1178 41.6571 25.6307 37.3703 25.5616 33.0666H38.4384ZM23.4282 33.0666C23.4952 37.368 23.9666 41.6535 24.8364 45.8666H16.7544C14.9556 41.8308 13.9609 37.4831 13.8261 33.0666H23.4282ZM2.15422 33.0666H11.6924C11.8205 37.4641 12.7484 41.8016 14.4308 45.8666H5.53328C3.45726 41.9089 2.30216 37.5333 2.15422 33.0666ZM10.8812 53.1188C9.32801 51.5674 7.94909 49.851 6.76899 47.9999H15.4039C18.1326 53.4836 22.266 58.146 27.3831 61.5124C21.1274 60.548 15.3446 57.6067 10.8812 53.1188ZM17.8079 47.9999H25.3116C26.3324 52.2535 27.7599 56.3991 29.5745 60.3794C24.6234 57.3699 20.5623 53.0973 17.8079 47.9999ZM27.5087 47.9999H36.4914C35.4201 52.3188 33.9154 56.5185 32 60.535C30.0847 56.5185 28.58 52.3188 27.5087 47.9999Z" fill="#3D9AE2"/>
</svg>
