<svg width="64" height="64" viewBox="0 0 64 64" fill="none" xmlns="http://www.w3.org/2000/svg">
<path d="M40 6H24V8H40V6Z" fill="#3D9AE2"/>
<path d="M17 11V31C17 31.2652 17.1054 31.5196 17.2929 31.7071C17.4804 31.8946 17.7348 32 18 32H46C46.2652 32 46.5196 31.8946 46.7071 31.7071C46.8946 31.5196 47 31.2652 47 31V11C47 10.7348 46.8946 10.4804 46.7071 10.2929C46.5196 10.1054 46.2652 10 46 10H18C17.7348 10 17.4804 10.1054 17.2929 10.2929C17.1054 10.4804 17 10.7348 17 11ZM19 16H35V30H19V16ZM37 30V16H45V30H37ZM45 14H37V12H45V14ZM35 12V14H19V12H35Z" fill="#3D9AE2"/>
<path d="M32 18H21V20H32V18Z" fill="#3D9AE2"/>
<path d="M28 22H21V24H28V22Z" fill="#3D9AE2"/>
<path d="M43 18H39V20H43V18Z" fill="#3D9AE2"/>
<path d="M43 22H39V24H43V22Z" fill="#3D9AE2"/>
<path d="M30 26H21V28H30V26Z" fill="#3D9AE2"/>
<path d="M43 26H39V28H43V26Z" fill="#3D9AE2"/>
<path d="M57 2H15C13.6744 2.00151 12.4035 2.52877 11.4661 3.46613C10.5288 4.40349 10.0015 5.67438 10 7V35H12V7C12.0009 6.20463 12.3173 5.44209 12.8797 4.87967C13.4421 4.31726 14.2046 4.0009 15 4H53.0028C52.351 4.86424 51.9989 5.91753 52 7V32H54V10H61C61.2652 10 61.5196 9.89464 61.7071 9.7071C61.8946 9.51957 62 9.26522 62 9V7C61.9985 5.67438 61.4712 4.40349 60.5339 3.46613C59.5965 2.52877 58.3256 2.00151 57 2ZM60 8H54V7C54 6.20435 54.3161 5.44129 54.8787 4.87868C55.4413 4.31607 56.2043 4 57 4C57.7957 4 58.5587 4.31607 59.1213 4.87868C59.6839 5.44129 60 6.20435 60 7V8Z" fill="#3D9AE2"/>
<path d="M61.2169 35.0238L59.9571 34.7439C54.7145 33.5833 49.2655 33.7457 44.1014 35.2167L40.9973 36.1036C34.5504 37.9339 27.6795 37.5825 21.4529 35.1041L21.3719 35.0716C21.2201 35.0109 21.0558 34.9882 20.8933 35.0057C20.7307 35.0231 20.575 35.0801 20.4396 35.1717C20.3042 35.2634 20.1933 35.3868 20.1167 35.5312C20.0401 35.6755 20 35.8365 20 36V38.9279C18.2055 37.7406 15.3448 37 12 37C6.29907 37 2 39.1495 2 42C2 42.922 2.45203 43.7699 3.25357 44.4962C2.43744 45.2366 2 46.0961 2 47C2 47.922 2.45203 48.7699 3.25357 49.4962C2.43744 50.2366 2 51.0961 2 52C2 52.922 2.45203 53.7699 3.25357 54.4962C2.43744 55.2366 2 56.0961 2 57C2 59.8505 6.29907 62 12 62C15.6004 62 18.6401 61.1421 20.3925 59.7922C20.4644 59.8482 20.5437 59.8939 20.6281 59.9283L20.7097 59.9609C27.3479 62.6035 34.6735 62.9782 41.5467 61.0267L44.6508 60.1398C49.4946 58.7599 54.6058 58.6075 59.5233 59.6963L60.7831 59.9762C60.9293 60.0087 61.0809 60.0079 61.2267 59.974C61.3726 59.94 61.5089 59.8737 61.6257 59.78C61.7425 59.6863 61.8368 59.5676 61.9016 59.4326C61.9664 59.2976 62 59.1497 62 59V36C62 35.7725 61.9224 35.5517 61.78 35.3743C61.6377 35.1968 61.439 35.0732 61.2169 35.0238ZM6.04217 40.0854C7.617 39.3855 9.73285 39 12 39C16.8835 39 20 40.7768 20 42C20 42.6211 19.2175 43.3547 17.9578 43.9145C16.383 44.6145 14.2672 45 12 45C7.11646 45 4 43.2231 4 42C4 41.3789 4.78253 40.6453 6.04217 40.0854ZM12 47C14.7686 47 17.2046 46.4919 18.9801 45.6439C19.6339 46.0887 20 46.5691 20 47C20 47.6211 19.2175 48.3547 17.9578 48.9145C16.383 49.6145 14.2672 50 12 50C7.11646 50 4 48.2231 4 47C4 46.5691 4.3661 46.0887 5.01987 45.6439C6.79539 46.4919 9.23135 47 12 47ZM12 52C14.7686 52 17.2046 51.4919 18.9801 50.6439C19.6339 51.0887 20 51.5691 20 52C20 52.6211 19.2175 53.3547 17.9578 53.9145C16.383 54.6145 14.2672 55 12 55C7.11646 55 4 53.2231 4 52C4 51.5691 4.3661 51.0887 5.01987 50.6439C6.79539 51.4919 9.23135 52 12 52ZM17.9578 58.9145C16.383 59.6145 14.2672 60 12 60C7.11646 60 4 58.2231 4 57C4 56.5691 4.3661 56.0887 5.01987 55.6439C6.79539 56.4919 9.23135 57 12 57C14.7686 57 17.2046 56.4919 18.9801 55.6439C19.6339 56.0887 20 56.5691 20 57C20 57.6211 19.2175 58.3547 17.9578 58.9145ZM60 57.7534L59.9571 57.7439C54.7145 56.5832 49.2655 56.7457 44.1014 58.2167L40.9973 59.1036C34.7436 60.8787 28.0855 60.6029 22 58.3168V37.4448C28.3005 39.6453 35.1265 39.8485 41.5467 38.0267L44.6508 37.1398C49.4947 35.7599 54.6058 35.6075 59.5233 36.6963L60 36.8022V57.7534Z" fill="#3D9AE2"/>
<path d="M27.1819 48.7866L26.8181 50.7532C28.1821 51.0052 29.5609 51.1694 30.946 51.2446L31.054 49.2476C29.7548 49.177 28.4614 49.023 27.1819 48.7866Z" fill="#3D9AE2"/>
<path d="M54.9348 48.0644L55.0652 46.0686C53.6907 45.9792 52.3119 45.9775 50.9373 46.0636L51.0627 48.0597C52.3522 47.9788 53.6455 47.9803 54.9348 48.0644Z" fill="#3D9AE2"/>
<path d="M24.386 40.5422C24.2658 40.6357 24.1686 40.7554 24.1017 40.8922C24.0348 41.029 24 41.1793 24 41.3315V47H26V42.5907C27.9668 43.0073 29.9681 43.2393 31.978 43.2838L32.022 41.2843C29.7357 41.2337 27.4626 40.9243 25.246 40.3623C25.0984 40.3249 24.9442 40.3216 24.7952 40.3528C24.6461 40.384 24.5062 40.4488 24.386 40.5422Z" fill="#3D9AE2"/>
<path d="M57.1293 38.2705C54.7336 37.9588 52.3104 37.9167 49.9053 38.1452L50.0948 40.1361C52.0591 39.9495 54.0369 39.9551 56.0001 40.1531V44H58.0001V39.2621C58.0001 39.0193 57.9117 38.7848 57.7515 38.6023C57.5913 38.4198 57.3701 38.3019 57.1293 38.2705Z" fill="#3D9AE2"/>
<path d="M56.0001 53.1436C53.973 52.9521 51.9323 52.9526 49.9053 53.1451L50.0948 55.1361C52.3508 54.9217 54.6237 54.9611 56.8708 55.2537C57.0118 55.2721 57.1552 55.2602 57.2913 55.2188C57.4274 55.1774 57.553 55.1074 57.6599 55.0135C57.7668 54.9197 57.8524 54.8041 57.9111 54.6745C57.9698 54.5449 58.0001 54.4043 58.0001 54.2621V49H56.0001V53.1436Z" fill="#3D9AE2"/>
<path d="M26 52H24V56.3315C24 56.5539 24.0742 56.77 24.2107 56.9455C24.3473 57.1211 24.5385 57.2461 24.754 57.3008C27.1172 57.9001 29.5406 58.2299 31.978 58.2838L32.022 56.2843C29.9949 56.2394 27.9775 55.9912 26 55.5433V52Z" fill="#3D9AE2"/>
<path d="M41 41C39.4178 41 37.871 41.4692 36.5554 42.3482C35.2399 43.2273 34.2145 44.4767 33.609 45.9385C33.0035 47.4003 32.845 49.0089 33.1537 50.5607C33.4624 52.1126 34.2243 53.538 35.3432 54.6569C36.462 55.7757 37.8874 56.5376 39.4393 56.8463C40.9911 57.155 42.5997 56.9965 44.0615 56.391C45.5233 55.7855 46.7727 54.7602 47.6518 53.4446C48.5308 52.129 49 50.5823 49 49C48.9976 46.879 48.154 44.8456 46.6542 43.3458C45.1544 41.846 43.121 41.0024 41 41ZM41 55C39.8133 55 38.6533 54.6481 37.6666 53.9888C36.6799 53.3295 35.9109 52.3925 35.4567 51.2961C35.0026 50.1997 34.8838 48.9933 35.1153 47.8295C35.3468 46.6656 35.9182 45.5965 36.7574 44.7574C37.5965 43.9182 38.6656 43.3468 39.8295 43.1153C40.9933 42.8838 42.1997 43.0026 43.2961 43.4567C44.3925 43.9108 45.3295 44.6799 45.9888 45.6666C46.6481 46.6533 47 47.8133 47 49C46.9982 50.5907 46.3655 52.1158 45.2407 53.2407C44.1158 54.3655 42.5908 54.9982 41 55Z" fill="#3D9AE2"/>
<path d="M42.1055 44.5528L38.1055 52.5528L39.8943 53.4472L43.8943 45.4472L42.1055 44.5528Z" fill="#3D9AE2"/>
<path d="M40 45H38V47H40V45Z" fill="#3D9AE2"/>
<path d="M44 51H42V53H44V51Z" fill="#3D9AE2"/>
</svg>
