<svg width="64" height="64" viewBox="0 0 64 64" fill="none" xmlns="http://www.w3.org/2000/svg">
<path d="M50.9999 30.801V3C50.9999 2.73478 50.8945 2.48043 50.707 2.2929C50.5194 2.10536 50.2651 2 49.9999 2H15.9999C15.2045 2.0009 14.442 2.31726 13.8796 2.87967C13.3171 3.44209 13.0008 4.20463 12.9999 5V24.5193L9.8764 27.0182C9.28952 27.4854 8.81588 28.0793 8.49092 28.7554C8.16596 29.4315 7.99809 30.1723 7.99988 30.9225V40.6243L1.24731 48.3416L2.75244 49.6584L9.75244 41.6584C9.91197 41.4762 9.99989 41.2422 9.99988 41V30.9225C9.99879 30.4724 10.0995 30.0279 10.2945 29.6222C10.4895 29.2166 10.7737 28.8603 11.1258 28.58L12.9999 27.0807V40C12.9999 40.2111 13.0667 40.4168 13.1908 40.5877C13.3149 40.7585 13.4899 40.8856 13.6906 40.9509C13.8914 41.0162 14.1077 41.0163 14.3085 40.9511C14.5094 40.8859 14.6844 40.7589 14.8086 40.5881L22.2117 30.4089L22.3727 30.5297C22.9859 30.9899 23.3998 31.6675 23.5292 32.4232C23.6587 33.179 23.494 33.9556 23.0689 34.5938L21.1678 37.4453C21.085 37.5695 21.0311 37.7107 21.0099 37.8585L20.825 39.1531C20.5962 40.7534 19.983 42.2744 19.0377 43.5858C18.0925 44.8973 16.8435 45.96 15.3976 46.6831L12.5527 48.1056C12.386 48.1889 12.2459 48.3172 12.1482 48.476L4.14819 61.476L5.85157 62.524L12.9999 50.9081V59C13.0008 59.7954 13.3172 60.5579 13.8796 61.1203C14.442 61.6827 15.2045 61.9991 15.9999 62H45.9999C49.8045 62 53.4846 60.6442 56.3799 58.1759C59.2752 55.7076 61.1962 52.2884 61.7983 48.5317C62.4003 44.7751 61.644 40.9268 59.665 37.6773C57.6861 34.4279 54.6139 31.99 50.9999 30.801ZM15.9999 4H48.9999V6H15.9999C15.7347 6 15.4803 5.89464 15.2928 5.70711C15.1052 5.51957 14.9999 5.26522 14.9999 5C14.9999 4.73478 15.1052 4.48043 15.2928 4.29289C15.4803 4.10536 15.7347 4 15.9999 4ZM19.9999 24V24.0014C19.3381 25.5847 18.9982 27.2839 18.9999 29C18.9998 29.7255 19.0599 30.4498 19.1796 31.1654L19.1898 31.1637L14.9999 36.9248V7.82797C15.321 7.94196 15.6592 8.00014 15.9999 8H48.9999V30.2833C48.011 30.0948 47.0066 30 45.9999 30C45.6517 30 45.3044 30.0115 44.9581 30.0346C44.9852 29.6906 44.9999 29.345 44.9999 29C45.0016 27.2839 44.6617 25.5847 43.9999 24.0014V24H43.9993C43.0123 21.6309 41.3461 19.607 39.2107 18.1834C37.0754 16.7597 34.5663 16 31.9999 16C29.4334 16 26.9244 16.7597 24.789 18.1834C22.6536 19.607 20.9874 21.6309 20.0005 24H19.9999ZM37.7478 26H42.584C42.8607 26.976 43.0006 27.9856 42.9999 29C42.9994 29.4343 42.9736 29.8682 42.9225 30.2996C41.3573 30.6045 39.8467 31.1422 38.4409 31.895L37.8045 31.6408C38.0803 29.7691 38.0611 27.8658 37.7478 26ZM26.7137 24H22.2033C22.937 22.5682 23.9747 21.3139 25.2438 20.3251C26.5129 19.3362 27.9828 18.6366 29.5505 18.2752C28.268 19.9972 27.307 21.9366 26.7137 24ZM32 18.4294C33.4324 20.0505 34.5206 21.9457 35.1984 24H28.8053C29.479 21.9446 30.5662 20.0489 32 18.4294ZM29.5484 39.722C27.4738 39.247 25.5813 38.181 24.0997 36.6531L24.733 35.7031C25.0784 35.1856 25.3237 34.6079 25.4564 34H26.7137C27.3067 36.0623 28.267 38.0007 29.5484 39.722ZM28.8053 34H30.9125L31.9374 38.3621C31.8103 38.5958 31.691 38.8332 31.576 39.0727C30.3493 37.5659 29.4101 35.8465 28.8053 34ZM31.3708 29.0713C31.2009 29.0035 31.0157 28.9835 30.8352 29.0136C30.6548 29.0438 30.4861 29.1228 30.3474 29.2422C30.2088 29.3615 30.1056 29.5166 30.049 29.6906C29.9923 29.8645 29.9845 30.0507 30.0264 30.2288L30.4426 32H28.2898C27.9139 30.0177 27.9139 27.9823 28.2898 26H35.7151C36.0201 27.607 36.0786 29.251 35.8884 30.8756L31.3708 29.0713ZM34.4458 18.2745C36.0142 18.6355 37.4848 19.335 38.7545 20.324C40.0243 21.313 41.0625 22.5676 41.7964 24H37.291C36.6932 21.9365 35.7295 19.9971 34.4458 18.2745ZM22.5999 28.2C22.4938 28.1204 22.373 28.0628 22.2445 28.0304C22.1159 27.9979 21.9822 27.9914 21.8512 28.0111C21.7201 28.0308 21.5942 28.0764 21.4809 28.1452C21.3676 28.214 21.2691 28.3047 21.1912 28.4119L21.0054 28.6674C21.0317 27.7647 21.1695 26.8688 21.4157 26H26.2585C25.9251 27.9861 25.9251 30.0139 26.2585 32H25.4835C25.2534 30.7734 24.5716 29.6777 23.5727 28.9296L22.5999 28.2ZM15.9999 60C15.7348 59.9997 15.4806 59.8942 15.2931 59.7068C15.1056 59.5193 15.0002 59.2651 14.9999 59V49.118L16.2921 48.4719C18.0271 47.6043 19.5259 46.3289 20.6602 44.7552C21.7945 43.1815 22.5304 41.3563 22.8049 39.4359L22.9578 38.366L22.9683 38.3502C25.0282 40.338 27.686 41.5912 30.5301 41.9157C30.1787 43.2487 30.0004 44.6214 29.9999 46H21.9999V48H30.1246C30.2966 49.3731 30.6475 50.7179 31.1684 52H18.9999V54H32.1477C33.6072 56.5149 35.7197 58.5881 38.2616 60H15.9999ZM45.9999 60C43.5437 59.9993 41.131 59.3526 39.0037 58.1249C36.8764 56.8971 35.1095 55.1315 33.8802 53.0051C32.6509 50.8788 32.0024 48.4665 31.9999 46.0103C31.9974 43.5542 32.6409 41.1406 33.8658 39.0117C33.9931 38.7913 34.0315 38.5307 33.9733 38.283L32.4127 31.641L38.1407 33.9287C38.2811 33.9848 38.4325 34.0083 38.5833 33.9975C38.7341 33.9866 38.8806 33.9417 39.0115 33.8661C40.872 32.7947 42.9539 32.1654 45.0963 32.027C47.2388 31.8887 49.3843 32.2448 51.3671 33.068C53.3499 33.8911 55.1169 35.1593 56.5314 36.7743C57.9459 38.3894 58.97 40.3081 59.5246 42.3821C60.0792 44.4561 60.1495 46.6299 59.7299 48.7354C59.3103 50.8409 58.4121 52.8217 57.1048 54.5247C55.7974 56.2276 54.116 57.6071 52.1904 58.5566C50.2649 59.506 48.1468 59.9998 45.9999 60Z" fill="#3D9AE2"/>
<path d="M55.7069 40.2928L52.7069 37.2928C52.5193 37.1053 52.265 37 51.9998 37C51.7346 37 51.4802 37.1053 51.2927 37.2928L41.9998 46.5858L38.7069 43.2928C38.5193 43.1053 38.265 43 37.9998 43C37.7346 43 37.4802 43.1053 37.2927 43.2928L34.2927 46.2928C34.1998 46.3856 34.1261 46.4959 34.0759 46.6172C34.0256 46.7386 33.9998 46.8686 33.9998 46.9999C33.9998 47.1313 34.0256 47.2613 34.0759 47.3826C34.1261 47.504 34.1998 47.6142 34.2927 47.7071L41.2927 54.7071C41.4802 54.8946 41.7346 54.9999 41.9998 54.9999C42.265 54.9999 42.5193 54.8946 42.7069 54.7071L55.7069 41.7071C55.7997 41.6142 55.8734 41.504 55.9237 41.3826C55.9739 41.2613 55.9998 41.1313 55.9998 40.9999C55.9998 40.8686 55.9739 40.7386 55.9237 40.6172C55.8734 40.4959 55.7997 40.3856 55.7069 40.2928ZM41.9998 52.5858L36.414 46.9999L37.9998 45.4141L41.2927 48.7071C41.4802 48.8946 41.7346 48.9999 41.9998 48.9999C42.265 48.9999 42.5193 48.8946 42.7069 48.7071L51.9998 39.4141L53.5855 40.9999L41.9998 52.5858Z" fill="#3D9AE2"/>
<path d="M41 10H23V12H41V10Z" fill="#3D9AE2"/>
</svg>
