<svg width="64" height="64" viewBox="0 0 64 64" fill="none" xmlns="http://www.w3.org/2000/svg">
<path d="M17 40H11V42H17V40Z" fill="#3D9AE2"/>
<path d="M17 45H11V47H17V45Z" fill="#3D9AE2"/>
<path d="M17 50H11V52H17V50Z" fill="#3D9AE2"/>
<path d="M17 55H11V57H17V55Z" fill="#3D9AE2"/>
<path d="M33 10C33.5933 10 34.1734 9.82405 34.6667 9.49441C35.1601 9.16477 35.5446 8.69623 35.7716 8.14805C35.9987 7.59987 36.0581 6.99667 35.9424 6.41473C35.8266 5.83279 35.5409 5.29824 35.1213 4.87868C34.7018 4.45912 34.1672 4.1734 33.5853 4.05765C33.0033 3.94189 32.4001 4.0013 31.8519 4.22836C31.3038 4.45543 30.8352 4.83994 30.5056 5.33329C30.1759 5.82664 30 6.40666 30 7C30.0009 7.79537 30.3173 8.55791 30.8797 9.12033C31.4421 9.68274 32.2046 9.9991 33 10ZM33 6C33.1978 6 33.3911 6.05865 33.5556 6.16853C33.72 6.27841 33.8482 6.43459 33.9239 6.61732C33.9996 6.80004 34.0194 7.00111 33.9808 7.19509C33.9422 7.38907 33.847 7.56726 33.7071 7.70711C33.5673 7.84696 33.3891 7.9422 33.1951 7.98079C33.0011 8.01937 32.8 7.99957 32.6173 7.92388C32.4346 7.84819 32.2784 7.72002 32.1685 7.55557C32.0586 7.39112 32 7.19778 32 7C32.0003 6.73488 32.1058 6.4807 32.2932 6.29323C32.4807 6.10576 32.7349 6.0003 33 6Z" fill="#3D9AE2"/>
<path d="M48 13C48.9889 13 49.9556 12.7068 50.7779 12.1573C51.6001 11.6079 52.241 10.827 52.6194 9.91342C52.9978 8.99979 53.0969 7.99446 52.9039 7.02455C52.711 6.05465 52.2348 5.16373 51.5355 4.46447C50.8363 3.76521 49.9454 3.289 48.9755 3.09608C48.0055 2.90315 47.0002 3.00217 46.0866 3.3806C45.173 3.75904 44.3921 4.39991 43.8427 5.22215C43.2932 6.0444 43 7.0111 43 8C43.0015 9.32562 43.5288 10.5965 44.4661 11.5339C45.4035 12.4712 46.6744 12.9985 48 13ZM48 5C48.5933 5 49.1734 5.17595 49.6667 5.50559C50.1601 5.83524 50.5446 6.30377 50.7716 6.85195C50.9987 7.40013 51.0581 8.00333 50.9424 8.58527C50.8266 9.16722 50.5409 9.70177 50.1213 10.1213C49.7018 10.5409 49.1672 10.8266 48.5853 10.9424C48.0033 11.0581 47.4001 10.9987 46.852 10.7716C46.3038 10.5446 45.8352 10.1601 45.5056 9.66671C45.1759 9.17337 45 8.59335 45 8C45.0009 7.20463 45.3173 6.4421 45.8797 5.87969C46.4421 5.31727 47.2046 5.00091 48 5Z" fill="#3D9AE2"/>
<path d="M17 8C17.5933 8 18.1734 7.82405 18.6667 7.49441C19.1601 7.16477 19.5446 6.69623 19.7716 6.14805C19.9987 5.59987 20.0581 4.99667 19.9424 4.41473C19.8266 3.83279 19.5409 3.29824 19.1213 2.87868C18.7018 2.45912 18.1672 2.1734 17.5853 2.05765C17.0033 1.94189 16.4001 2.0013 15.8519 2.22836C15.3038 2.45543 14.8352 2.83994 14.5056 3.33329C14.1759 3.82664 14 4.40666 14 5C14.0009 5.79537 14.3173 6.55791 14.8797 7.12033C15.4421 7.68274 16.2046 7.9991 17 8ZM17 4C17.1978 4 17.3911 4.05865 17.5556 4.16853C17.72 4.27841 17.8482 4.43459 17.9239 4.61732C17.9996 4.80004 18.0194 5.00111 17.9808 5.19509C17.9422 5.38907 17.847 5.56726 17.7071 5.70711C17.5673 5.84696 17.3891 5.9422 17.1951 5.98079C17.0011 6.01937 16.8 5.99957 16.6173 5.92388C16.4346 5.84819 16.2784 5.72002 16.1685 5.55557C16.0586 5.39112 16 5.19778 16 5C16.0003 4.73488 16.1058 4.4807 16.2932 4.29323C16.4807 4.10576 16.7349 4.0003 17 4Z" fill="#3D9AE2"/>
<path d="M53.1716 49C53.5657 49.0011 53.9561 48.924 54.3203 48.7732C54.6844 48.6223 55.015 48.4008 55.2929 48.1213L57.7074 45.7068C58.3462 46.012 59.0724 46.0816 59.7575 45.9031C60.4427 45.7247 61.0427 45.3098 61.4515 44.7317C61.8602 44.1537 62.0515 43.4497 61.9915 42.7443C61.9314 42.0389 61.6239 41.3774 61.1233 40.8767C60.6226 40.3761 59.9611 40.0686 59.2557 40.0085C58.5503 39.9485 57.8463 40.1398 57.2683 40.5486C56.6902 40.9574 56.2753 41.5573 56.0969 42.2425C55.9184 42.9276 55.988 43.6538 56.2932 44.2926L53.8787 46.707C53.7861 46.8002 53.6759 46.8741 53.5545 46.9244C53.4331 46.9747 53.303 47.0004 53.1716 47H50.9678C50.9883 46.6691 51 46.3359 51 46C50.9957 43.5791 50.4574 41.189 49.4236 39H54.1716C54.5657 39.0011 54.9561 38.924 55.3203 38.7732C55.6844 38.6223 56.015 38.4008 56.2929 38.1213L57.7074 36.7068C58.3462 37.012 59.0724 37.0816 59.7575 36.9031C60.4427 36.7247 61.0427 36.3098 61.4515 35.7317C61.8602 35.1537 62.0515 34.4497 61.9915 33.7443C61.9314 33.0389 61.6239 32.3774 61.1233 31.8767C60.6226 31.3761 59.9611 31.0686 59.2557 31.0086C58.5503 30.9485 57.8463 31.1398 57.2683 31.5486C56.6902 31.9574 56.2753 32.5573 56.0969 33.2425C55.9184 33.9276 55.988 34.6538 56.2932 35.2926L54.8787 36.707C54.7861 36.8002 54.6759 36.8741 54.5545 36.9244C54.4331 36.9747 54.303 37.0004 54.1716 37H48.3076C48.0609 36.6216 47.7985 36.2529 47.5203 35.8939L57.1213 26.293C57.4007 26.015 57.6223 25.6844 57.7731 25.3203C57.924 24.9562 58.0011 24.5658 58 24.1716V19.828C58.6672 19.5921 59.2296 19.1279 59.5876 18.5175C59.9457 17.9071 60.0765 17.1897 59.9568 16.4922C59.8371 15.7947 59.4747 15.162 58.9337 14.7059C58.3926 14.2497 57.7077 13.9995 57 13.9995C56.2923 13.9995 55.6074 14.2497 55.0663 14.7059C54.5253 15.162 54.1629 15.7947 54.0432 16.4922C53.9235 17.1897 54.0543 17.9071 54.4124 18.5175C54.7705 19.1279 55.3328 19.5921 56 19.828V24.1716C56.0004 24.303 55.9747 24.4331 55.9244 24.5545C55.8741 24.6759 55.8003 24.786 55.7071 24.8787L46.1964 34.3893C45.5001 33.687 44.741 33.0498 43.9286 32.4857L46.1213 30.293C46.4007 30.015 46.6223 29.6844 46.7731 29.3203C46.924 28.9562 47.0011 28.5658 47 28.1716V25.828C47.6672 25.5921 48.2296 25.1279 48.5876 24.5175C48.9457 23.9071 49.0765 23.1897 48.9568 22.4922C48.8371 21.7947 48.4747 21.162 47.9337 20.7059C47.3926 20.2497 46.7077 19.9995 46 19.9995C45.2923 19.9995 44.6074 20.2497 44.0663 20.7059C43.5253 21.162 43.1629 21.7947 43.0432 22.4922C42.9235 23.1897 43.0543 23.9071 43.4124 24.5175C43.7705 25.1279 44.3328 25.5921 45 25.828V28.1716C45.0004 28.303 44.9747 28.4331 44.9244 28.5545C44.8741 28.6759 44.8003 28.786 44.7071 28.8787L42.1625 31.4233C41.1565 30.902 40.0959 30.4936 39 30.2057V14H41V12H29V14H31V30.2058C26.7915 31.3055 23.1506 34.2217 21.0139 38.1378L18 31.7751V12H20V10H8V12H10V31.7981L2.73035 49.0635C2.13381 50.4803 1.89698 52.0226 2.04098 53.5531C2.18497 55.0836 2.70532 56.5547 3.55564 57.8354C4.40597 59.116 5.55988 60.1665 6.91456 60.8931C8.26925 61.6197 9.78263 62 11.3199 62H17.8359C19.2202 61.9998 20.5863 61.6855 21.8316 61.0809C23.0768 60.4762 24.1686 59.5969 25.0247 58.5091C27.7475 60.6822 31.1057 61.9062 34.5882 61.9948C38.0707 62.0834 41.4868 61.0318 44.3165 59H53.1716C53.5657 59.0011 53.9561 58.924 54.3203 58.7732C54.6844 58.6223 55.015 58.4008 55.2929 58.1213L57.7074 55.7068C58.3462 56.012 59.0724 56.0816 59.7575 55.9031C60.4427 55.7247 61.0427 55.3098 61.4515 54.7317C61.8602 54.1537 62.0515 53.4497 61.9915 52.7443C61.9314 52.0389 61.6239 51.3774 61.1233 50.8767C60.6226 50.3761 59.9611 50.0686 59.2557 50.0085C58.5503 49.9485 57.8463 50.1398 57.2683 50.5486C56.6902 50.9574 56.2753 51.5573 56.0969 52.2425C55.9184 52.9276 55.988 53.6538 56.2932 54.2926L53.8787 56.707C53.7861 56.8002 53.6759 56.8741 53.5545 56.9244C53.4331 56.9747 53.303 57.0004 53.1716 57H46.608C48.7156 54.7819 50.1417 52.0052 50.7167 49H53.1716ZM59 42C59.1978 42 59.3911 42.0586 59.5556 42.1685C59.72 42.2784 59.8482 42.4346 59.9239 42.6173C59.9996 42.8 60.0194 43.0011 59.9808 43.1951C59.9422 43.3891 59.847 43.5673 59.7071 43.7071C59.5673 43.847 59.3891 43.9422 59.1951 43.9808C59.0011 44.0194 58.8 43.9996 58.6173 43.9239C58.4346 43.8482 58.2784 43.72 58.1685 43.5556C58.0587 43.3911 58 43.1978 58 43C58.0003 42.7349 58.1058 42.4807 58.2932 42.2932C58.4807 42.1058 58.7349 42.0003 59 42ZM59 33C59.1978 33 59.3911 33.0586 59.5556 33.1685C59.72 33.2784 59.8482 33.4346 59.9239 33.6173C59.9996 33.8 60.0194 34.0011 59.9808 34.1951C59.9422 34.3891 59.847 34.5673 59.7071 34.7071C59.5673 34.847 59.3891 34.9422 59.1951 34.9808C59.0011 35.0194 58.8 34.9996 58.6173 34.9239C58.4346 34.8482 58.2784 34.72 58.1685 34.5556C58.0587 34.3911 58 34.1978 58 34C58.0003 33.7349 58.1058 33.4807 58.2932 33.2932C58.4807 33.1058 58.7349 33.0003 59 33ZM57 16C57.1978 16 57.3911 16.0586 57.5556 16.1685C57.72 16.2784 57.8482 16.4346 57.9239 16.6173C57.9996 16.8 58.0194 17.0011 57.9808 17.1951C57.9422 17.3891 57.847 17.5673 57.7071 17.7071C57.5673 17.847 57.3891 17.9422 57.1951 17.9808C57.0011 18.0194 56.8 17.9996 56.6173 17.9239C56.4346 17.8482 56.2784 17.72 56.1685 17.5556C56.0587 17.3911 56 17.1978 56 17C56.0003 16.7349 56.1058 16.4807 56.2932 16.2932C56.4807 16.1058 56.7349 16.0003 57 16ZM46 22C46.1978 22 46.3911 22.0586 46.5556 22.1685C46.72 22.2784 46.8482 22.4346 46.9239 22.6173C46.9996 22.8 47.0194 23.0011 46.9808 23.1951C46.9422 23.3891 46.847 23.5673 46.7071 23.7071C46.5673 23.847 46.3891 23.9422 46.1951 23.9808C46.0011 24.0194 45.8 23.9996 45.6173 23.9239C45.4346 23.8482 45.2784 23.72 45.1685 23.5556C45.0587 23.3911 45 23.1978 45 23C45.0003 22.7349 45.1058 22.4807 45.2932 22.2932C45.4807 22.1058 45.7349 22.0003 46 22ZM59 52C59.1978 52 59.3911 52.0586 59.5556 52.1685C59.72 52.2784 59.8482 52.4346 59.9239 52.6173C59.9996 52.8 60.0194 53.0011 59.9808 53.1951C59.9422 53.3891 59.847 53.5673 59.7071 53.7071C59.5673 53.847 59.3891 53.9422 59.1951 53.9808C59.0011 54.0194 58.8 53.9996 58.6173 53.9239C58.4346 53.8482 58.2784 53.72 58.1685 53.5556C58.0587 53.3911 58 53.1978 58 53C58.0003 52.7349 58.1058 52.4807 58.2932 52.2932C58.4807 52.1058 58.7349 52.0003 59 52ZM32.1989 31.98L33 31.8174V14H37V31.8174L37.8011 31.98C40.5474 32.5559 43.0515 33.9588 44.9769 36H25.0272C26.9522 33.9604 29.4545 32.5577 32.1989 31.98ZM12 32.2019V12H16V32.2249L16.8409 34H11.2429L12 32.2019ZM17.8359 60H11.3199C10.1125 60 8.9239 59.7013 7.85993 59.1306C6.79596 58.5599 5.88967 57.7349 5.22182 56.7291C4.55397 55.7233 4.14529 54.5678 4.03219 53.3658C3.91909 52.1637 4.10509 50.9524 4.57361 49.8396L10.4008 36H17.7882L24.3104 49.7689C24.8276 50.8609 25.0603 52.0659 24.9867 53.272C24.9132 54.478 24.5358 55.6458 23.8896 56.6668C23.2435 57.6878 22.3497 58.5288 21.2912 59.1116C20.2328 59.6944 19.0441 60 17.8359 60ZM35 60C31.7506 60.002 28.602 58.8716 26.0959 56.8032C26.6926 55.5658 27.0016 54.2095 27 52.8358C26.9981 51.4792 26.6968 50.1396 26.1179 48.9127L22.1136 40.4593C22.4727 39.5994 22.9134 38.7759 23.4295 38H46.5707C48.1471 40.3709 48.9919 43.1529 49 46C48.9958 49.7117 47.5195 53.2703 44.8949 55.8949C42.2703 58.5195 38.7117 59.9958 35 60Z" fill="#3D9AE2"/>
<path d="M21.7072 25.7071L24.5001 22.9142L27.293 25.7071L28.7072 24.2928L25.9143 21.5L28.7072 18.7071L27.293 17.2928L24.5001 20.0857L21.7072 17.2928L20.293 18.7071L23.0858 21.5L20.293 24.2928L21.7072 25.7071Z" fill="#3D9AE2"/>
<path d="M35 55V57C36.9303 56.9962 38.8258 56.4865 40.4976 55.5215C42.1694 54.5566 43.559 53.1703 44.5278 51.5007L42.7966 50.4993C42.0038 51.8655 40.8668 53.0001 39.4987 53.7898C38.1307 54.5795 36.5796 54.9968 35 55Z" fill="#3D9AE2"/>
<path d="M43.5881 48.7003L45.4962 49.2997C45.8311 48.2318 46.001 47.1191 46 46H44C44.0009 46.9158 43.862 47.8264 43.5881 48.7003Z" fill="#3D9AE2"/>
</svg>
