<svg width="64" height="64" viewBox="0 0 64 64" fill="none" xmlns="http://www.w3.org/2000/svg">
<path d="M55.1213 9.70704L48.2929 2.87867C48.015 2.59922 47.6844 2.37768 47.3202 2.22685C46.9561 2.07603 46.5657 1.99893 46.1716 2.00001H25C24.2046 2.00091 23.4421 2.31727 22.8797 2.87968C22.3173 3.4421 22.0009 4.20464 22 5.00001V8.00001H18C17.2046 8.00091 16.4421 8.31727 15.8797 8.87968C15.3173 9.4421 15.0009 10.2046 15 11V14H11C10.2046 14.0009 9.44209 14.3173 8.87967 14.8797C8.31726 15.4421 8.0009 16.2046 8 17V59C8.0009 59.7954 8.31726 60.5579 8.87967 61.1203C9.44209 61.6828 10.2046 61.9991 11 62H39C39.7954 61.9991 40.5579 61.6828 41.1203 61.1203C41.6827 60.5579 41.9991 59.7954 42 59V56H46C46.7954 55.9991 47.5579 55.6828 48.1203 55.1203C48.6827 54.5579 48.9991 53.7954 49 53V50H53C53.7954 49.9991 54.5579 49.6828 55.1203 49.1203C55.6827 48.5579 55.9991 47.7954 56 47V11.8284C56.0011 11.4343 55.924 11.0438 55.7731 10.6797C55.6223 10.3156 55.4007 9.98497 55.1213 9.70704ZM48 5.41426L52.5858 10H49C48.7349 9.99971 48.4807 9.89425 48.2932 9.70678C48.1058 9.51931 48.0003 9.26513 48 9.00001V5.41426ZM15 16H18V21.2338L16.5 20.3339L15 21.2338V16ZM40 59C39.9997 59.2651 39.8942 59.5193 39.7068 59.7068C39.5193 59.8943 39.2651 59.9997 39 60H11C10.7349 59.9997 10.4807 59.8943 10.2932 59.7068C10.1058 59.5193 10.0003 59.2651 10 59V17C10.0003 16.7349 10.1058 16.4807 10.2932 16.2932C10.4807 16.1058 10.7349 16.0003 11 16H13V24.7662L16.5 22.6661L20 24.7662V16H32V21C32.0009 21.7954 32.3173 22.5579 32.8797 23.1203C33.4421 23.6827 34.2046 23.9991 35 24H40V59ZM34 21V17.4143L38.5858 22H35C34.7349 21.9997 34.4807 21.8943 34.2932 21.7068C34.1058 21.5193 34.0003 21.2651 34 21ZM47 53C46.9997 53.2651 46.8942 53.5193 46.7068 53.7068C46.5193 53.8943 46.2651 53.9997 46 54H42V51H45V49H42V46H45V44H42V41H45V39H42V36H45V34H42V31H45V29H42V26H45V24H42V23.8284C42.0011 23.4343 41.924 23.0438 41.7731 22.6797C41.6223 22.3156 41.4007 21.985 41.1213 21.707L34.2929 14.8787C34.015 14.5992 33.6844 14.3777 33.3203 14.2269C32.9561 14.076 32.5657 13.9989 32.1716 14H17V11C17.0003 10.7349 17.1058 10.4807 17.2932 10.2932C17.4807 10.1058 17.7349 10.0003 18 10H39V15C39.0009 15.7954 39.3173 16.5579 39.8797 17.1203C40.4421 17.6827 41.2046 17.9991 42 18H47V53ZM41 15V11.4143L45.5858 16H42C41.7349 15.9997 41.4807 15.8943 41.2932 15.7068C41.1058 15.5193 41.0003 15.2651 41 15ZM54 47C53.9997 47.2651 53.8942 47.5193 53.7068 47.7068C53.5193 47.8943 53.2651 47.9997 53 48H49V45H52V43H49V40H52V38H49V35H52V33H49V30H52V28H49V25H52V23H49V20H52V18H49V17.8284C49.0011 17.4343 48.924 17.0438 48.7731 16.6797C48.6223 16.3156 48.4007 15.985 48.1213 15.707L41.2929 8.87868C41.015 8.59923 40.6844 8.37768 40.3203 8.22686C39.9561 8.07603 39.5657 7.99893 39.1716 8.00001H24V5.00001C24.0003 4.73489 24.1058 4.48071 24.2932 4.29324C24.4807 4.10577 24.7349 4.00031 25 4.00001H46V9.00001C46.0009 9.79538 46.3173 10.5579 46.8797 11.1203C47.4421 11.6827 48.2046 11.9991 49 12H54V47Z" fill="#3D9AE2"/>
<path d="M13 27H37V29H13V27Z" fill="#3D9AE2"/>
<path d="M13 31H37V33H13V31Z" fill="#3D9AE2"/>
<path d="M13 35H37V37H13V35Z" fill="#3D9AE2"/>
<path d="M13 49H37V39H13V49ZM15 41H35V47H15V41Z" fill="#3D9AE2"/>
<path d="M13 51H24V53H13V51Z" fill="#3D9AE2"/>
<path d="M13 55H37V57H13V55Z" fill="#3D9AE2"/>
</svg>
