<svg width="64" height="64" viewBox="0 0 64 64" fill="none" xmlns="http://www.w3.org/2000/svg">
<path d="M34.1332 53.3334C35.6099 53.3334 37.0535 52.8954 38.2814 52.075C39.5093 51.2545 40.4663 50.0884 41.0315 48.7241C41.5966 47.3597 41.7445 45.8584 41.4564 44.41C41.1683 42.9616 40.4571 41.6312 39.4129 40.587C38.3687 39.5427 37.0382 38.8316 35.5898 38.5435C34.1415 38.2554 32.6402 38.4033 31.2758 38.9684C29.9114 39.5335 28.7453 40.4905 27.9249 41.7184C27.1044 42.9463 26.6665 44.3899 26.6665 45.8667C26.6687 47.8463 27.4561 49.7442 28.8559 51.144C30.2557 52.5438 32.1536 53.3311 34.1332 53.3334ZM34.1332 40.5334C35.188 40.5334 36.2191 40.8462 37.0962 41.4322C37.9733 42.0182 38.6569 42.8512 39.0605 43.8257C39.4642 44.8003 39.5698 45.8726 39.364 46.9072C39.1582 47.9417 38.6503 48.892 37.9044 49.6379C37.1585 50.3838 36.2082 50.8918 35.1737 51.0975C34.1391 51.3033 33.0667 51.1977 32.0922 50.794C31.1177 50.3904 30.2847 49.7068 29.6987 48.8297C29.1126 47.9527 28.7998 46.9215 28.7998 45.8667C28.8015 44.4527 29.3639 43.0971 30.3637 42.0972C31.3636 41.0974 32.7192 40.535 34.1332 40.5334Z" fill="#3D9AE2"/>
<path d="M48.9777 49.7396L51.4489 49.147C51.6819 49.0911 51.8894 48.9584 52.0378 48.7702C52.1861 48.5821 52.2669 48.3494 52.2669 48.1098V43.6236C52.2669 43.3839 52.1862 43.1513 52.0378 42.9631C51.8894 42.7749 51.6819 42.6422 51.4489 42.5863L48.9778 41.9939C48.5794 41.8984 48.2093 41.7099 47.8977 41.4439C47.5861 41.1779 47.342 40.842 47.1851 40.4635C47.0283 40.085 46.9633 39.6748 46.9954 39.2664C47.0275 38.858 47.1558 38.463 47.3699 38.1137L48.7063 35.9327C48.8315 35.7284 48.8843 35.4879 48.8561 35.25C48.8279 35.0121 48.7205 34.7905 48.5511 34.6211L45.379 31.4492C45.2096 31.2799 44.9881 31.1724 44.7501 31.1443C44.5122 31.1161 44.2718 31.1689 44.0675 31.294L41.8865 32.6305C41.5372 32.8445 41.1422 32.9728 40.7338 33.0049C40.3254 33.037 39.9152 32.9719 39.5368 32.8151C39.1584 32.6583 38.8224 32.4141 38.5564 32.1025C38.2904 31.791 38.102 31.4209 38.0064 31.0225L37.4139 28.5513C37.358 28.3183 37.2253 28.1108 37.0371 27.9624C36.8489 27.8141 36.6163 27.7333 36.3766 27.7333H31.8904C31.6508 27.7333 31.4181 27.814 31.2299 27.9624C31.0418 28.1108 30.909 28.3183 30.8532 28.5513L30.2607 31.0224C30.1652 31.4208 29.9768 31.7909 29.7108 32.1025C29.4448 32.4141 29.1088 32.6582 28.7304 32.8151C28.3519 32.9719 27.9417 33.0369 27.5333 33.0048C27.1249 32.9727 26.7298 32.8444 26.3805 32.6303L24.1995 31.2939L23.085 33.1129L25.2658 34.4494C25.9022 34.8393 26.6219 35.0731 27.366 35.1316C28.1101 35.1901 28.8574 35.0717 29.5469 34.7859C30.2365 34.5002 30.8486 34.0553 31.3332 33.4877C31.8178 32.92 32.1612 32.2457 32.3352 31.5199L32.7316 29.8667H35.5355L35.932 31.5199C36.106 32.2457 36.4493 32.92 36.9339 33.4877C37.4185 34.0553 38.0306 34.5002 38.7201 34.7859C39.4096 35.0717 40.1569 35.1901 40.901 35.1317C41.6451 35.0732 42.3647 34.8394 43.0011 34.4495L44.4652 33.5523L46.448 35.535L45.5508 36.999C45.1609 37.6354 44.9271 38.355 44.8686 39.0991C44.8101 39.8432 44.9285 40.5906 45.2143 41.2801C45.5 41.9696 45.9449 42.5817 46.5125 43.0663C47.0802 43.5509 47.7545 43.8943 48.4803 44.0684L50.1335 44.4647V47.2686L48.4803 47.6651C47.7545 47.8391 47.0802 48.1825 46.5125 48.6671C45.9449 49.1517 45.5 49.7637 45.2143 50.4532C44.9285 51.1427 44.8101 51.8901 44.8685 52.6341C44.927 53.3782 45.1608 54.0979 45.5507 54.7342L46.4479 56.1983L44.4652 58.1811L43.0012 57.284C42.3648 56.894 41.6452 56.6602 40.9011 56.6017C40.157 56.5432 39.4096 56.6617 38.7201 56.9474C38.0306 57.2331 37.4185 57.678 36.9339 58.2457C36.4493 58.8133 36.1059 59.4876 35.9318 60.2134L35.5355 61.8667H32.7316L32.3351 60.2134C32.1611 59.4876 31.8177 58.8133 31.3331 58.2457C30.8485 57.678 30.2365 57.2331 29.547 56.9474C28.8575 56.6617 28.1101 56.5432 27.3661 56.6017C26.622 56.6602 25.9023 56.8939 25.266 57.2839L23.085 58.6203L24.1995 60.4393L26.3805 59.1029C26.7298 58.8888 27.1248 58.7605 27.5332 58.7285C27.9416 58.6964 28.3518 58.7614 28.7303 58.9182C29.1087 59.0751 29.4447 59.3192 29.7106 59.6308C29.9766 59.9424 30.1651 60.3125 30.2606 60.7108L30.8532 63.182C30.909 63.4151 31.0418 63.6225 31.2299 63.7709C31.4181 63.9193 31.6508 64 31.8904 64H36.3766C36.6163 64 36.8489 63.9193 37.0371 63.7709C37.2253 63.6225 37.358 63.4151 37.4139 63.182L38.0063 60.7109C38.1018 60.3126 38.2903 59.9424 38.5563 59.6309C38.8223 59.3193 39.1582 59.0751 39.5367 58.9183C39.9152 58.7614 40.3254 58.6964 40.7338 58.7285C41.1422 58.7606 41.5372 58.8889 41.8865 59.103L44.0675 60.4395C44.2718 60.5646 44.5123 60.6174 44.7502 60.5892C44.9881 60.561 45.2097 60.4536 45.3791 60.2842L48.551 57.1122C48.7204 56.9428 48.8278 56.7213 48.856 56.4834C48.8841 56.2454 48.8314 56.0049 48.7062 55.8007L47.3697 53.6197C47.1557 53.2704 47.0274 52.8754 46.9953 52.467C46.9632 52.0586 47.0283 51.6484 47.1851 51.2699C47.3419 50.8915 47.5861 50.5555 47.8977 50.2896C48.2092 50.0236 48.5793 49.8351 48.9777 49.7396V49.7396Z" fill="#3D9AE2"/>
<path d="M62.9336 29.8667H58.6669V24.5333C58.6669 24.2504 58.5545 23.9791 58.3545 23.7791C58.1544 23.5791 57.8831 23.4667 57.6002 23.4667H53.3336C53.0507 23.4667 52.7794 23.5791 52.5793 23.7791C52.3793 23.9791 52.2669 24.2504 52.2669 24.5333V29.8667H49.0669V32H61.8669V36.2667H50.1336V38.4H61.8669V42.6667H54.4002V44.8H61.8669V49.0667H54.4002V51.2H61.8669V55.4667H51.2002V57.6H52.2669V62.9333C52.2669 63.2162 52.3793 63.4875 52.5793 63.6876C52.7794 63.8876 53.0507 64 53.3336 64H57.6002C57.8831 64 58.1544 63.8876 58.3545 63.6876C58.5545 63.4875 58.6669 63.2162 58.6669 62.9333V57.6H62.9336C63.2165 57.6 63.4878 57.4876 63.6878 57.2876C63.8878 57.0875 64.0002 56.8162 64.0002 56.5333V30.9333C64.0002 30.6504 63.8878 30.3791 63.6878 30.1791C63.4878 29.9791 63.2165 29.8667 62.9336 29.8667ZM56.5336 29.8667H54.4002V25.6H56.5336V29.8667ZM56.5336 61.8667H54.4002V57.6H56.5336V61.8667Z" fill="#3D9AE2"/>
<path d="M16.3042 30.6295L15.6958 32.6742C18.1165 33.3943 19.2 34.4616 19.2 35.2C19.2 35.8625 18.3654 36.6451 17.0217 37.2422C15.3419 37.9888 13.0849 38.4 10.6667 38.4C5.45755 38.4 2.13333 36.5047 2.13333 35.2C2.13333 34.4616 3.2168 33.3943 5.6375 32.6742L5.02917 30.6295C1.83307 31.5802 0 33.2461 0 35.2V58.9715C0 60.49 1.23281 61.8351 3.47148 62.7589C5.41081 63.5593 7.96602 64 10.6667 64C13.3673 64 15.9225 63.5593 17.8619 62.7589C20.1005 61.8351 21.3333 60.49 21.3333 58.9715V35.2C21.3333 33.2461 19.5003 31.5802 16.3042 30.6295ZM4.26667 60.779C2.97021 60.2404 2.13333 59.5321 2.13333 58.9715V56.6102C2.80102 57.0416 3.51703 57.393 4.26667 57.6574V60.779ZM9.6 61.8407C8.52383 61.7944 7.45343 61.6581 6.4 61.4333V58.2533C7.45479 58.4669 8.52477 58.5969 9.6 58.6422V61.8407ZM14.9333 61.4333C13.8799 61.6581 12.8095 61.7944 11.7333 61.8407V58.6422C12.8086 58.5969 13.8785 58.4669 14.9333 58.2533V61.4333ZM19.2 58.9715C19.2 59.5321 18.3631 60.2404 17.0667 60.779V57.6574C17.8163 57.393 18.5323 57.0416 19.2 56.6102V58.9715ZM19.2 53.3334C19.2 53.9959 18.3654 54.7784 17.0217 55.3755C15.3419 56.1222 13.0849 56.5334 10.6667 56.5334C5.45755 56.5334 2.13333 54.638 2.13333 53.3334V38.4769C4.04753 39.7434 7.09889 40.5334 10.6667 40.5334C14.2344 40.5334 17.2858 39.7434 19.2 38.4769V53.3334Z" fill="#3D9AE2"/>
<path d="M6.39994 41.6H4.2666V53.3333H6.39994V41.6Z" fill="#3D9AE2"/>
<path d="M11.7334 42.6667H9.6001V54.4H11.7334V42.6667Z" fill="#3D9AE2"/>
<path d="M17.0664 41.6H14.9331V53.3333H17.0664V41.6Z" fill="#3D9AE2"/>
<path d="M9.60013 26.6667C9.60013 26.3838 9.71251 26.1125 9.91255 25.9124C10.1126 25.7124 10.3839 25.6 10.6668 25.6C10.9497 25.6 11.221 25.7124 11.421 25.9124C11.6211 26.1125 11.7335 26.3838 11.7335 26.6667V35.2H13.8668V26.6667C13.8668 25.818 13.5297 25.004 12.9295 24.4039C12.3294 23.8038 11.5155 23.4667 10.6668 23.4667C9.8181 23.4667 9.00417 23.8038 8.40405 24.4039C7.80394 25.004 7.4668 25.818 7.4668 26.6667V35.2H9.60013V26.6667Z" fill="#3D9AE2"/>
<path d="M12.8001 21.3333H28.2668L31.1467 25.1733C31.2461 25.3058 31.3749 25.4133 31.523 25.4874C31.6712 25.5614 31.8345 25.6 32.0001 25.6C32.1657 25.6 32.329 25.5614 32.4772 25.4874C32.6253 25.4133 32.7541 25.3058 32.8535 25.1733L35.7334 21.3333H51.2001C52.0485 21.3324 52.8619 20.9949 53.4618 20.395C54.0617 19.7951 54.3991 18.9817 54.4001 18.1333V3.2C54.3991 2.35161 54.0617 1.53824 53.4618 0.93833C52.8619 0.338424 52.0485 0.000970452 51.2001 0H12.8001C11.9517 0.000970452 11.1383 0.338424 10.5384 0.93833C9.93852 1.53824 9.60107 2.35161 9.6001 3.2V18.1333C9.60107 18.9817 9.93852 19.7951 10.5384 20.395C11.1383 20.9949 11.9517 21.3324 12.8001 21.3333ZM11.7334 3.2C11.7338 2.9172 11.8462 2.64608 12.0462 2.44611C12.2462 2.24614 12.5173 2.13366 12.8001 2.13333H51.2001C51.4829 2.13366 51.754 2.24614 51.954 2.44611C52.154 2.64608 52.2664 2.9172 52.2668 3.2V18.1333C52.2664 18.4161 52.154 18.6873 51.954 18.8872C51.754 19.0872 51.4829 19.1997 51.2001 19.2H35.2001C35.0345 19.2 34.8712 19.2386 34.723 19.3126C34.5749 19.3867 34.4461 19.4942 34.3467 19.6267L32.0001 22.7556L29.6535 19.6267C29.5541 19.4942 29.4253 19.3867 29.2772 19.3126C29.129 19.2386 28.9657 19.2 28.8001 19.2H12.8001C12.5173 19.1997 12.2462 19.0872 12.0462 18.8872C11.8462 18.6873 11.7338 18.4161 11.7334 18.1333V3.2Z" fill="#3D9AE2"/>
<path d="M21.3331 17.0667H25.5998C27.2972 17.0667 28.925 16.3924 30.1253 15.1921C31.3255 13.9919 31.9998 12.364 31.9998 10.6667C31.9998 8.96928 31.3255 7.34141 30.1253 6.14118C28.925 4.94095 27.2972 4.26666 25.5998 4.26666H21.3331C19.6357 4.26666 18.0079 4.94095 16.8076 6.14118C15.6074 7.34141 14.9331 8.96928 14.9331 10.6667C14.9331 12.364 15.6074 13.9919 16.8076 15.1921C18.0079 16.3924 19.6357 17.0667 21.3331 17.0667ZM29.7314 9.6H27.6425C27.4435 8.42372 26.9187 7.3268 26.1276 6.43382C26.976 6.54088 27.7728 6.89976 28.4152 7.46414C29.0575 8.02851 29.516 8.77248 29.7314 9.6ZM27.6425 11.7333H29.7314C29.516 12.5608 29.0575 13.3048 28.4152 13.8692C27.7728 14.4336 26.976 14.7924 26.1276 14.8995C26.9187 14.0065 27.4435 12.9096 27.6425 11.7333ZM21.3331 6.4C22.177 6.4 23.0019 6.65023 23.7035 7.11906C24.4052 7.58789 24.9521 8.25425 25.275 9.03388C25.5979 9.81351 25.6824 10.6714 25.5178 11.499C25.3532 12.3267 24.9468 13.0869 24.3501 13.6837C23.7534 14.2804 22.9931 14.6867 22.1655 14.8513C21.3378 15.016 20.48 14.9315 19.7003 14.6085C18.9207 14.2856 18.2543 13.7387 17.7855 13.0371C17.3167 12.3354 17.0664 11.5105 17.0664 10.6667C17.0677 9.53547 17.5177 8.45098 18.3175 7.6511C19.1174 6.85123 20.2019 6.40129 21.3331 6.4Z" fill="#3D9AE2"/>
<path d="M40.5332 11.1085L41.9122 12.4876C42.1123 12.6876 42.3836 12.7999 42.6665 12.7999C42.9494 12.7999 43.2207 12.6876 43.4208 12.4876L47.9999 7.90859V10.6667H50.1332V5.33333C50.1332 5.05044 50.0208 4.77913 49.8208 4.5791C49.6207 4.37906 49.3494 4.26668 49.0665 4.26666H43.7332V6.4H46.4913L42.6665 10.2249L41.2875 8.8457C41.0874 8.64573 40.8161 8.53339 40.5332 8.53339C40.2503 8.53339 39.979 8.64573 39.7789 8.8457L33.3789 15.2457L34.8875 16.7543L40.5332 11.1085Z" fill="#3D9AE2"/>
</svg>
