<svg width="64" height="64" viewBox="0 0 64 64" fill="none" xmlns="http://www.w3.org/2000/svg">
<path d="M16 11H48V55H16V11Z" fill="#E6E7E8"/>
<path d="M10 11C3.373 11 0 15.925 0 22V44C0 50.075 3.373 55 10 55H16V11H10ZM54 11H48V55H54C60.627 55 64 50.075 64 44V22C64 15.925 60.627 11 54 11Z" fill="#EC1C24"/>
<path fill-rule="evenodd" clip-rule="evenodd" d="M44.26 32.641C43.803 32.434 43.726 32.288 43.862 31.783C44.201 30.52 44.55 29.262 44.893 28.001C44.922 27.898 44.948 27.792 44.987 27.641C44.563 27.726 44.167 27.802 43.771 27.888C42.97 28.058 42.174 28.231 41.375 28.4C40.853 28.509 40.614 28.363 40.466 27.847C40.327 27.359 40.19 26.87 39.967 26.312C39.916 26.396 39.879 26.493 39.814 26.564C38.899 27.597 37.979 28.627 37.058 29.66C36.773 29.974 36.456 30.111 36.232 29.987C35.903 29.801 35.915 29.472 35.969 29.165C36.212 27.824 36.464 26.486 36.714 25.145C36.897 24.172 37.08 23.204 37.268 22.19C37.173 22.226 37.109 22.244 37.052 22.272C36.534 22.54 36.022 22.813 35.503 23.075C34.867 23.394 34.547 23.289 34.215 22.674C33.512 21.371 32.815 20.066 32.114 18.762C32.078 18.698 32.054 18.634 31.999 18.552L31.884 18.762C31.185 20.066 30.487 21.371 29.785 22.674C29.452 23.289 29.131 23.395 28.495 23.075C27.976 22.813 27.464 22.54 26.946 22.272C26.889 22.244 26.825 22.226 26.73 22.19C26.918 23.204 27.101 24.172 27.284 25.145C27.534 26.482 27.787 27.82 28.028 29.165C28.084 29.473 28.095 29.802 27.766 29.987C27.541 30.111 27.225 29.974 26.941 29.66C26.019 28.627 25.099 27.597 24.184 26.564C24.119 26.493 24.081 26.396 24.031 26.312C23.808 26.871 23.671 27.359 23.532 27.847C23.384 28.363 23.143 28.509 22.623 28.4C21.824 28.231 21.027 28.058 20.227 27.888C19.831 27.802 19.435 27.726 19.011 27.641C19.05 27.792 19.075 27.899 19.105 28.001C19.448 29.262 19.797 30.521 20.136 31.783C20.272 32.289 20.195 32.434 19.738 32.641C19.315 32.833 18.893 33.036 18.446 33.245C18.526 33.317 18.571 33.36 18.621 33.401C19.685 34.267 20.749 35.13 21.815 35.996C22.846 36.834 23.873 37.671 24.905 38.506C25.266 38.797 25.385 39.151 25.236 39.593C25.152 39.853 25.077 40.113 24.999 40.374C24.905 40.681 24.813 40.99 24.709 41.341C25.732 41.196 26.698 41.061 27.671 40.926C28.812 40.769 29.952 40.608 31.096 40.464C31.488 40.413 31.779 40.712 31.763 41.101C31.677 43.164 31.478 45.493 31.464 47.447H32.534C32.52 45.493 32.322 43.165 32.236 41.101C32.218 40.712 32.51 40.413 32.902 40.464C34.046 40.608 35.186 40.769 36.327 40.926C37.3 41.061 38.266 41.197 39.289 41.341C39.185 40.99 39.093 40.681 38.999 40.374C38.921 40.112 38.846 39.853 38.762 39.593C38.613 39.151 38.732 38.797 39.093 38.506C40.126 37.671 41.152 36.834 42.183 35.996C43.249 35.131 44.313 34.267 45.377 33.401C45.427 33.36 45.472 33.317 45.552 33.245C45.104 33.035 44.684 32.833 44.26 32.641Z" fill="#EC1C24"/>
</svg>
