<svg width="64" height="64" viewBox="0 0 64 64" fill="none" xmlns="http://www.w3.org/2000/svg">
<path d="M32.4541 32.0299L4.11011 52.2499C5.64811 53.3559 7.60911 54.0039 10.0001 54.0039H54.0001C60.6271 54.0039 64.0001 49.0789 64.0001 43.0039V32.0039H32.4161L32.4541 32.0309" fill="#EC1C24"/>
<path d="M54.0001 10H10.0001C7.79908 10 5.96008 10.553 4.48608 11.5L32.4161 32H64.0001V21C64.0001 14.925 60.6271 10 54.0001 10Z" fill="#E6E7E8"/>
<path d="M32.416 32L4.486 11.5C1.513 13.407 0 16.942 0 21V43C0 46.883 1.385 50.289 4.11 52.246L32.454 32.027L32.416 32Z" fill="#1B75BB"/>
</svg>
