<svg width="64" height="64" viewBox="0 0 64 64" fill="none" xmlns="http://www.w3.org/2000/svg">
<path d="M64 43C64 49.075 60.627 54 54 54H10C3.373 54 0 49.075 0 43V21C0 14.925 3.373 10 10 10H54C60.627 10 64 14.925 64 21V43Z" fill="#EC1C24"/>
<path d="M12.971 16.6559L15.11 20.9999L19.905 21.6949L16.438 25.0699L17.255 29.8499L12.971 27.5949L8.68604 29.8499L9.50404 25.0699L6.04004 21.6949L10.827 20.9999L12.971 16.6559ZM20.507 12.9939L21.1 14.1989L22.434 14.3919L21.471 15.3309L21.696 16.6559L20.507 16.0299L19.319 16.6559L19.544 15.3309L18.582 14.3919L19.913 14.1989L20.507 12.9939ZM24.358 17.3279L24.952 18.5319L26.28 18.7259L25.321 19.6669L25.547 20.9899L24.358 20.3649L23.17 20.9899L23.395 19.6669L22.434 18.7259L23.763 18.5319L24.358 17.3279ZM24.358 24.2839L24.952 25.4909L26.28 25.6839L25.321 26.6229L25.547 27.9479L24.358 27.3239L23.17 27.9479L23.395 26.6229L22.434 25.6839L23.763 25.4909L24.358 24.2839ZM20.507 29.1699L21.1 30.3749L22.434 30.5669L21.471 31.5049L21.696 32.8319L20.507 32.2099L19.319 32.8319L19.544 31.5049L18.582 30.5669L19.913 30.3749L20.507 29.1699Z" fill="#F9CB38"/>
</svg>
