<svg width="64" height="64" viewBox="0 0 64 64" fill="none" xmlns="http://www.w3.org/2000/svg">
<path d="M57 5H35C34.8617 5 34.725 5.00716 34.5895 5.01823C34.2019 4.1226 33.561 3.35977 32.7456 2.82354C31.9302 2.28731 30.9759 2.00107 30 2H12C10.6744 2.0015 9.40348 2.52876 8.46612 3.46612C7.52876 4.40348 7.0015 5.67438 7 7V25C7.0015 26.3256 7.52876 27.5965 8.46612 28.5339C9.40348 29.4712 10.6744 29.9985 12 30H30V32C30.0015 33.1521 30.4002 34.2685 31.1288 35.161C31.8574 36.0534 32.8715 36.6674 34 36.8994V40H28V37C27.9985 35.6744 27.4712 34.4035 26.5339 33.4661C25.5965 32.5288 24.3256 32.0015 23 32H7C5.67438 32.0015 4.40348 32.5288 3.46612 33.4661C2.52876 34.4035 2.0015 35.6744 2 37V53C2.0015 54.3256 2.52876 55.5965 3.46612 56.5339C4.40348 57.4712 5.67438 57.9985 7 58H20.998L21 62.0005L23 61.9995L22.9905 43C22.9908 42.7349 23.0963 42.4807 23.2838 42.2932C23.4712 42.1058 23.7254 42.0003 23.9905 42H25.2192L25.6511 43.7276C25.8127 44.377 26.1871 44.9537 26.7146 45.3655C27.2421 45.7774 27.8923 46.0008 28.5615 46H35.4385C36.1077 46.0007 36.7579 45.7774 37.2854 45.3655C37.8129 44.9537 38.1873 44.377 38.3489 43.7276L38.7808 42H40.0095C40.2745 42.0003 40.5286 42.1057 40.7161 42.293C40.9036 42.4804 41.0091 42.7345 41.0095 42.9995L41 61.9995L43 62.0005L43.004 54H53C54.3256 53.9985 55.5965 53.4712 56.5339 52.5339C57.4712 51.5965 57.9985 50.3256 58 49V36.8994C59.1285 36.6674 60.1426 36.0534 60.8712 35.161C61.5998 34.2685 61.9985 33.1521 62 32V10C61.9985 8.67438 61.4712 7.40348 60.5339 6.46612C59.5965 5.52876 58.3256 5.0015 57 5ZM20.9905 43.0005L20.993 48H13C12.7349 47.9997 12.4807 47.8942 12.2932 47.7068C12.1058 47.5193 12.0003 47.2651 12 47V43C12.0003 42.7349 12.1058 42.4807 12.2932 42.2932C12.4807 42.1058 12.7349 42.0003 13 42H21C21.0529 42.0004 21.1057 42.0051 21.1579 42.0141C21.047 42.3311 20.9905 42.6646 20.9905 43.0005ZM26 40H23.9905C23.4655 39.9996 22.9496 40.1379 22.4952 40.401C22.0405 40.1388 21.5249 40.0005 21 40H13C12.4609 40.0004 11.9319 40.1459 11.4684 40.4213C11.005 40.6967 10.6242 41.0918 10.3661 41.5651L8.89441 40.8292C8.58949 40.6768 8.25066 40.6048 7.91009 40.6201C7.56952 40.6354 7.23852 40.7375 6.94852 40.9167C6.65852 41.096 6.41915 41.3463 6.25314 41.6441C6.08713 41.9419 5.99999 42.2771 6 42.618V47.382C5.99917 47.7232 6.08579 48.0589 6.25159 48.3572C6.41739 48.6554 6.65685 48.9062 6.94711 49.0855C7.23737 49.2649 7.56876 49.367 7.90965 49.3819C8.25055 49.3968 8.58958 49.3241 8.89441 49.1708L10.3661 48.4349C10.6242 48.9082 11.005 49.3033 11.4684 49.5787C11.9319 49.8541 12.4609 49.9996 13 50H20.994L20.997 56H7C6.20463 55.9991 5.4421 55.6827 4.87968 55.1203C4.31727 54.5579 4.00091 53.7954 4 53V37C4.00091 36.2046 4.31727 35.4421 4.87968 34.8797C5.4421 34.3173 6.20463 34.0009 7 34H23C23.7954 34.0009 24.5579 34.3173 25.1203 34.8797C25.6827 35.4421 25.9991 36.2046 26 37V40ZM10 43.618V46.382L8 47.382V42.618L10 43.618ZM30 10V28H12C11.2046 27.9991 10.4421 27.6827 9.87968 27.1203C9.31727 26.5579 9.00091 25.7954 9 25V7C9.00091 6.20463 9.31727 5.4421 9.87968 4.87968C10.4421 4.31727 11.2046 4.00091 12 4H30C30.5438 4.00045 31.0773 4.14859 31.5435 4.4286C32.0097 4.70861 32.3911 5.10999 32.6469 5.58986C31.8479 6.01655 31.1796 6.65213 30.7135 7.42882C30.2473 8.2055 30.0007 9.09416 30 10ZM36.4086 43.2425C36.3547 43.459 36.2299 43.6512 36.0541 43.7885C35.8783 43.9258 35.6616 44.0002 35.4385 44H28.5615C28.3384 44.0002 28.1217 43.9258 27.9459 43.7885C27.7701 43.6512 27.6453 43.459 27.5914 43.2425L27.2808 42H36.7192L36.4086 43.2425ZM42.2431 41H50C50.2651 41.0003 50.5193 41.1058 50.7068 41.2932C50.8942 41.4807 50.9997 41.7349 51 42V47.1315L49.3028 46H43.008L43.0095 43C43.01 42.2615 42.737 41.549 42.2431 41ZM56 49C55.9991 49.7954 55.6828 50.5579 55.1203 51.1203C54.5579 51.6828 53.7954 51.9991 53 52H43.005L43.007 48H48.6972L51.2507 49.7023C51.4201 49.8153 51.617 49.8802 51.8204 49.8901C52.0238 49.9 52.2261 49.8545 52.4057 49.7584C52.5853 49.6623 52.7354 49.5193 52.8401 49.3446C52.9447 49.1699 53 48.9701 53 48.7664V42C52.9991 41.2046 52.6828 40.4421 52.1203 39.8797C51.5579 39.3172 50.7954 39.0009 50 39H42C41.5783 39.0009 41.1614 39.0904 40.7765 39.2626C40.3916 39.4349 40.0471 39.6861 39.7654 40H36V37H56V49ZM60 32C59.9991 32.7954 59.6828 33.5579 59.1203 34.1203C58.5579 34.6828 57.7954 34.9991 57 35H35C34.2046 34.9991 33.4421 34.6828 32.8797 34.1203C32.3172 33.5579 32.0009 32.7954 32 32V10C32.0009 9.20462 32.3172 8.44208 32.8797 7.87966C33.4421 7.31725 34.2046 7.00089 35 7H57C57.7954 7.00089 58.5579 7.31725 59.1203 7.87966C59.6828 8.44208 59.9991 9.20462 60 10V32Z" fill="#3D9AE2"/>
<path d="M25 60H27V62H25V60Z" fill="#3D9AE2"/>
<path d="M29 60H31V62H29V60Z" fill="#3D9AE2"/>
<path d="M33 60H35V62H33V60Z" fill="#3D9AE2"/>
<path d="M37 60H39V62H37V60Z" fill="#3D9AE2"/>
<path d="M25 55H27V57H25V55Z" fill="#3D9AE2"/>
<path d="M29 55H31V57H29V55Z" fill="#3D9AE2"/>
<path d="M33 55H35V57H33V55Z" fill="#3D9AE2"/>
<path d="M37 55H39V57H37V55Z" fill="#3D9AE2"/>
<path d="M25 50H27V52H25V50Z" fill="#3D9AE2"/>
<path d="M29 50H31V52H29V50Z" fill="#3D9AE2"/>
<path d="M33 50H35V52H33V50Z" fill="#3D9AE2"/>
<path d="M37 50H39V52H37V50Z" fill="#3D9AE2"/>
<path d="M55.0001 11H54.0001V9H52.0001V11H48.0001V9H46.0001V11H45.0001C44.2048 11.0009 43.4422 11.3173 42.8798 11.8797C42.3174 12.4421 42.001 13.2046 42.0001 14V19.0726C40.6299 18.8747 39.2318 19.0876 37.9825 19.6843C36.7333 20.2811 35.6891 21.2349 34.982 22.4251C34.2748 23.6153 33.9365 24.9885 34.0098 26.371C34.0831 27.7535 34.5647 29.0832 35.3938 30.1919C36.2228 31.3007 37.362 32.1387 38.6673 32.6C39.9727 33.0613 41.3855 33.1252 42.7271 32.7835C44.0687 32.4418 45.2789 31.71 46.2045 30.6805C47.1302 29.6511 47.7298 28.3702 47.9275 27H55.0001C55.7955 26.9991 56.558 26.6827 57.1204 26.1203C57.6828 25.5579 57.9992 24.7954 58.0001 24V14C57.9992 13.2046 57.6828 12.4421 57.1204 11.8797C56.558 11.3173 55.7955 11.0009 55.0001 11ZM41.0001 31C40.0112 31 39.0445 30.7068 38.2223 30.1573C37.4 29.6079 36.7592 28.827 36.3807 27.9134C36.0023 26.9998 35.9033 25.9945 36.0962 25.0245C36.2891 24.0546 36.7653 23.1637 37.4646 22.4645C38.1638 21.7652 39.0548 21.289 40.0247 21.0961C40.9946 20.9031 41.9999 21.0022 42.9135 21.3806C43.8272 21.759 44.6081 22.3999 45.1575 23.2221C45.7069 24.0444 46.0001 25.0111 46.0001 26C45.9986 27.3256 45.4714 28.5965 44.534 29.5339C43.5966 30.4712 42.3257 30.9985 41.0001 31ZM56.0001 24C55.9998 24.2651 55.8944 24.5193 55.7069 24.7068C55.5194 24.8942 55.2652 24.9997 55.0001 25H47.9275C47.7609 23.8582 47.3154 22.7752 46.6303 21.8467C45.9453 20.9182 45.0419 20.1729 44.0001 19.6768V18H56.0001V24ZM56.0001 16H44.0001V14C44.0004 13.7349 44.1059 13.4807 44.2933 13.2932C44.4808 13.1058 44.735 13.0003 45.0001 13H46.0001V14H48.0001V13H52.0001V14H54.0001V13H55.0001C55.2652 13.0003 55.5194 13.1058 55.7069 13.2932C55.8944 13.4807 55.9998 13.7349 56.0001 14V16Z" fill="#3D9AE2"/>
<path d="M25 7H17C16.2046 7.00089 15.4421 7.31725 14.8797 7.87966C14.3172 8.44208 14.0009 9.20462 14 10V22C14.0009 22.7954 14.3172 23.5579 14.8797 24.1203C15.4421 24.6828 16.2046 24.9991 17 25H25C25.7954 24.9991 26.5579 24.6828 27.1203 24.1203C27.6828 23.5579 27.9991 22.7954 28 22V10C27.9991 9.20462 27.6828 8.44208 27.1203 7.87966C26.5579 7.31725 25.7954 7.00089 25 7ZM26 22C25.9997 22.2651 25.8942 22.5193 25.7068 22.7068C25.5193 22.8942 25.2651 22.9997 25 23H17C16.7349 22.9997 16.4807 22.8942 16.2932 22.7068C16.1058 22.5193 16.0003 22.2651 16 22V10C16.0003 9.73488 16.1058 9.4807 16.2932 9.29323C16.4807 9.10576 16.7349 9.0003 17 9H25C25.2651 9.0003 25.5193 9.10576 25.7068 9.29323C25.8942 9.4807 25.9997 9.73488 26 10V22Z" fill="#3D9AE2"/>
<path d="M18 11H24V13H18V11Z" fill="#3D9AE2"/>
<path d="M18 15H24V17H18V15Z" fill="#3D9AE2"/>
<path d="M18 19H24V21H18V19Z" fill="#3D9AE2"/>
<path d="M42 23H40V26.4141L42.2929 28.7071L43.7071 27.2929L42 25.5859V23Z" fill="#3D9AE2"/>
<path d="M52 20H54V22H52V20Z" fill="#3D9AE2"/>
<path d="M48 20H50V22H48V20Z" fill="#3D9AE2"/>
</svg>
