<svg width="24" height="24" viewBox="0 0 24 24" fill="none" xmlns="http://www.w3.org/2000/svg">
<path d="M13.3355 18.0586C17.4026 19.0199 18.8336 15.5657 18.1166 14.2763C17.8294 13.7618 15.2485 12.7736 15.123 12.7257C14.0143 12.3248 13.6046 13.0727 12.8364 14.0569C11.3612 13.324 10.372 12.7466 9.35574 11.1053C9.41298 11.0345 9.4893 10.9507 9.54654 10.8869C9.90204 10.492 10.5678 9.75608 10.1139 8.85562C9.73233 8.10075 9.54253 7.57423 9.40294 7.18832C8.99824 6.07048 8.68994 5.76733 7.29608 5.76733C5.84497 5.76733 4.71924 7.66099 4.71924 9.29139C4.71924 12.8503 9.53751 17.1582 13.3355 18.0586ZM7.29608 7.26311C7.59734 7.26311 7.74999 7.27308 7.82631 7.28505C7.98899 7.62708 8.15369 8.34107 8.76024 9.45193C8.66584 9.80195 7.3252 10.6226 7.94682 11.6836C9.21716 13.8256 10.4885 14.5685 12.3102 15.468C13.5233 16.0124 13.9109 15.0262 14.6801 14.1596C15.0366 14.3032 16.2397 14.8317 16.7679 15.097C16.7207 16.1301 15.7165 17.0834 13.685 16.6027C10.1983 15.7761 6.22457 11.8811 6.22457 9.29039C6.22557 8.30517 6.9215 7.26311 7.29608 7.26311Z" fill="#3D9AE2"/>
<path d="M0.0324248 23.0535C-0.0991286 23.5262 0.257371 23.9999 0.758479 23.9999C0.939239 23.9999 0.643997 24.0457 6.63118 22.5041C9.06843 23.7366 10.9212 23.6977 12.1042 23.8084C22.7038 23.8084 27.8956 10.9716 20.6009 3.50271C10.6019 -6.0942 -4.97062 5.83214 1.54579 17.5899L0.0324248 23.0535ZM19.4019 4.43408C19.5756 4.74919 24.5586 9.2116 21.7839 15.8798C20.0757 19.9882 16.1342 22.52 11.7176 22.2827C8.12446 22.0843 7.19455 20.8099 6.53277 20.9844L1.82999 22.2009L3.08025 17.6897C3.13447 17.4962 3.10736 17.2898 3.00694 17.1163C-3.00134 6.82135 10.5848 -3.76378 19.4019 4.43408Z" fill="#3D9AE2"/>
</svg>
