<svg width="64" height="64" viewBox="0 0 64 64" fill="none" xmlns="http://www.w3.org/2000/svg">
<path d="M33 9H31V20H22V22H33V9Z" fill="#3D9AE2"/>
<path d="M48 20H54C54.5302 19.9994 55.0386 19.7885 55.4135 19.4135C55.7885 19.0386 55.9994 18.5302 56 18V14C55.9994 13.4698 55.7885 12.9614 55.4135 12.5865C55.0386 12.2115 54.5302 12.0006 54 12H49V10C49 9.46957 49.2107 8.96086 49.5858 8.58579C49.9609 8.21071 50.4696 8 51 8C51.5304 8 52.0391 8.21071 52.4142 8.58579C52.7893 8.96086 53 9.46957 53 10H55C55 8.93913 54.5786 7.92172 53.8284 7.17157C53.0783 6.42143 52.0609 6 51 6C49.9391 6 48.9217 6.42143 48.1716 7.17157C47.4214 7.92172 47 8.93913 47 10V12.2706C46.6963 12.4459 46.4441 12.6979 46.2686 13.0015C46.093 13.305 46.0004 13.6494 46 14V18C46.0006 18.5302 46.2115 19.0386 46.5865 19.4135C46.9614 19.7885 47.4698 19.9994 48 20ZM48 14H54L54.0013 17.9999L54 18H48V14Z" fill="#3D9AE2"/>
<path d="M61.2929 34.8787L59.1213 32.7071C58.5582 32.1453 57.7954 31.8298 57 31.8298C56.2046 31.8298 55.4418 32.1453 54.8787 32.7071L53.9939 33.592C53.5624 33.2066 53.0286 32.9543 52.457 32.8656C51.8853 32.7768 51.3002 32.8554 50.7722 33.0919C50.2442 33.3283 49.7959 33.7125 49.4815 34.1981C49.167 34.6837 48.9998 35.2499 49 35.8284V38.1716C49.0004 38.303 48.9747 38.4331 48.9244 38.5545C48.8741 38.6759 48.8002 38.7861 48.7071 38.8787L48 39.5858L47 38.5858L38.2739 47.3119L37.4472 45.6584C37.151 45.063 36.6647 44.5835 36.0651 44.2958C36.2055 43.5364 36.5739 42.8377 37.1213 42.2929L37.6568 41.7573C38.599 40.8191 39.291 39.6598 39.6697 38.3852C42.5721 37.1036 45.1077 35.1159 47.0451 32.6032C48.9825 30.0906 50.2602 27.133 50.7616 24H59C59.7954 23.9991 60.5579 23.6827 61.1203 23.1203C61.6827 22.5579 61.9991 21.7954 62 21V5C61.9991 4.20463 61.6827 3.44209 61.1203 2.87967C60.5579 2.31726 59.7954 2.0009 59 2H45C44.1842 2.00025 43.3808 2.20019 42.66 2.58238C41.9392 2.96456 41.3229 3.51737 40.8649 4.19254C38.132 2.75215 35.0892 1.99959 32 2C21.5234 2 13 10.5234 13 21C12.9958 24.6851 14.0651 28.2916 16.0772 31.3789C18.0893 34.4662 20.9571 36.9006 24.3302 38.3846C24.7088 39.6594 25.4009 40.8189 26.3431 41.7573L26.8787 42.2929C27.4261 42.8377 27.7945 43.5364 27.9349 44.2958C27.3353 44.5835 26.8489 45.063 26.5528 45.6584L25.726 47.3119L17 38.5858L16 39.5858L15.2929 38.8787C15.1997 38.7861 15.1259 38.6759 15.0756 38.5545C15.0253 38.4331 14.9996 38.303 15 38.1716V35.8284C15.0002 35.2499 14.833 34.6837 14.5185 34.1981C14.2041 33.7125 13.7558 33.3283 13.2278 33.0919C12.6998 32.8554 12.1147 32.7768 11.543 32.8656C10.9714 32.9543 10.4376 33.2066 10.0061 33.592L9.12127 32.7071C8.55823 32.1453 7.79535 31.8298 6.99999 31.8298C6.20464 31.8298 5.44175 32.1453 4.87872 32.7071L2.70709 34.8787C2.14532 35.4418 1.82983 36.2046 1.82983 37C1.82983 37.7953 2.14532 38.5582 2.70709 39.1213L5.70709 42.1213C5.98502 42.4007 6.31561 42.6223 6.67974 42.7731C7.04387 42.924 7.4343 43.0011 7.82843 43H8.17157C8.30295 42.9996 8.4331 43.0253 8.55448 43.0756C8.67586 43.1259 8.78607 43.1998 8.87872 43.2929L10.5858 45L9.58581 46L19.7071 56.1213C19.8002 56.2139 19.8741 56.3241 19.9244 56.4455C19.9747 56.5669 20.0004 56.697 20 56.8284V62H22V56.8284C22.0011 56.4343 21.924 56.0439 21.7731 55.6797C21.6223 55.3156 21.4007 54.985 21.1213 54.7071L12.4142 46L17 41.4142L24.7071 49.1213C24.985 49.4007 25.3156 49.6223 25.6797 49.7731C26.0439 49.924 26.4343 50.0011 26.8284 50H37.1716C37.5657 50.0011 37.9561 49.924 38.3203 49.7731C38.6844 49.6223 39.015 49.4007 39.2929 49.1213L47 41.4142L51.5857 46L42.8787 54.7071C42.5993 54.985 42.3777 55.3156 42.2269 55.6797C42.076 56.0439 41.9989 56.4343 42 56.8284V62H44V56.8284C43.9996 56.697 44.0253 56.5669 44.0756 56.4455C44.1259 56.3241 44.1997 56.2139 44.2929 56.1213L54.4142 46L53.4142 45L55.1213 43.2929C55.2139 43.1998 55.3241 43.1259 55.4455 43.0756C55.5669 43.0253 55.697 42.9996 55.8284 43H56.1716C56.5657 43.0011 56.9561 42.924 57.3203 42.7731C57.6844 42.6223 58.015 42.4007 58.2929 42.1213L61.2929 39.1213C61.8547 38.5582 62.1702 37.7954 62.1702 37C62.1702 36.2046 61.8547 35.4418 61.2929 34.8787ZM12 43.5858L10.2929 41.8787C10.015 41.5993 9.68438 41.3777 9.32025 41.2269C8.95613 41.076 8.5657 40.9989 8.17157 41H7.82843C7.69704 41.0004 7.56689 40.9747 7.44551 40.9244C7.32413 40.8741 7.21392 40.8002 7.12127 40.7071L4.12127 37.7071C3.93402 37.5194 3.82885 37.2651 3.82885 37C3.82885 36.7349 3.93402 36.4806 4.12127 36.2929L6.2929 34.1213C6.48058 33.934 6.73488 33.8289 7 33.8289C7.26512 33.8289 7.51941 33.934 7.70709 34.1213L8.90971 35.3239C8.79425 35.8195 8.80686 36.3364 8.94636 36.8258C9.08587 37.3152 9.34766 37.761 9.70709 38.1213L10.2929 38.7071L11.7071 37.2929L11.1213 36.7071C10.934 36.5194 10.8289 36.2651 10.8289 36C10.8289 35.7349 10.934 35.4806 11.1213 35.2929L11.2929 35.1213C11.4328 34.9814 11.6109 34.8862 11.8049 34.8476C11.9989 34.809 12.2 34.8288 12.3827 34.9045C12.5654 34.9802 12.7216 35.1084 12.8315 35.2729C12.9414 35.4373 13 35.6306 13 35.8284V38.1716C12.9989 38.5657 13.076 38.9561 13.2269 39.3203C13.3777 39.6844 13.5993 40.015 13.8787 40.2929L14.5858 41L12 43.5858ZM41.3427 19.1725C41.7674 18.6401 41.9991 17.9795 42 17.2985V7C42.0009 6.20463 42.3173 5.4421 42.8797 4.87968C43.4421 4.31727 44.2046 4.00091 45 4H59C59.2651 4.0003 59.5193 4.10576 59.7068 4.29323C59.8942 4.4807 59.9997 4.73488 60 5V21C59.9997 21.2651 59.8942 21.5193 59.7068 21.7068C59.5193 21.8942 59.2651 21.9997 59 22H39.0807L41.3427 19.1725ZM24 32V36.0022C22.8143 35.3714 21.7076 34.6024 20.703 33.7112L22.7071 31.7071L21.2929 30.2929L19.2881 32.2977C16.7507 29.4421 15.251 25.8138 15.032 22H18V20H15.0302C15.2524 16.1878 16.7569 12.5627 19.2992 9.71338L21.2929 11.7071L22.7071 10.2929L20.7134 8.29919C23.5627 5.75687 27.1878 4.25244 31 4.03021V7H33V4.03088C35.4832 4.1756 37.9042 4.86389 40.0922 6.0471C40.0311 6.36106 40.0002 6.68015 40 7V17.2985C39.9997 17.5255 39.9225 17.7457 39.7809 17.9232L36.3816 22.1722C36.2493 22.3377 36.1663 22.5371 36.1423 22.7477C36.1183 22.9583 36.1543 23.1713 36.2461 23.3623C36.3379 23.5533 36.4818 23.7145 36.6612 23.8273C36.8405 23.9401 37.0481 24 37.2601 24H48.7357C48.1838 27.0831 46.7896 29.9534 44.7073 32.2931L42.7071 30.2929L41.2929 31.7071L43.2939 33.7081C42.2904 34.6002 41.1847 35.3703 40 36.0023V32C40 29.8783 39.1571 27.8434 37.6568 26.3431C36.1566 24.8429 34.1217 24 32 24C29.8783 24 27.8434 24.8429 26.3431 26.3431C24.8428 27.8434 24 29.8783 24 32ZM27.7573 40.3431C27.1984 39.7873 26.7553 39.1261 26.4537 38.3979C26.152 37.6696 25.9978 36.8888 26 36.1005V32C26 30.4087 26.6321 28.8826 27.7574 27.7574C28.8826 26.6321 30.4087 26 32 26C33.5913 26 35.1174 26.6321 36.2426 27.7574C37.3679 28.8826 38 30.4087 38 32V36.1005C38.0022 36.8888 37.8479 37.6696 37.5463 38.3979C37.2447 39.1261 36.8016 39.7873 36.2427 40.3431L35.7071 40.8787C34.8561 41.7258 34.2898 42.8166 34.0867 44H29.9133C29.7102 42.8166 29.1439 41.7258 28.2929 40.8787L27.7573 40.3431ZM27.618 48L28.3416 46.5528C28.4242 46.3863 28.5517 46.2462 28.7098 46.1485C28.8679 46.0508 29.0502 45.9994 29.2361 46H34.7639C34.9498 45.9994 35.1321 46.0508 35.2902 46.1485C35.4483 46.2462 35.5758 46.3863 35.6584 46.5528L36.382 48H27.618ZM59.8787 37.7071L56.8787 40.7071C56.7861 40.8002 56.6759 40.8741 56.5545 40.9244C56.4331 40.9747 56.3029 41.0004 56.1716 41H55.8284C55.4343 40.9989 55.0439 41.076 54.6797 41.2269C54.3156 41.3777 53.985 41.5993 53.7071 41.8787L52 43.5858L49.4142 41L50.1213 40.2929C50.4007 40.015 50.6223 39.6844 50.7731 39.3203C50.924 38.9561 51.0011 38.5657 51 38.1716V35.8284C51 35.6306 51.0586 35.4373 51.1685 35.2729C51.2784 35.1084 51.4346 34.9802 51.6173 34.9045C51.8 34.8288 52.0011 34.809 52.1951 34.8476C52.389 34.8862 52.5672 34.9814 52.7071 35.1213L52.8787 35.2929C53.066 35.4806 53.1711 35.7349 53.1711 36C53.1711 36.2651 53.066 36.5194 52.8787 36.7071L52.2929 37.2929L53.7071 38.7071L54.2929 38.1213C54.6523 37.761 54.9141 37.3152 55.0536 36.8258C55.1931 36.3364 55.2057 35.8195 55.0903 35.3239L56.2929 34.1213C56.4806 33.934 56.7349 33.8288 57 33.8288C57.2651 33.8288 57.5194 33.934 57.7071 34.1213L59.8787 36.2929C60.066 36.4806 60.1711 36.7349 60.1711 37C60.1711 37.2651 60.066 37.5194 59.8787 37.7071Z" fill="#3D9AE2"/>
</svg>
