<svg width="64" height="64" viewBox="0 0 64 64" fill="none" xmlns="http://www.w3.org/2000/svg">
<path d="M56.8943 47.9421C58.2877 45.1678 59.009 42.1046 59.0001 39C59.0011 37.2226 58.7657 35.4529 58.3002 33.7375L56.3704 34.2625C56.7893 35.8068 57.0011 37.3999 57.0001 39C57.0084 41.7937 56.3596 44.5501 55.106 47.0467L56.8943 47.9421Z" fill="#3D9AE2"/>
<path d="M61 20H51C50.8022 20 50.6089 20.0586 50.4444 20.1685C50.28 20.2784 50.1518 20.4346 50.0761 20.6173C50.0004 20.8 49.9806 21.0011 50.0192 21.1951C50.0578 21.3891 50.1531 21.5673 50.2929 21.7071L52.5858 24L47.4572 29.1286C47.0734 28.8001 46.6707 28.4942 46.2513 28.2125L48.7888 18.9085L53.1042 18H57C58.3261 18 59.5979 17.4732 60.5355 16.5355C61.4732 15.5979 62 14.3261 62 13C62 11.6739 61.4732 10.4022 60.5355 9.46448C59.5979 8.52679 58.3261 8.00001 57 8.00001H53.1042L34.8804 4.16342C34.679 3.46964 34.234 2.87184 33.6272 2.47989C33.0203 2.08794 32.2924 1.92816 31.5772 2.02991C30.862 2.13166 30.2075 2.48811 29.734 3.03376C29.2606 3.5794 28.9999 4.27759 29 5.00001V21C28.9999 21.7224 29.2606 22.4206 29.734 22.9663C30.2075 23.5119 30.862 23.8684 31.5772 23.9701C32.2924 24.0719 33.0203 23.9121 33.6272 23.5201C34.234 23.1282 34.679 22.5304 34.8804 21.8366L41.6145 20.4189L40.2049 26.0572C39.806 26.02 39.4041 26 39 26C36.8021 26.001 34.6403 26.5592 32.7166 27.6224C30.7929 28.6856 29.1702 30.2191 28 32.0797V20.8284C28.0011 20.4343 27.924 20.0439 27.7731 19.6798C27.6223 19.3156 27.4007 18.985 27.1213 18.7071L24 15.5858V3.00001C24 2.86869 23.9742 2.73865 23.9239 2.61732C23.8736 2.49599 23.8 2.38575 23.7071 2.29289C23.6143 2.20003 23.504 2.12638 23.3827 2.07612C23.2614 2.02587 23.1313 2.00001 23 2.00001H7.00001C6.86869 2.00001 6.73865 2.02587 6.61732 2.07612C6.496 2.12638 6.38576 2.20003 6.2929 2.29289C6.20004 2.38575 6.12638 2.49599 6.07612 2.61732C6.02587 2.73865 6.00001 2.86869 6.00001 3.00001V15.5858L2.87873 18.7071C2.59928 18.985 2.37772 19.3156 2.22688 19.6798C2.07605 20.0439 1.99894 20.4343 2.00001 20.8284V34C2.00092 34.7954 2.31728 35.5579 2.8797 36.1203C3.44211 36.6827 4.20464 36.9991 5.00001 37H12.6126L11.2792 41H10V40C10 39.8687 9.97415 39.7386 9.9239 39.6173C9.87364 39.496 9.79999 39.3858 9.70713 39.2929C9.61427 39.2 9.50403 39.1264 9.3827 39.0761C9.26137 39.0259 9.13133 39 9.00001 39H3.00001C2.86869 39 2.73865 39.0259 2.61732 39.0761C2.496 39.1264 2.38576 39.2 2.2929 39.2929C2.20004 39.3858 2.12638 39.496 2.07612 39.6173C2.02587 39.7386 2.00001 39.8687 2.00001 40V50C2.00001 50.1313 2.02587 50.2614 2.07612 50.3827C2.12638 50.504 2.20004 50.6143 2.2929 50.7071C2.38576 50.8 2.496 50.8736 2.61732 50.9239C2.73865 50.9741 2.86869 51 3.00001 51H9.00001C9.13133 51 9.26137 50.9741 9.3827 50.9239C9.50403 50.8736 9.61427 50.8 9.70713 50.7071C9.79999 50.6143 9.87364 50.504 9.9239 50.3827C9.97415 50.2614 10 50.1313 10 50V49H11.382L11.5528 49.3416C11.8004 49.8412 12.1831 50.2613 12.6574 50.5544C13.1316 50.8475 13.6786 51.0019 14.2361 51H17.5858L12.2929 56.2929C12.2001 56.3858 12.1264 56.496 12.0761 56.6173C12.0259 56.7386 12 56.8687 12 57C12 57.1313 12.0259 57.2614 12.0761 57.3827C12.1264 57.504 12.2001 57.6143 12.2929 57.7071L16.2929 61.7071C16.3858 61.8 16.496 61.8736 16.6173 61.9239C16.7387 61.9741 16.8687 62 17 62C17.1313 62 17.2614 61.9741 17.3827 61.9239C17.504 61.8736 17.6143 61.8 17.7071 61.7071L30.5424 48.8718C32.5224 50.5694 34.9676 51.6317 37.5597 51.9202C40.1518 52.2088 42.7708 51.7104 45.0757 50.4898L55.4645 60.8787C55.8199 61.2345 56.242 61.5168 56.7065 61.7094C57.1711 61.9021 57.6691 62.0013 58.172 62.0015C58.6749 62.0016 59.173 61.9026 59.6376 61.7102C60.1023 61.5178 60.5245 61.2358 60.8802 60.8801C61.2358 60.5245 61.5178 60.1023 61.7102 59.6376C61.9026 59.173 62.0016 58.6749 62.0015 58.172C62.0013 57.6691 61.9021 57.1711 61.7094 56.7065C61.5168 56.242 61.2345 55.8199 60.8787 55.4645L50.4899 45.0757C51.9949 42.2312 52.392 38.9299 51.6046 35.8097L58 29.4143L60.2929 31.7071C60.4328 31.847 60.611 31.9422 60.8049 31.9808C60.9989 32.0194 61.2 31.9996 61.3827 31.9239C61.5654 31.8482 61.7216 31.72 61.8315 31.5556C61.9414 31.3911 62 31.1978 62 31V21C62 20.8687 61.9742 20.7386 61.9239 20.6173C61.8736 20.496 61.8 20.3858 61.7071 20.2929C61.6143 20.2 61.504 20.1264 61.3827 20.0761C61.2614 20.0259 61.1313 20 61 20ZM54 10H57C57.7957 10 58.5587 10.3161 59.1213 10.8787C59.6839 11.4413 60 12.2044 60 13C60 13.7957 59.6839 14.5587 59.1213 15.1213C58.5587 15.6839 57.7957 16 57 16H54V10ZM33 21C33 21.2652 32.8947 21.5196 32.7071 21.7071C32.5196 21.8947 32.2652 22 32 22C31.7348 22 31.4804 21.8947 31.2929 21.7071C31.1054 21.5196 31 21.2652 31 21V5.00001C31 4.73479 31.1054 4.48044 31.2929 4.2929C31.4804 4.10537 31.7348 4.00001 32 4.00001C32.2652 4.00001 32.5196 4.10537 32.7071 4.2929C32.8947 4.48044 33 4.73479 33 5.00001V21ZM8.00001 49H4.00001V41H8.00001V49ZM44.454 27.2016C43.723 26.8636 42.9623 26.5942 42.1816 26.3968L43.7906 19.9608L46.5894 19.3716L44.454 27.2016ZM35 19.7675V6.23248L52 9.81141V16.1886L35 19.7675ZM39 28C41.5716 28.0011 44.0617 28.9025 46.038 30.5477L40 36.5858L36.7071 33.2929C36.5196 33.1054 36.2652 33 36 33C35.7348 33 35.4805 33.1054 35.2929 33.2929L28.1006 40.4852C27.8888 38.9296 28.0124 37.3467 28.4631 35.8428C28.9138 34.339 29.6812 32.949 30.7137 31.7663C31.7461 30.5836 33.0198 29.6356 34.4491 28.986C35.8783 28.3363 37.43 28.0002 39 28ZM26.3955 42.1904L23.0069 45.579L23.4354 43.6508C23.5328 43.2122 23.5305 42.7574 23.4287 42.3199C23.3268 41.8823 23.128 41.4732 22.8469 41.1228C22.5658 40.7724 22.2096 40.4896 21.8046 40.2952C21.3995 40.1009 20.956 40 20.5068 40H18.2198L18.5021 38.5883C18.6086 38.0584 18.5695 37.5095 18.389 37H25C25.4113 37.0003 25.8183 36.9155 26.1953 36.7509C25.8792 38.558 25.9475 40.4114 26.3955 42.1904V42.1904ZM24 18.4142L25.4304 19.8446L24 20.7982V18.4142ZM8.00001 4.00001H22V22.1315L15 26.7982L8.00001 22.1315V4.00001ZM6.00001 18.4142V20.7982L4.56961 19.8446L6.00001 18.4142ZM5.00001 35C4.73489 34.9997 4.48071 34.8942 4.29324 34.7068C4.10577 34.5193 4.00031 34.2651 4.00001 34V21.8685L14.4453 28.832C14.6096 28.9416 14.8026 29 15 29C15.1974 29 15.3904 28.9416 15.5547 28.832L26 21.8685V34C25.9997 34.2651 25.8943 34.5193 25.7068 34.7068C25.5193 34.8942 25.2651 34.9997 25 35H5.00001ZM14.2361 49C14.0502 49.0006 13.8679 48.9492 13.7098 48.8515C13.5517 48.7538 13.4242 48.6137 13.3416 48.4472L12.8944 47.5528C12.8114 47.3867 12.6837 47.247 12.5257 47.1494C12.3678 47.0517 12.1857 47 12 47H10V43H12C12.2099 43 12.4145 42.934 12.5847 42.8112C12.755 42.6885 12.8823 42.5153 12.9487 42.3162L14.7208 37H15.5604C15.7083 37 15.8544 37.0328 15.9882 37.0961C16.1219 37.1594 16.2399 37.2516 16.3337 37.366C16.4275 37.4804 16.4948 37.6142 16.5306 37.7578C16.5664 37.9013 16.57 38.051 16.541 38.1961L16.0194 40.8039C15.9904 40.949 15.994 41.0987 16.0298 41.2422C16.0657 41.3858 16.1329 41.5196 16.2267 41.634C16.3205 41.7484 16.4385 41.8406 16.5722 41.9039C16.706 41.9672 16.8521 42 17 42H20.5068C20.6565 42 20.8044 42.0336 20.9394 42.0984C21.0744 42.1632 21.1931 42.2575 21.2868 42.3743C21.3805 42.4911 21.4468 42.6274 21.4807 42.7733C21.5147 42.9191 21.5155 43.0707 21.483 43.2169L20.3727 48.2131L19.5858 49H14.2361ZM39 50C36.4286 49.998 33.9389 49.0966 31.9623 47.4519L36 43.4143L39.2929 46.7071C39.4805 46.8946 39.7348 47 40 47C40.2652 47 40.5196 46.8946 40.7071 46.7071L49.8994 37.5148C50.1112 39.0704 49.9876 40.6533 49.5369 42.1572C49.0862 43.6611 48.3188 45.051 47.2864 46.2337C46.2539 47.4164 44.9802 48.3644 43.551 49.0141C42.1217 49.6637 40.57 49.9999 39 50ZM59.4645 56.8787C59.8071 57.2216 59.9996 57.6866 59.9995 58.1714C59.9994 58.6562 59.8067 59.1211 59.4639 59.4639C59.1211 59.8067 58.6562 59.9993 58.1714 59.9995C57.6866 59.9996 57.2216 59.8071 56.8787 59.4645L46.8043 49.3901C47.7828 48.6532 48.6532 47.7828 49.3901 46.8043L59.4645 56.8787ZM60 28.5858L58.7071 27.2929C58.5196 27.1054 58.2652 27 58 27C57.7348 27 57.4805 27.1054 57.2929 27.2929L40 44.5858L36.7071 41.2929C36.5196 41.1054 36.2652 41 36 41C35.7348 41 35.4805 41.1054 35.2929 41.2929L17 59.5858L14.4143 57L36 35.4143L39.2929 38.7071C39.4805 38.8946 39.7348 39 40 39C40.2652 39 40.5196 38.8946 40.7071 38.7071L54.7071 24.7071C54.8 24.6143 54.8736 24.504 54.9239 24.3827C54.9742 24.2614 55 24.1313 55 24C55 23.8687 54.9742 23.7387 54.9239 23.6173C54.8736 23.496 54.8 23.3858 54.7071 23.2929L53.4143 22H60V28.5858Z" fill="#3D9AE2"/>
<path d="M20 10H10V12H20V10Z" fill="#3D9AE2"/>
<path d="M20 14H10V16H20V14Z" fill="#3D9AE2"/>
<path d="M20 18H10V20H20V18Z" fill="#3D9AE2"/>
<path d="M26.7224 54.7891C27.284 55.2262 27.8683 55.6332 28.473 56.0084L29.5271 54.3087C28.9828 53.9709 28.4567 53.6045 27.9512 53.2111L26.7224 54.7891Z" fill="#3D9AE2"/>
<path d="M38.9999 57C36.382 57.0066 33.7947 56.4371 31.4215 55.3319L30.5784 57.1455C33.2156 58.3739 36.0907 59.007 38.9999 59C42.3063 58.9999 45.5612 58.1815 48.4744 56.6177L47.5256 54.8571C44.9041 56.264 41.9751 57.0002 38.9999 57Z" fill="#3D9AE2"/>
<path d="M20 6H10V8H20V6Z" fill="#3D9AE2"/>
<path d="M49.2427 11.0298L41.2427 9.02985L40.7576 10.9702L48.0001 12.7808V15H50.0001V12C50.0001 11.777 49.9256 11.5604 49.7883 11.3846C49.6511 11.2088 49.459 11.084 49.2427 11.0298Z" fill="#3D9AE2"/>
<path d="M17 22H13V24H17V22Z" fill="#3D9AE2"/>
</svg>
